{"glyphs":{"0":{"ha":542,"x_min":33,"x_max":508,"o":"m 272 -18 q 147 11 200 -17 q 63 100 93 39 q 33 267 33 161 l 33 590 q 99 772 33 714 q 275 831 165 831 q 444 772 379 831 q 508 590 508 714 l 508 268 q 479 99 508 161 q 397 9 450 36 q 272 -18 343 -18 m 271 94 q 305 111 292 94 q 318 164 318 128 l 318 647 q 305 699 318 683 q 271 715 292 715 q 240 699 253 715 q 226 647 226 683 l 226 164 q 240 111 226 128 q 271 94 253 94 z "},"1":{"ha":396,"x_min":14,"x_max":350,"o":"m 157 0 l 157 592 l 14 592 l 14 700 l 39 701 q 125 735 93 707 q 181 821 157 763 l 350 821 l 350 0 l 157 0 z "},"2":{"ha":546,"x_min":25,"x_max":522,"o":"m 25 0 q 25 85 25 43 q 25 169 25 128 q 42 294 25 249 q 99 368 60 339 q 199 428 138 397 q 273 472 247 450 q 310 522 299 493 q 321 597 321 551 q 311 665 321 642 q 274 688 301 688 q 235 658 244 688 q 225 567 225 628 l 225 514 l 33 514 l 33 625 q 94 774 33 725 q 276 824 156 824 q 423 801 369 824 q 499 726 476 778 q 521 590 521 675 q 491 433 521 492 q 386 335 461 375 q 329 303 356 318 q 282 273 303 289 q 250 235 261 257 q 233 200 239 219 q 225 156 226 181 l 522 156 l 522 0 l 25 0 z "},"3":{"ha":536,"x_min":19,"x_max":510,"o":"m 264 -8 q 128 15 182 -8 q 47 83 74 38 q 19 192 19 128 l 19 292 l 213 292 l 213 250 q 222 158 213 189 q 263 128 232 128 q 299 153 289 128 q 310 217 310 178 l 310 297 q 283 350 310 336 q 200 365 256 364 l 140 365 l 140 468 l 201 468 q 247 473 226 468 q 279 488 267 478 q 303 511 297 497 q 310 542 310 525 l 310 601 q 299 663 310 638 q 263 688 289 688 q 222 657 231 688 q 214 568 214 626 l 214 542 l 21 542 l 21 626 q 81 774 21 724 q 264 824 142 824 q 453 780 396 824 q 510 643 510 736 l 510 571 q 474 458 510 501 q 368 411 439 415 q 473 367 436 408 q 510 256 510 326 l 510 192 q 485 76 510 119 q 406 12 460 32 q 264 -8 353 -8 z "},"4":{"ha":553,"x_min":8,"x_max":542,"o":"m 264 0 l 264 158 l 8 158 l 8 313 l 265 821 l 456 821 l 456 286 l 542 286 l 542 158 l 456 158 l 456 0 l 264 0 m 158 286 l 264 286 l 264 503 l 158 286 z "},"5":{"ha":543,"x_min":26,"x_max":517,"o":"m 272 -11 q 126 6 179 -11 q 49 69 72 22 q 26 206 26 117 l 26 288 l 219 288 l 219 221 q 232 147 219 165 q 271 128 244 128 q 307 148 296 128 q 318 222 318 168 l 318 365 q 315 402 318 385 q 301 430 311 419 q 269 440 290 440 q 234 425 247 440 q 219 383 221 410 l 28 383 l 28 821 l 501 821 l 501 685 l 218 685 l 218 511 q 257 549 228 529 q 349 568 286 568 q 478 533 440 568 q 517 413 517 497 l 517 197 q 490 72 517 117 q 410 8 464 26 q 272 -11 356 -11 z "},"6":{"ha":546,"x_min":33,"x_max":517,"o":"m 271 -15 q 143 9 197 -15 q 61 85 89 33 q 33 214 33 136 l 33 631 q 99 781 33 732 q 272 829 164 829 q 447 782 386 829 q 508 632 508 735 l 508 575 l 317 575 l 317 654 q 306 699 317 686 q 272 713 294 713 q 238 698 250 713 q 226 653 226 683 l 226 474 q 283 515 247 503 q 357 528 319 528 q 471 494 425 528 q 517 392 517 461 l 517 190 q 486 79 517 125 q 401 9 456 33 q 271 -15 346 -15 m 275 97 q 310 111 296 97 q 325 158 325 125 l 325 360 q 306 399 325 390 q 272 408 288 408 q 241 399 254 408 q 226 374 228 389 l 226 158 q 240 112 226 126 q 275 97 254 97 z "},"7":{"ha":469,"x_min":10,"x_max":451,"o":"m 38 0 l 260 686 l 10 686 l 10 821 l 451 821 l 451 683 l 231 0 l 38 0 z "},"8":{"ha":536,"x_min":26,"x_max":508,"o":"m 269 -11 q 135 13 189 -11 q 53 82 81 36 q 26 194 26 128 l 26 244 q 33 320 26 286 q 57 378 39 354 q 105 413 72 397 q 190 431 138 428 q 115 438 138 429 q 69 465 92 447 q 40 531 44 489 q 35 614 35 572 l 35 649 q 56 747 35 708 q 128 805 78 786 q 269 824 179 824 q 412 805 361 824 q 484 747 463 786 q 506 649 506 708 l 506 614 q 495 526 506 565 q 455 464 485 488 q 368 431 425 440 q 449 409 419 428 q 490 363 478 390 q 506 303 503 335 q 508 242 508 271 l 508 192 q 484 90 508 136 q 407 17 460 44 q 269 -11 354 -11 m 267 97 q 306 114 294 97 q 317 157 317 131 l 317 285 q 307 330 317 313 q 267 347 297 347 q 228 326 238 347 q 218 283 218 306 l 218 157 q 228 115 218 132 q 267 97 239 99 m 267 492 q 301 508 286 492 q 315 564 315 525 l 315 638 q 306 697 315 672 q 267 722 296 722 q 228 697 236 722 q 219 640 219 671 l 219 567 q 226 522 219 539 q 243 499 232 506 q 267 492 254 492 z "},"9":{"ha":543,"x_min":26,"x_max":510,"o":"m 272 -17 q 96 31 157 -17 q 35 181 35 78 l 35 253 l 226 253 l 226 158 q 238 113 226 126 q 271 100 249 100 q 305 115 293 100 q 317 160 317 129 l 317 351 q 260 310 297 322 q 186 297 224 297 q 104 315 140 297 q 47 374 68 332 q 26 488 26 415 l 26 622 q 57 734 26 689 q 143 803 88 779 q 272 828 199 828 q 401 803 347 828 q 482 728 454 779 q 510 599 510 678 l 510 182 q 445 32 510 81 q 272 -17 381 -17 m 271 415 q 302 426 289 415 q 317 450 315 436 l 317 654 q 303 701 317 686 q 268 715 289 715 q 233 701 247 715 q 219 654 219 688 l 219 465 q 238 426 219 435 q 271 415 256 417 z "},"\r":{"ha":833,"x_min":0,"x_max":0,"o":""}," ":{"ha":218,"x_min":0,"x_max":0,"o":""}," ":{"ha":218,"x_min":0,"x_max":0,"o":""},"A":{"ha":557,"x_min":8,"x_max":549,"o":"m 8 0 l 139 821 l 421 821 l 549 0 l 333 0 l 315 135 l 232 135 l 217 0 l 8 0 m 233 229 l 315 229 l 275 661 l 233 229 z "},"А":{"ha":557,"x_min":8,"x_max":549,"o":"m 8 0 l 139 821 l 421 821 l 549 0 l 333 0 l 315 135 l 232 135 l 217 0 l 8 0 m 233 229 l 315 229 l 275 661 l 233 229 z "},"Æ":{"ha":776,"x_min":-3,"x_max":750,"o":"m -3 0 l 229 821 l 735 821 l 735 686 l 513 686 l 515 497 l 714 497 l 714 346 l 518 346 l 521 132 l 750 132 l 750 0 l 308 0 l 311 135 l 238 135 l 206 0 l -3 0 m 251 229 l 322 229 l 342 631 l 344 661 l 339 631 l 251 229 z "},"Á":{"ha":557,"x_min":8,"x_max":549,"o":"m 8 0 l 139 821 l 421 821 l 549 0 l 333 0 l 315 135 l 232 135 l 217 0 l 8 0 m 233 229 l 315 229 l 275 661 l 233 229 m 188 882 l 296 1018 l 465 1018 l 293 882 l 188 882 z "},"Ă":{"ha":557,"x_min":8,"x_max":549,"o":"m 8 0 l 139 821 l 421 821 l 549 0 l 333 0 l 315 135 l 232 135 l 217 0 l 8 0 m 233 229 l 315 229 l 275 661 l 233 229 m 276 876 q 173 901 208 876 q 126 960 138 926 q 114 1021 114 994 l 214 1021 q 235 979 215 993 q 278 965 254 965 q 323 978 304 965 q 343 1021 342 992 l 446 1021 q 428 949 444 982 q 374 897 411 917 q 276 876 338 876 z "},"Ắ":{"ha":557,"x_min":8,"x_max":549,"o":"m 8 0 l 139 821 l 421 821 l 549 0 l 333 0 l 315 135 l 232 135 l 217 0 l 8 0 m 233 229 l 315 229 l 275 661 l 233 229 m 278 868 q 193 888 221 868 q 157 935 165 908 q 149 982 149 961 l 247 982 q 256 962 244 969 q 279 954 268 954 q 302 961 290 954 q 313 982 314 968 l 413 982 q 381 900 413 932 q 278 868 350 868 m 214 1011 l 271 1119 l 444 1119 l 332 1011 l 214 1011 z "},"Ặ":{"ha":557,"x_min":8,"x_max":549,"o":"m 8 0 l 139 821 l 421 821 l 549 0 l 333 0 l 315 135 l 232 135 l 217 0 l 8 0 m 233 229 l 315 229 l 275 661 l 233 229 m 279 -193 q 226 -172 247 -193 q 204 -121 204 -150 q 226 -69 204 -90 q 279 -47 247 -47 q 333 -69 310 -47 q 356 -121 356 -90 q 333 -172 356 -150 q 279 -193 310 -193 m 276 876 q 173 901 208 876 q 126 960 138 926 q 114 1021 114 994 l 214 1021 q 235 979 215 993 q 278 965 254 965 q 323 978 304 965 q 343 1021 342 992 l 446 1021 q 428 949 444 982 q 374 897 411 917 q 276 876 338 876 z "},"Ằ":{"ha":557,"x_min":8,"x_max":549,"o":"m 8 0 l 139 821 l 421 821 l 549 0 l 333 0 l 315 135 l 232 135 l 217 0 l 8 0 m 233 229 l 315 229 l 275 661 l 233 229 m 276 868 q 192 888 219 868 q 156 935 164 908 q 149 982 149 961 l 246 982 q 256 960 244 967 q 278 954 268 954 q 301 961 290 954 q 313 982 313 968 l 411 982 q 381 900 413 932 q 276 868 349 868 m 239 1011 l 126 1119 l 300 1119 l 357 1011 l 239 1011 z "},"Ẳ":{"ha":557,"x_min":8,"x_max":549,"o":"m 8 0 l 139 821 l 421 821 l 549 0 l 333 0 l 315 135 l 232 135 l 217 0 l 8 0 m 233 229 l 315 229 l 275 661 l 233 229 m 278 868 q 193 888 221 868 q 157 935 165 908 q 149 982 149 961 l 247 982 q 256 962 244 969 q 279 954 268 954 q 302 961 290 954 q 313 982 314 968 l 413 982 q 381 900 413 932 q 278 868 350 868 m 228 1010 l 228 1017 q 240 1040 228 1032 q 263 1053 251 1047 q 274 1069 274 1060 l 274 1076 q 270 1090 274 1088 q 263 1093 267 1093 q 254 1089 258 1093 q 250 1076 250 1085 l 176 1086 q 199 1138 178 1119 q 269 1156 221 1156 q 348 1142 326 1156 q 369 1082 369 1129 l 369 1076 q 359 1046 369 1054 q 338 1033 349 1038 q 326 1018 326 1029 l 326 1010 l 228 1010 z "},"Ẵ":{"ha":557,"x_min":8,"x_max":549,"o":"m 8 0 l 139 821 l 421 821 l 549 0 l 333 0 l 315 135 l 232 135 l 217 0 l 8 0 m 233 229 l 315 229 l 275 661 l 233 229 m 276 868 q 192 888 219 868 q 156 935 164 908 q 147 982 147 961 l 246 982 q 256 962 244 969 q 278 954 267 954 q 301 961 290 954 q 313 982 313 968 l 411 982 q 380 900 413 932 q 276 868 347 868 m 331 1004 q 297 1011 313 1004 q 264 1028 281 1018 q 242 1038 251 1033 q 217 1042 232 1042 q 198 1031 204 1042 q 192 1006 192 1019 l 144 1006 q 165 1091 143 1058 q 219 1124 186 1124 q 253 1119 236 1124 q 282 1107 269 1114 q 308 1096 297 1101 q 332 1090 319 1090 q 353 1099 347 1090 q 360 1119 358 1108 l 414 1119 q 399 1056 414 1082 q 366 1017 385 1029 q 331 1004 347 1004 z "},"Ǎ":{"ha":557,"x_min":8,"x_max":549,"o":"m 8 0 l 139 821 l 421 821 l 549 0 l 333 0 l 315 135 l 232 135 l 217 0 l 8 0 m 233 229 l 315 229 l 275 661 l 233 229 m 228 876 l 92 1021 l 210 1021 l 281 958 l 351 1019 l 467 1019 l 331 876 l 228 876 z "},"Â":{"ha":557,"x_min":8,"x_max":549,"o":"m 8 0 l 139 821 l 421 821 l 549 0 l 333 0 l 315 135 l 232 135 l 217 0 l 8 0 m 233 229 l 315 229 l 275 661 l 233 229 m 89 876 l 226 1022 l 329 1022 l 468 878 l 351 878 l 279 942 l 208 876 l 89 876 z "},"Ấ":{"ha":557,"x_min":8,"x_max":658,"o":"m 8 0 l 139 821 l 421 821 l 549 0 l 333 0 l 315 135 l 232 135 l 217 0 l 8 0 m 233 229 l 315 229 l 275 661 l 233 229 m 129 868 l 229 990 l 326 990 l 428 868 l 321 868 l 279 915 l 239 868 l 129 868 m 426 953 l 483 1061 l 657 1061 l 544 953 l 426 953 z "},"Ậ":{"ha":557,"x_min":8,"x_max":549,"o":"m 8 0 l 139 821 l 421 821 l 549 0 l 333 0 l 315 135 l 232 135 l 217 0 l 8 0 m 233 229 l 315 229 l 275 661 l 233 229 m 279 -193 q 226 -172 247 -193 q 204 -121 204 -150 q 226 -69 204 -90 q 279 -47 247 -47 q 333 -69 310 -47 q 356 -121 356 -90 q 333 -172 356 -150 q 279 -193 310 -193 m 89 876 l 226 1022 l 329 1022 l 468 878 l 351 878 l 279 942 l 208 876 l 89 876 z "},"Ầ":{"ha":557,"x_min":8,"x_max":568,"o":"m 8 0 l 139 821 l 421 821 l 549 0 l 333 0 l 315 135 l 232 135 l 217 0 l 8 0 m 233 229 l 315 229 l 275 661 l 233 229 m 129 868 l 229 990 l 326 990 l 428 868 l 321 868 l 279 915 l 239 868 l 129 868 m 449 950 l 336 1058 l 511 1058 l 568 950 l 449 950 z "},"Ẩ":{"ha":557,"x_min":8,"x_max":568,"o":"m 8 0 l 139 821 l 421 821 l 549 0 l 333 0 l 315 135 l 232 135 l 217 0 l 8 0 m 233 229 l 315 229 l 275 661 l 233 229 m 129 868 l 229 990 l 326 990 l 428 868 l 321 868 l 279 915 l 239 868 l 129 868 m 426 943 l 426 950 q 438 972 426 964 q 460 987 449 981 q 472 1003 472 993 l 472 1010 q 469 1023 472 1019 q 461 1026 465 1026 q 449 1010 450 1026 l 375 1019 q 399 1071 378 1053 q 468 1089 419 1089 q 546 1076 524 1089 q 568 1015 568 1063 l 568 1010 q 558 979 568 988 q 536 967 547 971 q 525 951 525 963 l 525 943 l 426 943 z "},"Ẫ":{"ha":557,"x_min":8,"x_max":549,"o":"m 8 0 l 139 821 l 421 821 l 549 0 l 333 0 l 315 135 l 232 135 l 217 0 l 8 0 m 233 229 l 315 229 l 275 661 l 233 229 m 129 868 l 229 990 l 326 990 l 428 868 l 321 868 l 279 915 l 239 868 l 129 868 m 331 1017 q 297 1024 313 1017 q 267 1038 281 1031 q 241 1048 253 1044 q 218 1051 229 1051 q 199 1041 206 1051 q 192 1018 192 1031 l 146 1018 q 165 1101 144 1069 q 221 1133 186 1133 q 254 1129 238 1133 q 285 1117 271 1125 q 308 1106 297 1111 q 332 1101 319 1101 q 354 1111 349 1101 q 361 1131 360 1121 l 414 1131 q 401 1067 415 1093 q 367 1029 386 1042 q 331 1017 347 1017 z "},"Ä":{"ha":557,"x_min":8,"x_max":549,"o":"m 8 0 l 139 821 l 421 821 l 549 0 l 333 0 l 315 135 l 232 135 l 217 0 l 8 0 m 233 229 l 315 229 l 275 661 l 233 229 m 189 878 q 135 899 157 878 q 114 949 114 919 q 135 999 114 979 q 189 1019 157 1019 q 242 999 221 1019 q 263 949 263 979 q 242 899 263 919 q 189 878 221 878 m 369 878 q 316 899 338 878 q 294 949 294 919 q 316 999 294 979 q 369 1019 338 1019 q 422 999 401 1019 q 443 949 443 979 q 422 899 443 919 q 369 878 401 878 z "},"Ạ":{"ha":557,"x_min":8,"x_max":549,"o":"m 8 0 l 139 821 l 421 821 l 549 0 l 333 0 l 315 135 l 232 135 l 217 0 l 8 0 m 233 229 l 315 229 l 275 661 l 233 229 m 279 -193 q 226 -172 247 -193 q 204 -121 204 -150 q 226 -69 204 -90 q 279 -47 247 -47 q 333 -69 310 -47 q 356 -121 356 -90 q 333 -172 356 -150 q 279 -193 310 -193 z "},"À":{"ha":557,"x_min":8,"x_max":549,"o":"m 8 0 l 139 821 l 421 821 l 549 0 l 333 0 l 315 135 l 232 135 l 217 0 l 8 0 m 233 229 l 315 229 l 275 661 l 233 229 m 249 882 l 89 1013 l 263 1013 l 365 882 l 249 882 z "},"Ả":{"ha":557,"x_min":8,"x_max":549,"o":"m 8 0 l 139 821 l 421 821 l 549 0 l 333 0 l 315 135 l 232 135 l 217 0 l 8 0 m 233 229 l 315 229 l 275 661 l 233 229 m 225 871 l 225 886 q 240 917 225 907 q 268 938 254 928 q 282 963 282 947 l 282 971 q 278 990 282 981 q 263 1000 274 1000 q 242 971 243 1000 l 160 983 q 190 1046 163 1025 q 271 1067 218 1067 q 359 1051 329 1067 q 389 975 389 1035 l 389 969 q 373 926 389 938 q 341 908 357 914 q 325 885 325 901 l 325 871 l 225 871 z "},"Ā":{"ha":557,"x_min":8,"x_max":549,"o":"m 8 0 l 139 821 l 421 821 l 549 0 l 333 0 l 315 135 l 232 135 l 217 0 l 8 0 m 233 229 l 315 229 l 275 661 l 233 229 m 131 894 l 131 989 l 428 989 l 428 894 l 131 894 z "},"Ą":{"ha":557,"x_min":8,"x_max":578,"o":"m 8 0 l 139 821 l 421 821 l 549 0 l 333 0 l 315 135 l 232 135 l 217 0 l 8 0 m 233 229 l 315 229 l 275 661 l 233 229 m 479 -206 q 390 -177 424 -206 q 357 -114 357 -149 q 390 -40 357 -75 q 475 3 422 -4 l 549 0 q 494 -37 511 -11 q 476 -87 476 -62 q 494 -126 476 -112 q 529 -140 511 -140 q 546 -138 539 -140 q 556 -135 553 -136 l 578 -182 q 548 -196 569 -186 q 479 -206 526 -206 z "},"Å":{"ha":557,"x_min":8,"x_max":549,"o":"m 8 0 l 139 821 l 421 821 l 549 0 l 333 0 l 315 135 l 232 135 l 217 0 l 8 0 m 233 229 l 315 229 l 275 661 l 233 229 m 288 825 q 198 859 233 825 q 163 942 163 893 q 198 1027 163 993 q 288 1061 233 1061 q 376 1026 339 1061 q 413 942 413 992 q 375 859 413 893 q 288 825 338 825 m 288 899 q 322 911 308 899 q 335 942 335 924 q 322 976 335 964 q 288 989 308 989 q 253 976 267 989 q 239 942 239 964 q 253 911 239 924 q 288 899 267 899 z "},"Ã":{"ha":557,"x_min":8,"x_max":549,"o":"m 8 0 l 139 821 l 421 821 l 549 0 l 333 0 l 315 135 l 232 135 l 217 0 l 8 0 m 233 229 l 315 229 l 275 661 l 233 229 m 339 883 q 297 892 317 883 q 258 913 278 901 q 227 928 243 921 q 194 935 211 935 q 167 921 176 935 q 156 885 157 907 l 103 885 q 128 983 103 946 q 197 1019 154 1019 q 241 1012 221 1019 q 278 994 261 1004 q 310 979 294 986 q 340 972 325 972 q 371 985 361 972 q 383 1015 381 997 l 442 1015 q 424 943 440 972 q 385 899 408 914 q 339 883 363 883 z "},"B":{"ha":560,"x_min":46,"x_max":529,"o":"m 46 0 l 46 821 l 354 821 q 476 783 436 821 q 517 682 517 744 l 517 590 q 506 524 517 554 q 475 475 496 494 q 438 451 460 460 q 393 440 415 443 l 393 439 q 434 433 414 439 q 476 411 454 428 q 515 361 500 393 q 529 282 529 329 l 529 172 q 506 68 529 106 q 440 15 483 31 q 335 0 396 0 l 46 0 m 239 99 l 290 99 q 314 106 304 99 q 329 131 324 113 q 335 183 335 150 l 335 276 q 322 342 335 326 q 286 357 310 357 l 239 357 l 239 99 m 239 478 l 283 478 q 318 497 304 478 q 332 568 332 515 l 332 646 q 321 702 332 686 q 290 718 310 718 l 239 718 l 239 478 z "},"Б":{"ha":542,"x_min":46,"x_max":507,"o":"m 46 0 l 46 821 l 464 821 l 464 686 l 235 686 l 235 606 l 350 606 q 426 593 390 606 q 484 547 461 581 q 507 446 507 514 l 507 219 q 494 101 507 144 q 456 35 481 57 q 397 7 431 14 q 322 0 363 0 l 46 0 m 278 99 q 302 105 293 99 q 315 125 311 111 q 318 160 318 139 l 318 429 q 315 463 318 450 q 303 483 311 476 q 278 490 294 490 l 235 490 l 235 99 l 278 99 z "},"C":{"ha":550,"x_min":38,"x_max":517,"o":"m 281 -17 q 154 1 208 -17 q 69 71 100 18 q 38 229 38 124 l 38 647 q 69 758 38 718 q 155 816 100 799 q 281 833 210 833 q 407 816 354 833 q 488 758 460 799 q 517 647 517 718 l 517 465 l 324 465 l 324 656 q 318 693 324 681 q 303 710 313 706 q 281 715 294 715 q 258 710 268 715 q 243 693 249 706 q 238 656 238 681 l 238 156 q 243 118 238 132 q 258 100 249 104 q 281 96 268 96 q 303 100 294 96 q 318 118 313 104 q 324 156 324 132 l 324 332 l 517 332 l 517 231 q 488 71 517 124 q 407 1 460 18 q 281 -17 354 -17 z "},"Ć":{"ha":550,"x_min":38,"x_max":517,"o":"m 281 -17 q 154 1 208 -17 q 69 71 100 18 q 38 229 38 124 l 38 647 q 69 758 38 718 q 155 816 100 799 q 281 833 210 833 q 407 816 354 833 q 488 758 460 799 q 517 647 517 718 l 517 465 l 324 465 l 324 656 q 318 693 324 681 q 303 710 313 706 q 281 715 294 715 q 258 710 268 715 q 243 693 249 706 q 238 656 238 681 l 238 156 q 243 118 238 132 q 258 100 249 104 q 281 96 268 96 q 303 100 294 96 q 318 118 313 104 q 324 156 324 132 l 324 332 l 517 332 l 517 231 q 488 71 517 124 q 407 1 460 18 q 281 -17 354 -17 m 185 882 l 293 1018 l 463 1018 l 290 882 l 185 882 z "},"Č":{"ha":550,"x_min":38,"x_max":517,"o":"m 281 -17 q 154 1 208 -17 q 69 71 100 18 q 38 229 38 124 l 38 647 q 69 758 38 718 q 155 816 100 799 q 281 833 210 833 q 407 816 354 833 q 488 758 460 799 q 517 647 517 718 l 517 465 l 324 465 l 324 656 q 318 693 324 681 q 303 710 313 706 q 281 715 294 715 q 258 710 268 715 q 243 693 249 706 q 238 656 238 681 l 238 156 q 243 118 238 132 q 258 100 249 104 q 281 96 268 96 q 303 100 294 96 q 318 118 313 104 q 324 156 324 132 l 324 332 l 517 332 l 517 231 q 488 71 517 124 q 407 1 460 18 q 281 -17 354 -17 m 224 876 l 88 1021 l 206 1021 l 276 958 l 347 1019 l 463 1019 l 326 876 l 224 876 z "},"Ç":{"ha":550,"x_min":38,"x_max":517,"o":"m 281 -17 q 154 1 208 -17 q 69 71 100 18 q 38 229 38 124 l 38 647 q 69 758 38 718 q 155 816 100 799 q 281 833 210 833 q 407 816 354 833 q 488 758 460 799 q 517 647 517 718 l 517 465 l 324 465 l 324 656 q 318 693 324 681 q 303 710 313 706 q 281 715 294 715 q 258 710 268 715 q 243 693 249 706 q 238 656 238 681 l 238 156 q 243 118 238 132 q 258 100 249 104 q 281 96 268 96 q 303 100 294 96 q 318 118 313 104 q 324 156 324 132 l 324 332 l 517 332 l 517 231 q 488 71 517 124 q 407 1 460 18 q 281 -17 354 -17 m 268 -233 q 215 -222 239 -233 q 181 -206 190 -211 l 203 -147 q 230 -162 213 -156 q 260 -168 247 -168 q 290 -158 279 -168 q 301 -131 301 -149 q 293 -112 301 -118 q 274 -106 285 -106 q 259 -108 265 -106 q 249 -115 253 -111 l 199 -87 l 242 0 l 311 0 l 275 -74 l 265 -68 q 288 -59 274 -64 q 319 -54 301 -54 q 382 -80 360 -54 q 404 -135 404 -106 q 369 -204 404 -175 q 268 -233 333 -233 z "},"Ċ":{"ha":550,"x_min":38,"x_max":517,"o":"m 281 -17 q 154 1 208 -17 q 69 71 100 18 q 38 229 38 124 l 38 647 q 69 758 38 718 q 155 816 100 799 q 281 833 210 833 q 407 816 354 833 q 488 758 460 799 q 517 647 517 718 l 517 465 l 324 465 l 324 656 q 318 693 324 681 q 303 710 313 706 q 281 715 294 715 q 258 710 268 715 q 243 693 249 706 q 238 656 238 681 l 238 156 q 243 118 238 132 q 258 100 249 104 q 281 96 268 96 q 303 100 294 96 q 318 118 313 104 q 324 156 324 132 l 324 332 l 517 332 l 517 231 q 488 71 517 124 q 407 1 460 18 q 281 -17 354 -17 m 296 879 q 230 906 257 879 q 201 969 203 932 q 230 1035 201 1008 q 297 1061 258 1061 q 364 1035 336 1061 q 392 969 392 1008 q 365 906 393 932 q 296 879 336 879 z "},"Ч":{"ha":539,"x_min":33,"x_max":499,"o":"m 306 0 l 306 222 q 260 198 294 210 q 189 186 226 186 q 92 207 126 186 q 46 269 58 228 q 33 369 33 311 l 33 821 l 222 821 l 222 369 q 232 328 222 342 q 264 314 242 314 q 290 317 279 314 q 306 325 301 321 l 306 821 l 499 821 l 499 0 l 306 0 z "},"D":{"ha":563,"x_min":46,"x_max":525,"o":"m 46 0 l 46 821 l 351 821 q 449 803 411 821 q 506 753 488 786 q 525 675 525 721 l 525 175 q 501 70 525 108 q 431 16 476 32 q 324 0 386 0 l 46 0 m 247 99 l 292 99 q 321 111 310 99 q 332 157 332 124 l 332 654 q 321 701 332 688 q 292 714 310 714 l 247 714 l 247 99 z "},"Ď":{"ha":563,"x_min":46,"x_max":525,"o":"m 46 0 l 46 821 l 351 821 q 449 803 411 821 q 506 753 488 786 q 525 675 525 721 l 525 175 q 501 70 525 108 q 431 16 476 32 q 324 0 386 0 l 46 0 m 247 99 l 292 99 q 321 111 310 99 q 332 157 332 124 l 332 654 q 321 701 332 688 q 292 714 310 714 l 247 714 l 247 99 m 229 876 l 93 1021 l 211 1021 l 282 958 l 353 1019 l 468 1019 l 332 876 l 229 876 z "},"Đ":{"ha":617,"x_min":14,"x_max":578,"o":"m 74 0 l 74 821 l 406 821 q 503 803 465 821 q 560 753 542 786 q 578 675 578 721 l 578 175 q 553 70 578 108 q 485 16 529 32 q 378 0 440 0 l 74 0 m 14 349 l 14 458 l 317 458 l 317 349 l 14 349 m 274 99 l 331 99 q 374 111 361 99 q 386 157 386 124 l 386 654 q 374 701 386 688 q 331 714 361 714 l 274 714 l 274 99 z "},"Д":{"ha":864,"x_min":32,"x_max":832,"o":"m 32 -161 l 32 122 l 108 122 q 156 156 133 125 q 185 232 179 188 q 198 345 190 281 q 213 479 206 410 q 226 615 221 549 q 235 735 231 681 q 239 821 239 789 l 688 821 l 688 122 l 832 122 l 832 -161 l 675 -161 l 675 -37 l 189 -37 l 189 -161 l 32 -161 m 336 122 l 497 122 l 497 686 l 419 686 q 400 469 408 578 q 382 253 392 361 q 367 174 378 214 q 336 122 357 135 z "},"Δ":{"ha":788,"x_min":33,"x_max":754,"o":"m 33 0 l 300 813 l 494 813 l 754 0 l 33 0 m 256 144 l 522 144 l 389 586 l 256 144 z "},"Ђ":{"ha":656,"x_min":13,"x_max":622,"o":"m 136 0 l 136 686 l 13 686 l 13 821 l 453 821 l 453 686 l 329 686 l 329 510 q 378 551 342 532 q 465 569 415 569 q 542 557 507 569 q 600 510 578 544 q 622 410 622 476 l 622 219 q 608 96 622 140 q 567 31 593 51 q 508 5 542 10 q 433 0 474 0 q 394 6 417 0 q 358 17 371 11 l 358 100 q 374 99 365 99 q 390 99 383 99 q 423 115 413 99 q 433 167 433 131 l 433 394 q 423 439 433 425 q 382 453 413 453 q 347 445 358 453 q 329 426 336 438 l 329 0 l 136 0 z "},"Ѕ":{"ha":553,"x_min":26,"x_max":526,"o":"m 272 -11 q 139 10 194 -11 q 55 83 83 31 q 26 235 26 136 l 26 285 q 127 285 76 285 q 228 285 178 285 l 228 218 q 233 151 228 174 q 249 119 239 128 q 275 111 260 111 q 310 130 299 111 q 322 204 322 149 q 308 276 322 253 q 260 314 293 299 q 171 351 226 329 q 90 406 121 375 q 47 482 60 436 q 33 590 33 528 q 56 726 33 675 q 131 801 78 778 q 276 824 183 824 q 456 774 394 824 q 517 626 517 725 l 517 525 q 422 525 469 525 q 325 525 374 525 l 325 568 q 317 649 325 626 q 278 671 308 671 q 242 653 251 671 q 232 597 232 636 q 249 530 232 553 q 294 495 267 507 q 353 472 322 483 q 452 424 414 449 q 508 357 490 400 q 526 233 526 314 q 496 88 526 142 q 408 12 465 35 q 272 -11 350 -11 z "},"Џ":{"ha":569,"x_min":40,"x_max":529,"o":"m 224 -137 l 224 0 l 40 0 l 40 821 l 240 821 l 240 135 l 329 135 l 329 821 l 529 821 l 529 0 l 344 0 l 344 -137 l 224 -137 z "},"E":{"ha":460,"x_min":46,"x_max":435,"o":"m 46 0 l 46 821 l 435 821 l 435 686 l 247 686 l 247 497 l 411 497 l 411 346 l 247 346 l 247 132 l 435 132 l 435 0 l 46 0 z "},"É":{"ha":460,"x_min":46,"x_max":435,"o":"m 46 0 l 46 821 l 435 821 l 435 686 l 247 686 l 247 497 l 411 497 l 411 346 l 247 346 l 247 132 l 435 132 l 435 0 l 46 0 m 147 882 l 256 1018 l 425 1018 l 253 882 l 147 882 z "},"Ě":{"ha":460,"x_min":46,"x_max":435,"o":"m 46 0 l 46 821 l 435 821 l 435 686 l 247 686 l 247 497 l 411 497 l 411 346 l 247 346 l 247 132 l 435 132 l 435 0 l 46 0 m 188 876 l 51 1021 l 169 1021 l 240 958 l 311 1019 l 426 1019 l 290 876 l 188 876 z "},"Ê":{"ha":460,"x_min":46,"x_max":435,"o":"m 46 0 l 46 821 l 435 821 l 435 686 l 247 686 l 247 497 l 411 497 l 411 346 l 247 346 l 247 132 l 435 132 l 435 0 l 46 0 m 50 876 l 188 1022 l 290 1022 l 429 878 l 313 878 l 240 942 l 169 876 l 50 876 z "},"Ế":{"ha":460,"x_min":46,"x_max":618,"o":"m 46 0 l 46 821 l 435 821 l 435 686 l 247 686 l 247 497 l 411 497 l 411 346 l 247 346 l 247 132 l 435 132 l 435 0 l 46 0 m 90 868 l 190 990 l 288 990 l 389 868 l 282 868 l 240 915 l 200 868 l 90 868 m 388 953 l 444 1061 l 618 1061 l 506 953 l 388 953 z "},"Ệ":{"ha":460,"x_min":46,"x_max":435,"o":"m 46 0 l 46 821 l 435 821 l 435 686 l 247 686 l 247 497 l 411 497 l 411 346 l 247 346 l 247 132 l 435 132 l 435 0 l 46 0 m 236 -193 q 183 -172 204 -193 q 161 -121 161 -150 q 183 -69 161 -90 q 236 -47 204 -47 q 290 -69 267 -47 q 313 -121 313 -90 q 290 -172 313 -150 q 236 -193 267 -193 m 50 876 l 188 1022 l 290 1022 l 429 878 l 313 878 l 240 942 l 169 876 l 50 876 z "},"Ề":{"ha":460,"x_min":46,"x_max":528,"o":"m 46 0 l 46 821 l 435 821 l 435 686 l 247 686 l 247 497 l 411 497 l 411 346 l 247 346 l 247 132 l 435 132 l 435 0 l 46 0 m 90 868 l 190 990 l 288 990 l 389 868 l 282 868 l 240 915 l 200 868 l 90 868 m 410 950 l 297 1058 l 472 1058 l 529 950 l 410 950 z "},"Ể":{"ha":460,"x_min":46,"x_max":529,"o":"m 46 0 l 46 821 l 435 821 l 435 686 l 247 686 l 247 497 l 411 497 l 411 346 l 247 346 l 247 132 l 435 132 l 435 0 l 46 0 m 90 868 l 190 990 l 288 990 l 389 868 l 282 868 l 240 915 l 200 868 l 90 868 m 388 943 l 388 950 q 399 972 388 964 q 422 987 410 981 q 433 1003 433 993 l 433 1010 q 430 1023 433 1019 q 422 1026 426 1026 q 410 1010 411 1026 l 336 1019 q 360 1071 339 1053 q 429 1089 381 1089 q 507 1076 485 1089 q 529 1015 529 1063 l 529 1010 q 519 979 529 988 q 497 967 508 971 q 486 951 486 963 l 486 943 l 388 943 z "},"Ễ":{"ha":460,"x_min":46,"x_max":435,"o":"m 46 0 l 46 821 l 435 821 l 435 686 l 247 686 l 247 497 l 411 497 l 411 346 l 247 346 l 247 132 l 435 132 l 435 0 l 46 0 m 90 868 l 190 990 l 288 990 l 389 868 l 282 868 l 240 915 l 200 868 l 90 868 m 292 1017 q 258 1024 274 1017 q 228 1038 242 1031 q 202 1048 214 1044 q 179 1051 190 1051 q 160 1041 167 1051 q 153 1018 153 1031 l 107 1018 q 126 1101 106 1069 q 182 1133 147 1133 q 215 1129 199 1133 q 246 1117 232 1125 q 269 1106 258 1111 q 293 1101 281 1101 q 315 1111 310 1101 q 322 1131 321 1121 l 375 1131 q 362 1067 376 1093 q 328 1029 347 1042 q 292 1017 308 1017 z "},"Ë":{"ha":460,"x_min":46,"x_max":435,"o":"m 46 0 l 46 821 l 435 821 l 435 686 l 247 686 l 247 497 l 411 497 l 411 346 l 247 346 l 247 132 l 435 132 l 435 0 l 46 0 m 149 878 q 95 899 117 878 q 74 949 74 919 q 95 999 74 979 q 149 1019 117 1019 q 201 999 181 1019 q 222 949 222 979 q 201 899 222 919 q 149 878 181 878 m 329 878 q 276 899 297 878 q 254 949 254 919 q 276 999 254 979 q 329 1019 297 1019 q 382 999 361 1019 q 403 949 403 979 q 382 899 403 919 q 329 878 361 878 z "},"Ė":{"ha":460,"x_min":46,"x_max":435,"o":"m 46 0 l 46 821 l 435 821 l 435 686 l 247 686 l 247 497 l 411 497 l 411 346 l 247 346 l 247 132 l 435 132 l 435 0 l 46 0 m 260 879 q 194 906 221 879 q 165 969 167 932 q 194 1035 165 1008 q 261 1061 222 1061 q 328 1035 300 1061 q 356 969 356 1008 q 328 906 357 932 q 260 879 300 879 z "},"Ẹ":{"ha":460,"x_min":46,"x_max":435,"o":"m 46 0 l 46 821 l 435 821 l 435 686 l 247 686 l 247 497 l 411 497 l 411 346 l 247 346 l 247 132 l 435 132 l 435 0 l 46 0 m 236 -193 q 183 -172 204 -193 q 161 -121 161 -150 q 183 -69 161 -90 q 236 -47 204 -47 q 290 -69 267 -47 q 313 -121 313 -90 q 290 -172 313 -150 q 236 -193 267 -193 z "},"Ф":{"ha":761,"x_min":28,"x_max":733,"o":"m 286 -46 l 286 103 l 233 103 q 81 141 135 103 q 28 279 28 179 l 28 557 q 70 665 28 625 q 206 704 113 704 l 286 704 l 286 821 l 475 821 l 475 704 l 556 704 q 691 665 649 704 q 733 556 733 625 l 733 279 q 679 140 733 178 q 528 103 625 103 l 475 103 l 475 -46 l 286 -46 m 265 200 l 286 200 q 286 399 286 300 q 286 597 286 499 l 265 597 q 232 583 243 597 q 221 536 221 569 l 221 261 q 232 214 221 228 q 265 200 243 200 m 475 200 l 496 200 q 529 213 517 200 q 542 263 542 226 l 542 535 q 529 584 542 571 q 496 597 517 597 l 475 597 q 475 399 475 499 q 475 200 475 300 z "},"È":{"ha":460,"x_min":46,"x_max":435,"o":"m 46 0 l 46 821 l 435 821 l 435 686 l 247 686 l 247 497 l 411 497 l 411 346 l 247 346 l 247 132 l 435 132 l 435 0 l 46 0 m 208 882 l 49 1013 l 222 1013 l 325 882 l 208 882 z "},"Ẻ":{"ha":460,"x_min":46,"x_max":435,"o":"m 46 0 l 46 821 l 435 821 l 435 686 l 247 686 l 247 497 l 411 497 l 411 346 l 247 346 l 247 132 l 435 132 l 435 0 l 46 0 m 185 871 l 185 886 q 199 917 185 907 q 228 938 214 928 q 242 963 242 947 l 242 971 q 238 990 242 981 q 222 1000 233 1000 q 201 971 203 1000 l 119 983 q 150 1046 122 1025 q 231 1067 178 1067 q 319 1051 289 1067 q 349 975 349 1035 l 349 969 q 333 926 349 938 q 301 908 317 914 q 285 885 285 901 l 285 871 l 185 871 z "},"Л":{"ha":635,"x_min":10,"x_max":594,"o":"m 10 0 l 10 97 q 60 129 36 97 q 86 203 83 161 l 131 821 l 594 821 l 594 0 l 401 0 l 401 686 l 319 686 l 278 154 q 272 101 275 128 q 257 51 269 74 q 216 14 244 28 q 135 0 188 0 l 10 0 z "},"М":{"ha":747,"x_min":46,"x_max":701,"o":"m 46 0 l 46 821 l 289 821 l 374 349 l 460 821 l 701 821 l 701 0 l 532 0 l 532 592 l 439 0 l 308 0 l 215 592 l 215 0 l 46 0 z "},"Ē":{"ha":460,"x_min":46,"x_max":435,"o":"m 46 0 l 46 821 l 435 821 l 435 686 l 247 686 l 247 497 l 411 497 l 411 346 l 247 346 l 247 132 l 435 132 l 435 0 l 46 0 m 90 894 l 90 989 l 388 989 l 388 894 l 90 894 z "},"Н":{"ha":567,"x_min":46,"x_max":521,"o":"m 46 0 l 46 821 l 239 821 l 239 494 l 329 494 l 329 821 l 521 821 l 521 0 l 329 0 l 329 351 l 239 351 l 239 0 l 46 0 z "},"Ŋ":{"ha":563,"x_min":46,"x_max":517,"o":"m 308 -265 q 274 -265 297 -265 q 238 -264 250 -265 l 238 -132 l 279 -133 q 333 -119 319 -133 q 347 -62 347 -106 l 347 3 l 215 400 l 215 0 l 46 0 l 47 821 l 214 821 l 347 383 l 349 821 l 517 821 l 515 -51 q 495 -183 515 -136 q 429 -247 475 -229 q 308 -265 383 -265 z "},"Ę":{"ha":460,"x_min":46,"x_max":435,"o":"m 46 0 l 46 821 l 435 821 l 435 686 l 247 686 l 247 497 l 411 497 l 411 346 l 247 346 l 247 132 l 435 132 l 435 0 l 46 0 m 324 -206 q 235 -177 268 -206 q 201 -114 201 -149 q 234 -40 201 -75 q 319 3 267 -4 l 393 0 q 338 -37 356 -11 q 321 -87 321 -62 q 338 -126 321 -112 q 374 -140 356 -140 q 390 -138 383 -140 q 400 -135 397 -136 l 422 -182 q 392 -196 414 -186 q 324 -206 371 -206 z "},"Р":{"ha":549,"x_min":46,"x_max":524,"o":"m 46 0 l 46 821 l 354 821 q 482 783 440 821 q 524 682 524 744 l 524 542 q 510 433 524 483 q 460 351 496 382 q 358 321 425 321 l 247 321 l 247 0 l 46 0 m 247 425 l 286 425 q 321 456 310 425 q 332 563 332 486 l 332 596 q 324 690 332 663 q 293 718 315 718 l 247 718 l 247 425 z "},"Э":{"ha":553,"x_min":33,"x_max":514,"o":"m 269 -17 q 144 1 197 -17 q 62 71 90 18 q 33 231 33 124 l 33 268 l 226 268 l 226 158 q 232 122 226 135 q 248 103 238 108 q 269 99 258 99 q 293 103 283 99 q 308 122 303 108 q 313 158 313 135 l 313 332 l 140 332 l 140 460 l 313 460 l 313 651 q 308 688 313 675 q 293 706 303 701 q 269 710 283 710 q 248 706 258 710 q 232 689 238 701 q 226 651 226 676 l 226 522 l 33 522 l 33 646 q 62 758 33 717 q 144 816 90 799 q 269 833 197 833 q 397 816 343 833 q 483 758 451 799 q 514 646 514 718 l 514 229 q 483 71 514 124 q 397 1 451 18 q 269 -17 343 -17 z "},"С":{"ha":550,"x_min":38,"x_max":517,"o":"m 281 -17 q 154 1 208 -17 q 69 71 100 18 q 38 229 38 124 l 38 647 q 69 758 38 718 q 155 816 100 799 q 281 833 210 833 q 407 816 354 833 q 488 758 460 799 q 517 647 517 718 l 517 465 l 324 465 l 324 656 q 318 693 324 681 q 303 710 313 706 q 281 715 294 715 q 258 710 268 715 q 243 693 249 706 q 238 656 238 681 l 238 156 q 243 118 238 132 q 258 100 249 104 q 281 96 268 96 q 303 100 294 96 q 318 118 313 104 q 324 156 324 132 l 324 332 l 517 332 l 517 231 q 488 71 517 124 q 407 1 460 18 q 281 -17 354 -17 z "},"Ð":{"ha":617,"x_min":14,"x_max":578,"o":"m 74 0 l 74 821 l 406 821 q 503 803 465 821 q 560 753 542 786 q 578 675 578 721 l 578 175 q 553 70 578 108 q 485 16 529 32 q 378 0 440 0 l 74 0 m 14 349 l 14 458 l 317 458 l 317 349 l 14 349 m 274 99 l 331 99 q 374 111 361 99 q 386 157 386 124 l 386 654 q 374 701 386 688 q 331 714 361 714 l 274 714 l 274 99 z "},"Ẽ":{"ha":460,"x_min":46,"x_max":435,"o":"m 46 0 l 46 821 l 435 821 l 435 686 l 247 686 l 247 497 l 411 497 l 411 346 l 247 346 l 247 132 l 435 132 l 435 0 l 46 0 m 300 883 q 258 892 278 883 q 219 913 239 901 q 188 928 204 921 q 156 935 172 935 q 128 921 138 935 q 117 885 118 907 l 64 885 q 90 983 64 946 q 158 1019 115 1019 q 202 1012 182 1019 q 239 994 222 1004 q 271 979 256 986 q 301 972 286 972 q 332 985 322 972 q 344 1015 342 997 l 403 1015 q 385 943 401 972 q 347 899 369 914 q 300 883 324 883 z "},"F":{"ha":456,"x_min":46,"x_max":435,"o":"m 46 0 l 46 821 l 435 821 l 435 686 l 247 686 l 247 497 l 411 497 l 411 346 l 247 346 l 247 0 l 46 0 z "},"G":{"ha":551,"x_min":38,"x_max":517,"o":"m 218 -14 q 133 1 174 -14 q 65 64 92 17 q 38 203 38 111 l 38 644 q 67 756 38 715 q 150 814 97 797 q 275 831 203 831 q 400 813 346 831 q 485 756 454 796 q 517 644 517 715 l 517 524 l 329 524 l 329 656 q 323 693 329 681 q 306 710 317 706 q 279 715 296 715 q 254 710 265 715 q 237 693 243 706 q 231 656 231 681 l 231 156 q 237 118 231 132 q 254 100 243 104 q 279 96 265 96 q 316 110 303 96 q 329 156 329 124 l 329 314 l 279 314 l 279 422 l 517 422 l 517 0 l 371 0 l 361 58 q 360 55 361 57 q 357 51 358 53 q 313 8 346 29 q 218 -14 281 -14 z "},"Ğ":{"ha":551,"x_min":38,"x_max":517,"o":"m 218 -14 q 133 1 174 -14 q 65 64 92 17 q 38 203 38 111 l 38 644 q 67 756 38 715 q 150 814 97 797 q 275 831 203 831 q 400 813 346 831 q 485 756 454 796 q 517 644 517 715 l 517 524 l 329 524 l 329 656 q 323 693 329 681 q 306 710 317 706 q 279 715 296 715 q 254 710 265 715 q 237 693 243 706 q 231 656 231 681 l 231 156 q 237 118 231 132 q 254 100 243 104 q 279 96 265 96 q 316 110 303 96 q 329 156 329 124 l 329 314 l 279 314 l 279 422 l 517 422 l 517 0 l 371 0 l 361 58 q 360 55 361 57 q 357 51 358 53 q 313 8 346 29 q 218 -14 281 -14 m 272 876 q 169 901 204 876 q 122 960 133 926 q 110 1021 110 994 l 210 1021 q 231 979 211 993 q 274 965 250 965 q 319 978 300 965 q 339 1021 338 992 l 442 1021 q 424 949 440 982 q 370 897 407 917 q 272 876 333 876 z "},"Ģ":{"ha":551,"x_min":38,"x_max":517,"o":"m 218 -14 q 133 1 174 -14 q 65 64 92 17 q 38 203 38 111 l 38 644 q 67 756 38 715 q 150 814 97 797 q 275 831 203 831 q 400 813 346 831 q 485 756 454 796 q 517 644 517 715 l 517 524 l 329 524 l 329 656 q 323 693 329 681 q 306 710 317 706 q 279 715 296 715 q 254 710 265 715 q 237 693 243 706 q 231 656 231 681 l 231 156 q 237 118 231 132 q 254 100 243 104 q 279 96 265 96 q 316 110 303 96 q 329 156 329 124 l 329 314 l 279 314 l 279 422 l 517 422 l 517 0 l 371 0 l 361 58 q 360 55 361 57 q 357 51 358 53 q 313 8 346 29 q 218 -14 281 -14 m 193 -279 q 227 -222 215 -247 q 239 -179 239 -196 q 228 -160 239 -168 q 208 -142 218 -153 q 197 -111 197 -131 q 219 -69 197 -87 q 275 -50 240 -50 q 334 -70 311 -50 q 357 -119 357 -90 q 343 -169 357 -140 q 310 -228 329 -199 q 269 -279 290 -257 l 193 -279 z "},"Ġ":{"ha":551,"x_min":38,"x_max":517,"o":"m 218 -14 q 133 1 174 -14 q 65 64 92 17 q 38 203 38 111 l 38 644 q 67 756 38 715 q 150 814 97 797 q 275 831 203 831 q 400 813 346 831 q 485 756 454 796 q 517 644 517 715 l 517 524 l 329 524 l 329 656 q 323 693 329 681 q 306 710 317 706 q 279 715 296 715 q 254 710 265 715 q 237 693 243 706 q 231 656 231 681 l 231 156 q 237 118 231 132 q 254 100 243 104 q 279 96 265 96 q 316 110 303 96 q 329 156 329 124 l 329 314 l 279 314 l 279 422 l 517 422 l 517 0 l 371 0 l 361 58 q 360 55 361 57 q 357 51 358 53 q 313 8 346 29 q 218 -14 281 -14 m 296 879 q 230 906 257 879 q 201 969 203 932 q 230 1035 201 1008 q 297 1061 258 1061 q 364 1035 336 1061 q 392 969 392 1008 q 365 906 393 932 q 296 879 336 879 z "},"Г":{"ha":444,"x_min":40,"x_max":429,"o":"m 40 0 l 40 821 l 429 821 l 429 686 l 240 686 l 240 0 l 40 0 z "},"ẞ":{"ha":1119,"x_min":39,"x_max":1079,"o":"m 821 -11 q 689 10 743 -11 q 607 83 635 31 q 579 235 579 136 l 579 285 q 681 285 631 285 q 781 285 731 285 l 781 218 q 787 151 781 174 q 803 119 793 128 q 828 111 814 111 q 864 130 851 111 q 876 204 876 149 q 861 276 876 253 q 813 314 846 299 q 724 351 779 329 q 643 406 674 375 q 599 482 613 436 q 586 590 586 528 q 608 726 586 675 q 683 801 631 778 q 829 824 736 824 q 1009 774 947 824 q 1071 626 1071 725 l 1071 525 q 974 525 1022 525 q 878 525 926 525 l 878 568 q 869 649 878 626 q 832 671 861 671 q 794 653 804 671 q 785 597 785 636 q 802 530 785 553 q 847 495 819 507 q 906 472 875 483 q 1005 424 967 449 q 1061 357 1043 400 q 1079 233 1079 314 q 1047 88 1079 142 q 958 12 1015 35 q 821 -11 900 -11 m 281 -11 q 149 10 203 -11 q 67 83 94 31 q 39 235 39 136 l 39 285 q 140 285 90 285 q 240 285 190 285 l 240 218 q 247 151 240 174 q 263 119 253 128 q 288 111 272 111 q 323 130 311 111 q 335 204 335 149 q 320 276 335 253 q 272 314 306 299 q 183 351 239 329 q 103 406 133 375 q 59 482 72 436 q 46 590 46 528 q 68 726 46 675 q 143 801 90 778 q 289 824 196 824 q 469 774 407 824 q 531 626 531 725 l 531 525 q 434 525 482 525 q 338 525 386 525 l 338 568 q 329 649 338 626 q 290 671 321 671 q 254 653 264 671 q 244 597 244 636 q 262 530 244 553 q 307 495 279 507 q 365 472 335 483 q 465 424 426 449 q 522 357 504 400 q 540 233 540 314 q 508 88 540 142 q 417 12 475 35 q 281 -11 360 -11 z "},"Ѓ":{"ha":444,"x_min":40,"x_max":429,"o":"m 40 0 l 40 821 l 429 821 l 429 686 l 240 686 l 240 0 l 40 0 m 132 882 l 240 1018 l 410 1018 l 238 882 l 132 882 z "},"H":{"ha":567,"x_min":46,"x_max":521,"o":"m 46 0 l 46 821 l 239 821 l 239 494 l 329 494 l 329 821 l 521 821 l 521 0 l 329 0 l 329 351 l 239 351 l 239 0 l 46 0 z "},"Х":{"ha":536,"x_min":11,"x_max":526,"o":"m 11 0 l 126 425 l 15 821 l 207 821 l 267 578 l 322 821 l 526 821 l 414 424 l 524 0 l 331 0 l 269 242 l 215 0 l 11 0 z "},"Ъ":{"ha":582,"x_min":8,"x_max":542,"o":"m 81 0 l 81 686 l 8 686 l 8 821 l 269 821 l 269 606 l 385 606 q 460 593 425 606 q 519 547 496 581 q 542 446 542 514 l 542 219 q 528 101 542 144 q 490 35 515 57 q 431 7 465 14 q 356 0 397 0 l 81 0 m 269 99 l 314 99 q 339 108 331 99 q 350 144 347 117 q 353 226 353 171 l 353 406 q 351 453 353 435 q 340 481 349 472 q 313 490 331 490 l 269 490 l 269 99 z "},"Ħ":{"ha":567,"x_min":8,"x_max":567,"o":"m 8 656 l 8 744 l 567 744 l 567 656 l 8 656 m 46 0 l 46 821 l 239 821 l 239 494 l 329 494 l 329 821 l 521 821 l 521 0 l 329 0 l 329 351 l 239 351 l 239 0 l 46 0 z "},"I":{"ha":285,"x_min":46,"x_max":239,"o":"m 46 0 l 46 821 l 239 821 l 239 0 l 46 0 z "},"І":{"ha":285,"x_min":46,"x_max":239,"o":"m 46 0 l 46 821 l 239 821 l 239 0 l 46 0 z "},"Я":{"ha":586,"x_min":14,"x_max":540,"o":"m 540 0 l 339 0 l 339 340 l 315 340 q 301 331 307 340 q 290 307 294 322 q 281 271 286 292 l 228 0 l 14 0 l 89 283 q 122 358 103 335 q 189 389 142 381 l 189 392 q 84 446 115 399 q 53 554 53 493 l 53 682 q 94 783 53 744 q 222 821 136 821 l 540 821 l 540 0 m 339 472 l 339 718 l 288 718 q 253 703 265 718 q 242 646 242 688 l 242 551 q 256 490 242 508 q 296 472 269 472 l 339 472 z "},"Í":{"ha":285,"x_min":46,"x_max":329,"o":"m 46 0 l 46 821 l 239 821 l 239 0 l 46 0 m 51 882 l 160 1018 l 329 1018 l 157 882 l 51 882 z "},"Ǐ":{"ha":285,"x_min":-46,"x_max":331,"o":"m 46 0 l 46 821 l 239 821 l 239 0 l 46 0 m 92 876 l -44 1021 l 74 1021 l 144 958 l 215 1019 l 331 1019 l 194 876 l 92 876 z "},"Î":{"ha":285,"x_min":-46,"x_max":332,"o":"m 46 0 l 46 821 l 239 821 l 239 0 l 46 0 m -47 876 l 90 1022 l 193 1022 l 332 878 l 215 878 l 143 942 l 72 876 l -47 876 z "},"Ï":{"ha":285,"x_min":-22,"x_max":307,"o":"m 46 0 l 46 821 l 239 821 l 239 0 l 46 0 m 53 878 q -1 899 21 878 q -22 949 -22 919 q -1 999 -22 979 q 53 1019 21 1019 q 106 999 85 1019 q 126 949 126 979 q 106 899 126 919 q 53 878 85 878 m 233 878 q 180 899 201 878 q 158 949 158 919 q 180 999 158 979 q 233 1019 201 1019 q 286 999 265 1019 q 307 949 307 979 q 286 899 307 919 q 233 878 265 878 z "},"İ":{"ha":285,"x_min":46,"x_max":261,"o":"m 46 0 l 46 821 l 239 821 l 239 0 l 46 0 m 163 879 q 97 906 124 879 q 68 969 69 932 q 97 1035 68 1008 q 164 1061 125 1061 q 231 1035 203 1061 q 258 969 258 1008 q 231 906 260 932 q 163 879 203 879 z "},"Ị":{"ha":285,"x_min":46,"x_max":239,"o":"m 46 0 l 46 821 l 239 821 l 239 0 l 46 0 m 142 -193 q 88 -172 110 -193 q 67 -121 67 -150 q 88 -69 67 -90 q 142 -47 110 -47 q 195 -69 172 -47 q 218 -121 218 -90 q 195 -172 218 -150 q 142 -193 172 -193 z "},"Е":{"ha":460,"x_min":46,"x_max":435,"o":"m 46 0 l 46 821 l 435 821 l 435 686 l 247 686 l 247 497 l 411 497 l 411 346 l 247 346 l 247 132 l 435 132 l 435 0 l 46 0 z "},"Ѐ":{"ha":460,"x_min":46,"x_max":435,"o":"m 46 0 l 46 821 l 435 821 l 435 686 l 247 686 l 247 497 l 411 497 l 411 346 l 247 346 l 247 132 l 435 132 l 435 0 l 46 0 m 213 882 l 53 1013 l 226 1013 l 329 882 l 213 882 z "},"Ì":{"ha":285,"x_min":-47,"x_max":239,"o":"m 46 0 l 46 821 l 239 821 l 239 0 l 46 0 m 113 882 l -47 1013 l 126 1013 l 229 882 l 113 882 z "},"Ỉ":{"ha":285,"x_min":24,"x_max":253,"o":"m 46 0 l 46 821 l 239 821 l 239 0 l 46 0 m 89 871 l 89 886 q 103 917 89 907 q 132 938 118 928 q 146 963 146 947 l 146 971 q 142 990 146 981 q 126 1000 138 1000 q 106 971 107 1000 l 24 983 q 54 1046 26 1025 q 135 1067 82 1067 q 223 1051 193 1067 q 253 975 253 1035 l 253 969 q 237 926 253 938 q 205 908 221 914 q 189 885 189 901 l 189 871 l 89 871 z "},"И":{"ha":550,"x_min":40,"x_max":510,"o":"m 40 0 l 40 821 l 208 821 l 208 383 l 342 821 l 510 821 l 510 0 l 340 0 l 340 400 l 207 0 l 40 0 z "},"Ѝ":{"ha":550,"x_min":40,"x_max":510,"o":"m 40 0 l 40 821 l 208 821 l 208 383 l 342 821 l 510 821 l 510 0 l 340 0 l 340 400 l 207 0 l 40 0 m 244 882 l 85 1013 l 258 1013 l 361 882 l 244 882 z "},"Й":{"ha":550,"x_min":40,"x_max":510,"o":"m 40 0 l 40 821 l 208 821 l 208 383 l 342 821 l 510 821 l 510 0 l 340 0 l 340 400 l 207 0 l 40 0 m 272 876 q 169 901 204 876 q 122 960 133 926 q 110 1021 110 994 l 210 1021 q 231 979 211 993 q 274 965 250 965 q 319 978 300 965 q 339 1021 338 992 l 442 1021 q 424 949 440 982 q 370 897 407 917 q 272 876 333 876 z "},"Ī":{"ha":285,"x_min":-6,"x_max":292,"o":"m 46 0 l 46 821 l 239 821 l 239 0 l 46 0 m -6 894 l -6 989 l 292 989 l 292 894 l -6 894 z "},"Ё":{"ha":460,"x_min":46,"x_max":435,"o":"m 46 0 l 46 821 l 435 821 l 435 686 l 247 686 l 247 497 l 411 497 l 411 346 l 247 346 l 247 132 l 435 132 l 435 0 l 46 0 m 153 878 q 99 899 121 878 q 78 949 78 919 q 99 999 78 979 q 153 1019 121 1019 q 206 999 185 1019 q 226 949 226 979 q 206 899 226 919 q 153 878 185 878 m 333 878 q 280 899 301 878 q 258 949 258 919 q 280 999 258 979 q 333 1019 301 1019 q 386 999 365 1019 q 407 949 407 979 q 386 899 407 919 q 333 878 365 878 z "},"Į":{"ha":285,"x_min":46,"x_max":267,"o":"m 46 0 l 46 821 l 239 821 l 239 0 l 46 0 m 168 -206 q 79 -177 113 -206 q 46 -114 46 -149 q 78 -40 46 -75 q 164 3 111 -4 l 238 0 q 183 -37 200 -11 q 165 -87 165 -62 q 183 -126 165 -112 q 218 -140 200 -140 q 235 -138 228 -140 q 244 -135 242 -136 l 267 -182 q 237 -196 258 -186 q 168 -206 215 -206 z "},"Ĩ":{"ha":285,"x_min":-33,"x_max":306,"o":"m 46 0 l 46 821 l 239 821 l 239 0 l 46 0 m 203 883 q 161 892 181 883 q 122 913 142 901 q 91 928 107 921 q 58 935 75 935 q 31 921 40 935 q 19 885 21 907 l -33 885 q -8 983 -33 946 q 61 1019 18 1019 q 105 1012 85 1019 q 142 994 125 1004 q 174 979 158 986 q 204 972 189 972 q 235 985 225 972 q 247 1015 244 997 l 306 1015 q 288 943 304 972 q 249 899 272 914 q 203 883 226 883 z "},"Ю":{"ha":832,"x_min":40,"x_max":792,"o":"m 556 -17 q 430 1 485 -17 q 344 71 375 18 q 313 229 313 124 l 313 351 l 232 351 l 232 0 l 40 0 l 40 821 l 232 821 l 232 494 l 313 494 l 313 646 q 344 758 313 718 q 430 816 375 799 q 557 833 485 833 q 683 816 631 833 q 763 758 735 799 q 792 646 792 718 l 792 231 q 763 71 792 124 q 682 1 735 18 q 556 -17 629 -17 m 557 96 q 579 100 569 96 q 594 117 589 104 q 600 154 600 131 l 600 657 q 594 693 600 681 q 579 710 589 706 q 557 715 569 715 q 534 710 544 715 q 519 693 524 706 q 514 657 514 681 l 514 154 q 519 117 514 131 q 534 100 524 104 q 557 96 544 96 z "},"J":{"ha":353,"x_min":7,"x_max":308,"o":"m 79 -1 q 43 -1 67 -1 q 7 0 19 -1 l 7 132 l 49 132 q 103 145 90 131 q 117 201 117 160 l 117 821 l 308 821 l 308 213 q 285 82 308 129 q 213 17 263 35 q 79 -1 163 -1 z "},"Ј":{"ha":353,"x_min":7,"x_max":308,"o":"m 79 -1 q 43 -1 67 -1 q 7 0 19 -1 l 7 132 l 49 132 q 103 145 90 131 q 117 201 117 160 l 117 821 l 308 821 l 308 213 q 285 82 308 129 q 213 17 263 35 q 79 -1 163 -1 z "},"K":{"ha":590,"x_min":46,"x_max":582,"o":"m 374 0 l 240 425 l 372 821 l 578 821 l 428 426 l 582 0 l 374 0 m 46 0 l 46 821 l 239 821 l 239 0 l 46 0 z "},"К":{"ha":624,"x_min":40,"x_max":611,"o":"m 40 0 l 40 821 l 232 821 l 232 471 l 285 471 l 403 821 l 608 821 l 458 426 l 611 0 l 403 0 l 293 344 l 232 344 l 232 0 l 40 0 z "},"Ķ":{"ha":590,"x_min":46,"x_max":582,"o":"m 374 0 l 240 425 l 372 821 l 578 821 l 428 426 l 582 0 l 374 0 m 46 0 l 46 821 l 239 821 l 239 0 l 46 0 m 215 -279 q 249 -222 238 -247 q 261 -179 261 -196 q 251 -160 261 -168 q 230 -142 240 -153 q 219 -111 219 -131 q 241 -69 219 -87 q 297 -50 263 -50 q 356 -70 333 -50 q 379 -119 379 -90 q 365 -169 379 -140 q 332 -228 351 -199 q 292 -279 313 -257 l 215 -279 z "},"Ќ":{"ha":624,"x_min":40,"x_max":611,"o":"m 40 0 l 40 821 l 232 821 l 232 471 l 285 471 l 403 821 l 608 821 l 458 426 l 611 0 l 403 0 l 293 344 l 232 344 l 232 0 l 40 0 m 221 882 l 329 1018 l 499 1018 l 326 882 l 221 882 z "},"L":{"ha":417,"x_min":46,"x_max":404,"o":"m 46 0 l 46 821 l 236 821 l 236 132 l 404 132 l 404 0 l 46 0 z "},"Ĺ":{"ha":417,"x_min":46,"x_max":404,"o":"m 46 0 l 46 821 l 236 821 l 236 132 l 404 132 l 404 0 l 46 0 m 106 882 l 214 1018 l 383 1018 l 211 882 l 106 882 z "},"Ľ":{"ha":450,"x_min":46,"x_max":451,"o":"m 46 0 l 46 821 l 236 821 l 236 132 l 404 132 l 404 0 l 46 0 m 303 629 l 339 843 l 451 843 l 368 629 l 303 629 z "},"Ļ":{"ha":417,"x_min":46,"x_max":404,"o":"m 46 0 l 46 821 l 236 821 l 236 132 l 404 132 l 404 0 l 46 0 m 136 -279 q 170 -222 158 -247 q 182 -179 182 -196 q 172 -160 182 -168 q 151 -142 161 -153 q 140 -111 140 -131 q 162 -69 140 -87 q 218 -50 183 -50 q 277 -70 254 -50 q 300 -119 300 -90 q 286 -169 300 -140 q 253 -228 272 -199 q 213 -279 233 -257 l 136 -279 z "},"Љ":{"ha":903,"x_min":10,"x_max":863,"o":"m 10 0 l 10 97 q 60 129 36 97 q 86 203 83 161 l 131 821 l 594 821 l 594 0 l 401 0 l 401 686 l 319 686 l 278 154 q 272 101 275 128 q 257 51 269 74 q 216 14 244 28 q 135 0 188 0 l 10 0 m 596 99 l 639 99 q 665 108 657 99 q 676 144 674 117 q 679 226 679 171 l 679 406 q 676 453 679 435 q 665 481 674 472 q 638 490 657 490 l 596 490 l 596 99 m 401 0 l 401 821 l 590 821 l 590 606 l 707 606 q 782 593 746 606 q 840 547 818 581 q 863 446 863 514 l 863 219 q 849 101 863 144 q 811 35 836 57 q 753 7 786 14 q 678 0 719 0 l 401 0 z "},"Ł":{"ha":494,"x_min":28,"x_max":461,"o":"m 103 0 l 103 219 l 28 188 l 28 267 l 103 300 l 103 814 l 293 814 l 293 385 l 388 428 l 388 349 l 293 306 l 293 132 l 461 132 l 461 0 l 103 0 z "},"M":{"ha":747,"x_min":46,"x_max":701,"o":"m 46 0 l 46 821 l 289 821 l 374 349 l 460 821 l 701 821 l 701 0 l 532 0 l 532 592 l 439 0 l 308 0 l 215 592 l 215 0 l 46 0 z "},"N":{"ha":561,"x_min":46,"x_max":515,"o":"m 46 0 l 46 821 l 213 821 l 347 383 l 347 821 l 515 821 l 515 0 l 349 0 l 215 400 l 215 0 l 46 0 z "},"Ń":{"ha":561,"x_min":46,"x_max":515,"o":"m 46 0 l 46 821 l 213 821 l 347 383 l 347 821 l 515 821 l 515 0 l 349 0 l 215 400 l 215 0 l 46 0 m 194 882 l 303 1018 l 472 1018 l 300 882 l 194 882 z "},"Ň":{"ha":561,"x_min":46,"x_max":515,"o":"m 46 0 l 46 821 l 213 821 l 347 383 l 347 821 l 515 821 l 515 0 l 349 0 l 215 400 l 215 0 l 46 0 m 233 876 l 97 1021 l 215 1021 l 286 958 l 357 1019 l 472 1019 l 336 876 l 233 876 z "},"Ņ":{"ha":561,"x_min":46,"x_max":515,"o":"m 46 0 l 46 821 l 213 821 l 347 383 l 347 821 l 515 821 l 515 0 l 349 0 l 215 400 l 215 0 l 46 0 m 196 -279 q 230 -222 218 -247 q 242 -179 242 -196 q 231 -160 242 -168 q 210 -142 221 -153 q 200 -111 200 -131 q 222 -69 200 -87 q 278 -50 243 -50 q 337 -70 314 -50 q 360 -119 360 -90 q 346 -169 360 -140 q 313 -228 332 -199 q 272 -279 293 -257 l 196 -279 z "},"Њ":{"ha":835,"x_min":40,"x_max":788,"o":"m 40 0 l 40 821 l 232 821 l 232 494 l 324 494 l 324 821 l 515 821 l 515 606 l 631 606 q 706 593 671 606 q 765 547 742 581 q 788 446 788 514 l 788 219 q 774 101 788 144 q 736 35 761 57 q 677 7 711 14 q 601 0 643 0 l 324 0 l 324 351 l 232 351 l 232 0 l 40 0 m 515 99 l 560 99 q 585 108 576 99 q 596 143 593 117 q 599 221 599 169 l 599 371 q 597 446 599 419 q 585 481 594 472 q 557 490 576 490 l 515 490 l 515 99 z "},"Ñ":{"ha":561,"x_min":46,"x_max":515,"o":"m 46 0 l 46 821 l 213 821 l 347 383 l 347 821 l 515 821 l 515 0 l 349 0 l 215 400 l 215 0 l 46 0 m 346 883 q 304 892 324 883 q 265 913 285 901 q 234 928 250 921 q 201 935 218 935 q 174 921 183 935 q 163 885 164 907 l 110 885 q 135 983 110 946 q 204 1019 161 1019 q 248 1012 228 1019 q 285 994 268 1004 q 317 979 301 986 q 347 972 332 972 q 378 985 368 972 q 390 1015 388 997 l 449 1015 q 431 943 447 972 q 392 899 415 914 q 346 883 369 883 z "},"O":{"ha":554,"x_min":38,"x_max":517,"o":"m 275 -17 q 151 1 204 -17 q 67 71 97 18 q 38 229 38 124 l 38 647 q 67 758 38 718 q 151 816 97 799 q 275 833 204 833 q 400 816 346 833 q 485 758 454 799 q 517 647 517 718 l 517 231 q 485 71 517 124 q 400 1 454 18 q 275 -17 346 -17 m 275 96 q 301 101 289 96 q 318 120 313 107 q 324 156 324 133 l 324 656 q 318 690 324 676 q 301 710 313 704 q 275 715 289 715 q 250 710 261 715 q 233 690 239 704 q 226 656 226 676 l 226 156 q 233 120 226 133 q 250 101 239 107 q 275 96 261 96 z "},"О":{"ha":554,"x_min":38,"x_max":517,"o":"m 275 -17 q 151 1 204 -17 q 67 71 97 18 q 38 229 38 124 l 38 647 q 67 758 38 718 q 151 816 97 799 q 275 833 204 833 q 400 816 346 833 q 485 758 454 799 q 517 647 517 718 l 517 231 q 485 71 517 124 q 400 1 454 18 q 275 -17 346 -17 m 275 96 q 301 101 289 96 q 318 120 313 107 q 324 156 324 133 l 324 656 q 318 690 324 676 q 301 710 313 704 q 275 715 289 715 q 250 710 261 715 q 233 690 239 704 q 226 656 226 676 l 226 156 q 233 120 226 133 q 250 101 239 107 q 275 96 261 96 z "},"Œ":{"ha":763,"x_min":38,"x_max":738,"o":"m 275 -17 q 151 1 204 -17 q 67 71 97 18 q 38 229 38 124 l 38 647 q 67 758 38 718 q 151 816 97 799 q 275 833 204 833 q 388 816 339 833 q 465 758 438 799 q 493 647 493 718 l 493 231 q 465 71 493 124 q 388 1 438 18 q 275 -17 339 -17 m 275 96 q 301 101 289 96 q 318 120 313 107 q 324 156 324 133 l 324 656 q 318 690 324 676 q 301 710 313 704 q 275 715 289 715 q 251 710 261 715 q 233 690 240 704 q 226 656 226 676 l 226 156 q 233 120 226 133 q 251 101 240 107 q 275 96 261 96 m 325 0 l 325 821 l 738 821 l 738 686 l 517 686 l 517 497 l 715 497 l 715 346 l 517 346 l 517 132 l 738 132 l 738 0 l 325 0 z "},"Ó":{"ha":554,"x_min":38,"x_max":517,"o":"m 275 -17 q 151 1 204 -17 q 67 71 97 18 q 38 229 38 124 l 38 647 q 67 758 38 718 q 151 816 97 799 q 275 833 204 833 q 400 816 346 833 q 485 758 454 799 q 517 647 517 718 l 517 231 q 485 71 517 124 q 400 1 454 18 q 275 -17 346 -17 m 275 96 q 301 101 289 96 q 318 120 313 107 q 324 156 324 133 l 324 656 q 318 690 324 676 q 301 710 313 704 q 275 715 289 715 q 250 710 261 715 q 233 690 239 704 q 226 656 226 676 l 226 156 q 233 120 226 133 q 250 101 239 107 q 275 96 261 96 m 186 882 l 294 1018 l 464 1018 l 292 882 l 186 882 z "},"Ǒ":{"ha":554,"x_min":38,"x_max":517,"o":"m 275 -17 q 151 1 204 -17 q 67 71 97 18 q 38 229 38 124 l 38 647 q 67 758 38 718 q 151 816 97 799 q 275 833 204 833 q 400 816 346 833 q 485 758 454 799 q 517 647 517 718 l 517 231 q 485 71 517 124 q 400 1 454 18 q 275 -17 346 -17 m 275 96 q 301 101 289 96 q 318 120 313 107 q 324 156 324 133 l 324 656 q 318 690 324 676 q 301 710 313 704 q 275 715 289 715 q 250 710 261 715 q 233 690 239 704 q 226 656 226 676 l 226 156 q 233 120 226 133 q 250 101 239 107 q 275 96 261 96 m 226 876 l 90 1021 l 208 1021 l 279 958 l 350 1019 l 465 1019 l 329 876 l 226 876 z "},"Ô":{"ha":554,"x_min":38,"x_max":517,"o":"m 275 -17 q 151 1 204 -17 q 67 71 97 18 q 38 229 38 124 l 38 647 q 67 758 38 718 q 151 816 97 799 q 275 833 204 833 q 400 816 346 833 q 485 758 454 799 q 517 647 517 718 l 517 231 q 485 71 517 124 q 400 1 454 18 q 275 -17 346 -17 m 275 96 q 301 101 289 96 q 318 120 313 107 q 324 156 324 133 l 324 656 q 318 690 324 676 q 301 710 313 704 q 275 715 289 715 q 250 710 261 715 q 233 690 239 704 q 226 656 226 676 l 226 156 q 233 120 226 133 q 250 101 239 107 q 275 96 261 96 m 88 876 l 225 1022 l 328 1022 l 467 878 l 350 878 l 278 942 l 207 876 l 88 876 z "},"Ố":{"ha":554,"x_min":38,"x_max":657,"o":"m 275 -17 q 151 1 204 -17 q 67 71 97 18 q 38 229 38 124 l 38 647 q 67 758 38 718 q 151 816 97 799 q 275 833 204 833 q 400 816 346 833 q 485 758 454 799 q 517 647 517 718 l 517 231 q 485 71 517 124 q 400 1 454 18 q 275 -17 346 -17 m 275 96 q 301 101 289 96 q 318 120 313 107 q 324 156 324 133 l 324 656 q 318 690 324 676 q 301 710 313 704 q 275 715 289 715 q 250 710 261 715 q 233 690 239 704 q 226 656 226 676 l 226 156 q 233 120 226 133 q 250 101 239 107 q 275 96 261 96 m 128 868 l 228 990 l 325 990 l 426 868 l 319 868 l 278 915 l 238 868 l 128 868 m 425 953 l 482 1061 l 656 1061 l 543 953 l 425 953 z "},"Ộ":{"ha":554,"x_min":38,"x_max":517,"o":"m 275 -17 q 151 1 204 -17 q 67 71 97 18 q 38 229 38 124 l 38 647 q 67 758 38 718 q 151 816 97 799 q 275 833 204 833 q 400 816 346 833 q 485 758 454 799 q 517 647 517 718 l 517 231 q 485 71 517 124 q 400 1 454 18 q 275 -17 346 -17 m 275 96 q 301 101 289 96 q 318 120 313 107 q 324 156 324 133 l 324 656 q 318 690 324 676 q 301 710 313 704 q 275 715 289 715 q 250 710 261 715 q 233 690 239 704 q 226 656 226 676 l 226 156 q 233 120 226 133 q 250 101 239 107 q 275 96 261 96 m 278 -193 q 224 -172 246 -193 q 203 -121 203 -150 q 224 -69 203 -90 q 278 -47 246 -47 q 331 -69 308 -47 q 354 -121 354 -90 q 331 -172 354 -150 q 278 -193 308 -193 m 88 876 l 225 1022 l 328 1022 l 467 878 l 350 878 l 278 942 l 207 876 l 88 876 z "},"Ồ":{"ha":554,"x_min":38,"x_max":567,"o":"m 275 -17 q 151 1 204 -17 q 67 71 97 18 q 38 229 38 124 l 38 647 q 67 758 38 718 q 151 816 97 799 q 275 833 204 833 q 400 816 346 833 q 485 758 454 799 q 517 647 517 718 l 517 231 q 485 71 517 124 q 400 1 454 18 q 275 -17 346 -17 m 275 96 q 301 101 289 96 q 318 120 313 107 q 324 156 324 133 l 324 656 q 318 690 324 676 q 301 710 313 704 q 275 715 289 715 q 250 710 261 715 q 233 690 239 704 q 226 656 226 676 l 226 156 q 233 120 226 133 q 250 101 239 107 q 275 96 261 96 m 128 868 l 228 990 l 325 990 l 426 868 l 319 868 l 278 915 l 238 868 l 128 868 m 447 950 l 335 1058 l 510 1058 l 567 950 l 447 950 z "},"Ổ":{"ha":554,"x_min":38,"x_max":567,"o":"m 275 -17 q 151 1 204 -17 q 67 71 97 18 q 38 229 38 124 l 38 647 q 67 758 38 718 q 151 816 97 799 q 275 833 204 833 q 400 816 346 833 q 485 758 454 799 q 517 647 517 718 l 517 231 q 485 71 517 124 q 400 1 454 18 q 275 -17 346 -17 m 275 96 q 301 101 289 96 q 318 120 313 107 q 324 156 324 133 l 324 656 q 318 690 324 676 q 301 710 313 704 q 275 715 289 715 q 250 710 261 715 q 233 690 239 704 q 226 656 226 676 l 226 156 q 233 120 226 133 q 250 101 239 107 q 275 96 261 96 m 128 868 l 228 990 l 325 990 l 426 868 l 319 868 l 278 915 l 238 868 l 128 868 m 425 943 l 425 950 q 436 972 425 964 q 459 987 447 981 q 471 1003 471 993 l 471 1010 q 467 1023 471 1019 q 460 1026 464 1026 q 447 1010 449 1026 l 374 1019 q 397 1071 376 1053 q 467 1089 418 1089 q 544 1076 522 1089 q 567 1015 567 1063 l 567 1010 q 556 979 567 988 q 535 967 546 971 q 524 951 524 963 l 524 943 l 425 943 z "},"Ỗ":{"ha":554,"x_min":38,"x_max":517,"o":"m 275 -17 q 151 1 204 -17 q 67 71 97 18 q 38 229 38 124 l 38 647 q 67 758 38 718 q 151 816 97 799 q 275 833 204 833 q 400 816 346 833 q 485 758 454 799 q 517 647 517 718 l 517 231 q 485 71 517 124 q 400 1 454 18 q 275 -17 346 -17 m 275 96 q 301 101 289 96 q 318 120 313 107 q 324 156 324 133 l 324 656 q 318 690 324 676 q 301 710 313 704 q 275 715 289 715 q 250 710 261 715 q 233 690 239 704 q 226 656 226 676 l 226 156 q 233 120 226 133 q 250 101 239 107 q 275 96 261 96 m 128 868 l 228 990 l 325 990 l 426 868 l 319 868 l 278 915 l 238 868 l 128 868 m 329 1017 q 295 1024 311 1017 q 265 1038 279 1031 q 240 1048 251 1044 q 217 1051 228 1051 q 197 1041 204 1051 q 190 1018 190 1031 l 144 1018 q 164 1101 143 1069 q 219 1133 185 1133 q 253 1129 236 1133 q 283 1117 269 1125 q 307 1106 296 1111 q 331 1101 318 1101 q 353 1111 347 1101 q 360 1131 358 1121 l 413 1131 q 399 1067 414 1093 q 365 1029 385 1042 q 329 1017 346 1017 z "},"Ö":{"ha":554,"x_min":38,"x_max":517,"o":"m 275 -17 q 151 1 204 -17 q 67 71 97 18 q 38 229 38 124 l 38 647 q 67 758 38 718 q 151 816 97 799 q 275 833 204 833 q 400 816 346 833 q 485 758 454 799 q 517 647 517 718 l 517 231 q 485 71 517 124 q 400 1 454 18 q 275 -17 346 -17 m 275 96 q 301 101 289 96 q 318 120 313 107 q 324 156 324 133 l 324 656 q 318 690 324 676 q 301 710 313 704 q 275 715 289 715 q 250 710 261 715 q 233 690 239 704 q 226 656 226 676 l 226 156 q 233 120 226 133 q 250 101 239 107 q 275 96 261 96 m 188 878 q 134 899 156 878 q 113 949 113 919 q 134 999 113 979 q 188 1019 156 1019 q 240 999 219 1019 q 261 949 261 979 q 240 899 261 919 q 188 878 219 878 m 368 878 q 315 899 336 878 q 293 949 293 919 q 315 999 293 979 q 368 1019 336 1019 q 421 999 400 1019 q 442 949 442 979 q 421 899 442 919 q 368 878 400 878 z "},"Ọ":{"ha":554,"x_min":38,"x_max":517,"o":"m 275 -17 q 151 1 204 -17 q 67 71 97 18 q 38 229 38 124 l 38 647 q 67 758 38 718 q 151 816 97 799 q 275 833 204 833 q 400 816 346 833 q 485 758 454 799 q 517 647 517 718 l 517 231 q 485 71 517 124 q 400 1 454 18 q 275 -17 346 -17 m 275 96 q 301 101 289 96 q 318 120 313 107 q 324 156 324 133 l 324 656 q 318 690 324 676 q 301 710 313 704 q 275 715 289 715 q 250 710 261 715 q 233 690 239 704 q 226 656 226 676 l 226 156 q 233 120 226 133 q 250 101 239 107 q 275 96 261 96 m 278 -193 q 224 -172 246 -193 q 203 -121 203 -150 q 224 -69 203 -90 q 278 -47 246 -47 q 331 -69 308 -47 q 354 -121 354 -90 q 331 -172 354 -150 q 278 -193 308 -193 z "},"Ò":{"ha":554,"x_min":38,"x_max":517,"o":"m 275 -17 q 151 1 204 -17 q 67 71 97 18 q 38 229 38 124 l 38 647 q 67 758 38 718 q 151 816 97 799 q 275 833 204 833 q 400 816 346 833 q 485 758 454 799 q 517 647 517 718 l 517 231 q 485 71 517 124 q 400 1 454 18 q 275 -17 346 -17 m 275 96 q 301 101 289 96 q 318 120 313 107 q 324 156 324 133 l 324 656 q 318 690 324 676 q 301 710 313 704 q 275 715 289 715 q 250 710 261 715 q 233 690 239 704 q 226 656 226 676 l 226 156 q 233 120 226 133 q 250 101 239 107 q 275 96 261 96 m 247 882 l 88 1013 l 261 1013 l 364 882 l 247 882 z "},"Ỏ":{"ha":554,"x_min":38,"x_max":517,"o":"m 275 -17 q 151 1 204 -17 q 67 71 97 18 q 38 229 38 124 l 38 647 q 67 758 38 718 q 151 816 97 799 q 275 833 204 833 q 400 816 346 833 q 485 758 454 799 q 517 647 517 718 l 517 231 q 485 71 517 124 q 400 1 454 18 q 275 -17 346 -17 m 275 96 q 301 101 289 96 q 318 120 313 107 q 324 156 324 133 l 324 656 q 318 690 324 676 q 301 710 313 704 q 275 715 289 715 q 250 710 261 715 q 233 690 239 704 q 226 656 226 676 l 226 156 q 233 120 226 133 q 250 101 239 107 q 275 96 261 96 m 224 871 l 224 886 q 238 917 224 907 q 267 938 253 928 q 281 963 281 947 l 281 971 q 276 990 281 981 q 261 1000 272 1000 q 240 971 242 1000 l 158 983 q 189 1046 161 1025 q 269 1067 217 1067 q 358 1051 328 1067 q 388 975 388 1035 l 388 969 q 372 926 388 938 q 340 908 356 914 q 324 885 324 901 l 324 871 l 224 871 z "},"Ơ":{"ha":554,"x_min":38,"x_max":547,"o":"m 275 -17 q 151 1 204 -17 q 67 71 97 18 q 38 229 38 124 l 38 647 q 67 758 38 718 q 151 816 97 799 q 275 833 204 833 q 400 816 346 833 q 485 758 454 799 q 517 647 517 718 l 517 231 q 485 71 517 124 q 400 1 454 18 q 275 -17 346 -17 m 275 96 q 301 101 289 96 q 318 120 313 107 q 324 156 324 133 l 324 656 q 318 690 324 676 q 301 710 313 704 q 275 715 289 715 q 250 710 261 715 q 233 690 239 704 q 226 656 226 676 l 226 156 q 233 120 226 133 q 250 101 239 107 q 275 96 261 96 m 340 739 l 339 821 l 365 821 q 426 885 426 821 l 426 913 l 549 913 l 549 886 q 497 772 549 806 q 340 739 444 739 z "},"Ớ":{"ha":554,"x_min":38,"x_max":547,"o":"m 275 -17 q 151 1 204 -17 q 67 71 97 18 q 38 229 38 124 l 38 647 q 67 758 38 718 q 151 816 97 799 q 275 833 204 833 q 400 816 346 833 q 485 758 454 799 q 517 647 517 718 l 517 231 q 485 71 517 124 q 400 1 454 18 q 275 -17 346 -17 m 275 96 q 301 101 289 96 q 318 120 313 107 q 324 156 324 133 l 324 656 q 318 690 324 676 q 301 710 313 704 q 275 715 289 715 q 250 710 261 715 q 233 690 239 704 q 226 656 226 676 l 226 156 q 233 120 226 133 q 250 101 239 107 q 275 96 261 96 m 340 739 l 339 821 l 365 821 q 426 885 426 821 l 426 913 l 549 913 l 549 886 q 497 772 549 806 q 340 739 444 739 m 186 882 l 294 1018 l 464 1018 l 292 882 l 186 882 z "},"Ợ":{"ha":554,"x_min":38,"x_max":547,"o":"m 275 -17 q 151 1 204 -17 q 67 71 97 18 q 38 229 38 124 l 38 647 q 67 758 38 718 q 151 816 97 799 q 275 833 204 833 q 400 816 346 833 q 485 758 454 799 q 517 647 517 718 l 517 231 q 485 71 517 124 q 400 1 454 18 q 275 -17 346 -17 m 275 96 q 301 101 289 96 q 318 120 313 107 q 324 156 324 133 l 324 656 q 318 690 324 676 q 301 710 313 704 q 275 715 289 715 q 250 710 261 715 q 233 690 239 704 q 226 656 226 676 l 226 156 q 233 120 226 133 q 250 101 239 107 q 275 96 261 96 m 340 739 l 339 821 l 365 821 q 426 885 426 821 l 426 913 l 549 913 l 549 886 q 497 772 549 806 q 340 739 444 739 m 278 -193 q 224 -172 246 -193 q 203 -121 203 -150 q 224 -69 203 -90 q 278 -47 246 -47 q 331 -69 308 -47 q 354 -121 354 -90 q 331 -172 354 -150 q 278 -193 308 -193 z "},"Ờ":{"ha":554,"x_min":38,"x_max":547,"o":"m 275 -17 q 151 1 204 -17 q 67 71 97 18 q 38 229 38 124 l 38 647 q 67 758 38 718 q 151 816 97 799 q 275 833 204 833 q 400 816 346 833 q 485 758 454 799 q 517 647 517 718 l 517 231 q 485 71 517 124 q 400 1 454 18 q 275 -17 346 -17 m 275 96 q 301 101 289 96 q 318 120 313 107 q 324 156 324 133 l 324 656 q 318 690 324 676 q 301 710 313 704 q 275 715 289 715 q 250 710 261 715 q 233 690 239 704 q 226 656 226 676 l 226 156 q 233 120 226 133 q 250 101 239 107 q 275 96 261 96 m 340 739 l 339 821 l 365 821 q 426 885 426 821 l 426 913 l 549 913 l 549 886 q 497 772 549 806 q 340 739 444 739 m 247 882 l 88 1013 l 261 1013 l 364 882 l 247 882 z "},"Ở":{"ha":554,"x_min":38,"x_max":547,"o":"m 275 -17 q 151 1 204 -17 q 67 71 97 18 q 38 229 38 124 l 38 647 q 67 758 38 718 q 151 816 97 799 q 275 833 204 833 q 400 816 346 833 q 485 758 454 799 q 517 647 517 718 l 517 231 q 485 71 517 124 q 400 1 454 18 q 275 -17 346 -17 m 275 96 q 301 101 289 96 q 318 120 313 107 q 324 156 324 133 l 324 656 q 318 690 324 676 q 301 710 313 704 q 275 715 289 715 q 250 710 261 715 q 233 690 239 704 q 226 656 226 676 l 226 156 q 233 120 226 133 q 250 101 239 107 q 275 96 261 96 m 340 739 l 339 821 l 365 821 q 426 885 426 821 l 426 913 l 549 913 l 549 886 q 497 772 549 806 q 340 739 444 739 m 224 871 l 224 886 q 238 917 224 907 q 267 938 253 928 q 281 963 281 947 l 281 971 q 276 990 281 981 q 261 1000 272 1000 q 240 971 242 1000 l 158 983 q 189 1046 161 1025 q 269 1067 217 1067 q 358 1051 328 1067 q 388 975 388 1035 l 388 969 q 372 926 388 938 q 340 908 356 914 q 324 885 324 901 l 324 871 l 224 871 z "},"Ỡ":{"ha":554,"x_min":38,"x_max":547,"o":"m 275 -17 q 151 1 204 -17 q 67 71 97 18 q 38 229 38 124 l 38 647 q 67 758 38 718 q 151 816 97 799 q 275 833 204 833 q 400 816 346 833 q 485 758 454 799 q 517 647 517 718 l 517 231 q 485 71 517 124 q 400 1 454 18 q 275 -17 346 -17 m 275 96 q 301 101 289 96 q 318 120 313 107 q 324 156 324 133 l 324 656 q 318 690 324 676 q 301 710 313 704 q 275 715 289 715 q 250 710 261 715 q 233 690 239 704 q 226 656 226 676 l 226 156 q 233 120 226 133 q 250 101 239 107 q 275 96 261 96 m 340 739 l 339 821 l 365 821 q 426 885 426 821 l 426 913 l 549 913 l 549 886 q 497 772 549 806 q 340 739 444 739 m 338 883 q 296 892 315 883 q 257 913 276 901 q 226 928 242 921 q 193 935 210 935 q 165 921 175 935 q 154 885 156 907 l 101 885 q 127 983 101 946 q 196 1019 153 1019 q 240 1012 219 1019 q 276 994 260 1004 q 308 979 293 986 q 339 972 324 972 q 369 985 360 972 q 382 1015 379 997 l 440 1015 q 423 943 439 972 q 384 899 407 914 q 338 883 361 883 z "},"Ő":{"ha":554,"x_min":38,"x_max":517,"o":"m 275 -17 q 151 1 204 -17 q 67 71 97 18 q 38 229 38 124 l 38 647 q 67 758 38 718 q 151 816 97 799 q 275 833 204 833 q 400 816 346 833 q 485 758 454 799 q 517 647 517 718 l 517 231 q 485 71 517 124 q 400 1 454 18 q 275 -17 346 -17 m 275 96 q 301 101 289 96 q 318 120 313 107 q 324 156 324 133 l 324 656 q 318 690 324 676 q 301 710 313 704 q 275 715 289 715 q 250 710 261 715 q 233 690 239 704 q 226 656 226 676 l 226 156 q 233 120 226 133 q 250 101 239 107 q 275 96 261 96 m 151 875 l 168 1018 l 311 1018 l 224 875 l 151 875 m 296 875 l 336 1018 l 479 1018 l 381 875 l 296 875 z "},"Ō":{"ha":554,"x_min":38,"x_max":517,"o":"m 275 -17 q 151 1 204 -17 q 67 71 97 18 q 38 229 38 124 l 38 647 q 67 758 38 718 q 151 816 97 799 q 275 833 204 833 q 400 816 346 833 q 485 758 454 799 q 517 647 517 718 l 517 231 q 485 71 517 124 q 400 1 454 18 q 275 -17 346 -17 m 275 96 q 301 101 289 96 q 318 120 313 107 q 324 156 324 133 l 324 656 q 318 690 324 676 q 301 710 313 704 q 275 715 289 715 q 250 710 261 715 q 233 690 239 704 q 226 656 226 676 l 226 156 q 233 120 226 133 q 250 101 239 107 q 275 96 261 96 m 129 894 l 129 989 l 426 989 l 426 894 l 129 894 z "},"Ω":{"ha":833,"x_min":53,"x_max":832,"o":"m 53 0 l 53 139 l 263 133 l 228 154 q 154 223 188 185 q 101 315 121 261 q 82 442 82 368 q 99 574 82 511 q 158 683 117 636 q 270 758 200 731 q 446 785 340 785 q 621 757 551 785 q 730 682 690 729 q 787 575 769 635 q 804 453 804 515 q 783 318 804 374 q 728 224 761 263 q 656 154 694 185 l 621 133 l 832 139 l 832 0 l 490 0 l 490 111 q 552 173 526 142 q 594 239 578 204 q 617 315 610 274 q 624 407 624 356 q 608 536 624 478 q 553 629 593 594 q 444 664 514 664 q 335 629 375 664 q 278 536 294 594 q 261 403 261 478 q 268 317 261 358 q 291 240 275 276 q 333 171 307 203 q 396 111 358 139 l 396 0 l 53 0 z "},"Ø":{"ha":574,"x_min":32,"x_max":540,"o":"m 32 -21 l 457 821 l 540 821 l 115 -21 l 32 -21 m 289 -17 q 162 1 217 -17 q 76 71 107 18 q 46 229 46 124 l 46 647 q 76 758 46 718 q 162 816 107 799 q 289 833 217 833 q 415 816 363 833 q 495 758 467 799 q 524 647 524 718 l 524 231 q 495 71 524 124 q 415 1 467 18 q 289 -17 363 -17 m 289 96 q 311 100 301 96 q 326 118 321 104 q 332 156 332 132 l 332 656 q 326 693 332 681 q 311 710 321 706 q 289 715 301 715 q 267 710 276 715 q 251 693 257 706 q 246 656 246 681 l 246 156 q 251 118 246 132 q 267 100 257 104 q 289 96 276 96 z "},"Õ":{"ha":554,"x_min":38,"x_max":517,"o":"m 275 -17 q 151 1 204 -17 q 67 71 97 18 q 38 229 38 124 l 38 647 q 67 758 38 718 q 151 816 97 799 q 275 833 204 833 q 400 816 346 833 q 485 758 454 799 q 517 647 517 718 l 517 231 q 485 71 517 124 q 400 1 454 18 q 275 -17 346 -17 m 275 96 q 301 101 289 96 q 318 120 313 107 q 324 156 324 133 l 324 656 q 318 690 324 676 q 301 710 313 704 q 275 715 289 715 q 250 710 261 715 q 233 690 239 704 q 226 656 226 676 l 226 156 q 233 120 226 133 q 250 101 239 107 q 275 96 261 96 m 338 883 q 296 892 315 883 q 257 913 276 901 q 226 928 242 921 q 193 935 210 935 q 165 921 175 935 q 154 885 156 907 l 101 885 q 127 983 101 946 q 196 1019 153 1019 q 240 1012 219 1019 q 276 994 260 1004 q 308 979 293 986 q 339 972 324 972 q 369 985 360 972 q 382 1015 379 997 l 440 1015 q 423 943 439 972 q 384 899 407 914 q 338 883 361 883 z "},"P":{"ha":549,"x_min":46,"x_max":524,"o":"m 46 0 l 46 821 l 354 821 q 482 783 440 821 q 524 682 524 744 l 524 542 q 510 433 524 483 q 460 351 496 382 q 358 321 425 321 l 247 321 l 247 0 l 46 0 m 247 425 l 286 425 q 321 456 310 425 q 332 563 332 486 l 332 596 q 324 690 332 663 q 293 718 315 718 l 247 718 l 247 425 z "},"П":{"ha":564,"x_min":40,"x_max":525,"o":"m 40 0 l 40 821 l 525 821 l 525 0 l 324 0 l 324 686 l 240 686 l 240 0 l 40 0 z "},"Q":{"ha":564,"x_min":38,"x_max":525,"o":"m 397 -175 l 304 -11 q 291 -12 297 -11 q 278 -12 285 -12 q 153 5 207 -12 q 68 76 99 22 q 38 233 38 129 l 38 647 q 69 758 38 718 q 156 816 100 799 q 286 833 213 833 q 414 816 360 833 q 497 758 468 799 q 525 647 525 718 l 525 235 q 506 102 525 151 q 450 28 486 53 l 524 -101 l 397 -175 m 286 100 q 310 105 300 100 q 327 123 321 110 q 333 160 333 136 l 333 656 q 327 693 333 681 q 310 710 321 706 q 286 715 300 715 q 261 710 272 715 q 244 693 250 706 q 238 656 238 681 l 238 160 q 244 123 238 136 q 261 105 250 110 q 286 100 272 100 z "},"R":{"ha":586,"x_min":46,"x_max":572,"o":"m 46 0 l 46 821 l 364 821 q 492 783 450 821 q 533 682 533 744 l 533 554 q 502 446 533 493 q 397 392 471 399 l 397 389 q 464 358 444 381 q 497 283 483 335 l 572 0 l 358 0 l 306 271 q 297 307 301 292 q 286 331 292 322 q 271 340 281 340 l 247 340 l 247 0 l 46 0 m 247 472 l 290 472 q 331 490 317 472 q 344 551 344 508 l 344 646 q 333 703 344 688 q 299 718 321 718 l 247 718 l 247 472 z "},"Ŕ":{"ha":586,"x_min":46,"x_max":572,"o":"m 46 0 l 46 821 l 364 821 q 492 783 450 821 q 533 682 533 744 l 533 554 q 502 446 533 493 q 397 392 471 399 l 397 389 q 464 358 444 381 q 497 283 483 335 l 572 0 l 358 0 l 306 271 q 297 307 301 292 q 286 331 292 322 q 271 340 281 340 l 247 340 l 247 0 l 46 0 m 247 472 l 290 472 q 331 490 317 472 q 344 551 344 508 l 344 646 q 333 703 344 688 q 299 718 321 718 l 247 718 l 247 472 m 201 882 l 310 1018 l 479 1018 l 307 882 l 201 882 z "},"Ř":{"ha":586,"x_min":46,"x_max":572,"o":"m 46 0 l 46 821 l 364 821 q 492 783 450 821 q 533 682 533 744 l 533 554 q 502 446 533 493 q 397 392 471 399 l 397 389 q 464 358 444 381 q 497 283 483 335 l 572 0 l 358 0 l 306 271 q 297 307 301 292 q 286 331 292 322 q 271 340 281 340 l 247 340 l 247 0 l 46 0 m 247 472 l 290 472 q 331 490 317 472 q 344 551 344 508 l 344 646 q 333 703 344 688 q 299 718 321 718 l 247 718 l 247 472 m 242 876 l 106 1021 l 224 1021 l 294 958 l 365 1019 l 481 1019 l 344 876 l 242 876 z "},"Ŗ":{"ha":586,"x_min":46,"x_max":572,"o":"m 46 0 l 46 821 l 364 821 q 492 783 450 821 q 533 682 533 744 l 533 554 q 502 446 533 493 q 397 392 471 399 l 397 389 q 464 358 444 381 q 497 283 483 335 l 572 0 l 358 0 l 306 271 q 297 307 301 292 q 286 331 292 322 q 271 340 281 340 l 247 340 l 247 0 l 46 0 m 247 472 l 290 472 q 331 490 317 472 q 344 551 344 508 l 344 646 q 333 703 344 688 q 299 718 321 718 l 247 718 l 247 472 m 211 -279 q 245 -222 233 -247 q 257 -179 257 -196 q 247 -160 257 -168 q 226 -142 236 -153 q 215 -111 215 -131 q 237 -69 215 -87 q 293 -50 258 -50 q 352 -70 329 -50 q 375 -119 375 -90 q 361 -169 375 -140 q 328 -228 347 -199 q 288 -279 308 -257 l 211 -279 z "},"S":{"ha":553,"x_min":26,"x_max":526,"o":"m 272 -11 q 139 10 194 -11 q 55 83 83 31 q 26 235 26 136 l 26 285 q 127 285 76 285 q 228 285 178 285 l 228 218 q 233 151 228 174 q 249 119 239 128 q 275 111 260 111 q 310 130 299 111 q 322 204 322 149 q 308 276 322 253 q 260 314 293 299 q 171 351 226 329 q 90 406 121 375 q 47 482 60 436 q 33 590 33 528 q 56 726 33 675 q 131 801 78 778 q 276 824 183 824 q 456 774 394 824 q 517 626 517 725 l 517 525 q 422 525 469 525 q 325 525 374 525 l 325 568 q 317 649 325 626 q 278 671 308 671 q 242 653 251 671 q 232 597 232 636 q 249 530 232 553 q 294 495 267 507 q 353 472 322 483 q 452 424 414 449 q 508 357 490 400 q 526 233 526 314 q 496 88 526 142 q 408 12 465 35 q 272 -11 350 -11 z "},"Ś":{"ha":553,"x_min":26,"x_max":526,"o":"m 272 -11 q 139 10 194 -11 q 55 83 83 31 q 26 235 26 136 l 26 285 q 127 285 76 285 q 228 285 178 285 l 228 218 q 233 151 228 174 q 249 119 239 128 q 275 111 260 111 q 310 130 299 111 q 322 204 322 149 q 308 276 322 253 q 260 314 293 299 q 171 351 226 329 q 90 406 121 375 q 47 482 60 436 q 33 590 33 528 q 56 726 33 675 q 131 801 78 778 q 276 824 183 824 q 456 774 394 824 q 517 626 517 725 l 517 525 q 422 525 469 525 q 325 525 374 525 l 325 568 q 317 649 325 626 q 278 671 308 671 q 242 653 251 671 q 232 597 232 636 q 249 530 232 553 q 294 495 267 507 q 353 472 322 483 q 452 424 414 449 q 508 357 490 400 q 526 233 526 314 q 496 88 526 142 q 408 12 465 35 q 272 -11 350 -11 m 186 882 l 294 1018 l 464 1018 l 292 882 l 186 882 z "},"Š":{"ha":553,"x_min":26,"x_max":526,"o":"m 272 -11 q 139 10 194 -11 q 55 83 83 31 q 26 235 26 136 l 26 285 q 127 285 76 285 q 228 285 178 285 l 228 218 q 233 151 228 174 q 249 119 239 128 q 275 111 260 111 q 310 130 299 111 q 322 204 322 149 q 308 276 322 253 q 260 314 293 299 q 171 351 226 329 q 90 406 121 375 q 47 482 60 436 q 33 590 33 528 q 56 726 33 675 q 131 801 78 778 q 276 824 183 824 q 456 774 394 824 q 517 626 517 725 l 517 525 q 422 525 469 525 q 325 525 374 525 l 325 568 q 317 649 325 626 q 278 671 308 671 q 242 653 251 671 q 232 597 232 636 q 249 530 232 553 q 294 495 267 507 q 353 472 322 483 q 452 424 414 449 q 508 357 490 400 q 526 233 526 314 q 496 88 526 142 q 408 12 465 35 q 272 -11 350 -11 m 225 876 l 89 1021 l 207 1021 l 278 958 l 349 1019 l 464 1019 l 328 876 l 225 876 z "},"Ş":{"ha":553,"x_min":26,"x_max":526,"o":"m 272 -11 q 139 10 194 -11 q 55 83 83 31 q 26 235 26 136 l 26 285 q 127 285 76 285 q 228 285 178 285 l 228 218 q 233 151 228 174 q 249 119 239 128 q 275 111 260 111 q 310 130 299 111 q 322 204 322 149 q 308 276 322 253 q 260 314 293 299 q 171 351 226 329 q 90 406 121 375 q 47 482 60 436 q 33 590 33 528 q 56 726 33 675 q 131 801 78 778 q 276 824 183 824 q 456 774 394 824 q 517 626 517 725 l 517 525 q 422 525 469 525 q 325 525 374 525 l 325 568 q 317 649 325 626 q 278 671 308 671 q 242 653 251 671 q 232 597 232 636 q 249 530 232 553 q 294 495 267 507 q 353 472 322 483 q 452 424 414 449 q 508 357 490 400 q 526 233 526 314 q 496 88 526 142 q 408 12 465 35 q 272 -11 350 -11 m 271 -233 q 217 -222 242 -233 q 183 -206 193 -211 l 206 -147 q 233 -162 215 -156 q 263 -168 250 -168 q 293 -158 282 -168 q 304 -131 304 -149 q 296 -112 304 -118 q 276 -106 288 -106 q 262 -108 268 -106 q 251 -115 256 -111 l 201 -87 l 244 0 l 314 0 l 278 -74 l 268 -68 q 290 -59 276 -64 q 322 -54 304 -54 q 385 -80 363 -54 q 407 -135 407 -106 q 372 -204 407 -175 q 271 -233 336 -233 z "},"Ș":{"ha":553,"x_min":26,"x_max":526,"o":"m 272 -11 q 139 10 194 -11 q 55 83 83 31 q 26 235 26 136 l 26 285 q 127 285 76 285 q 228 285 178 285 l 228 218 q 233 151 228 174 q 249 119 239 128 q 275 111 260 111 q 310 130 299 111 q 322 204 322 149 q 308 276 322 253 q 260 314 293 299 q 171 351 226 329 q 90 406 121 375 q 47 482 60 436 q 33 590 33 528 q 56 726 33 675 q 131 801 78 778 q 276 824 183 824 q 456 774 394 824 q 517 626 517 725 l 517 525 q 422 525 469 525 q 325 525 374 525 l 325 568 q 317 649 325 626 q 278 671 308 671 q 242 653 251 671 q 232 597 232 636 q 249 530 232 553 q 294 495 267 507 q 353 472 322 483 q 452 424 414 449 q 508 357 490 400 q 526 233 526 314 q 496 88 526 142 q 408 12 465 35 q 272 -11 350 -11 m 193 -279 q 227 -222 215 -247 q 239 -179 239 -196 q 228 -160 239 -168 q 208 -142 218 -153 q 197 -111 197 -131 q 219 -69 197 -87 q 275 -50 240 -50 q 334 -70 311 -50 q 357 -119 357 -90 q 343 -169 357 -140 q 310 -228 329 -199 q 269 -279 290 -257 l 193 -279 z "},"Ш":{"ha":860,"x_min":40,"x_max":821,"o":"m 40 0 l 40 821 l 240 821 l 240 135 l 329 135 l 329 821 l 531 821 l 531 135 l 619 135 l 619 821 l 821 821 l 821 0 l 40 0 z "},"Щ":{"ha":953,"x_min":40,"x_max":921,"o":"m 769 -132 l 769 0 l 40 0 l 40 821 l 240 821 l 240 135 l 329 135 l 329 821 l 531 821 l 531 135 l 619 135 l 619 821 l 821 821 l 821 85 l 921 85 l 921 -132 l 769 -132 z "},"Ь":{"ha":540,"x_min":40,"x_max":501,"o":"m 40 0 l 40 821 l 229 821 l 229 606 l 344 606 q 420 593 385 606 q 478 547 456 581 q 501 446 501 514 l 501 219 q 488 101 501 144 q 449 35 474 57 q 391 7 425 14 q 315 0 357 0 l 40 0 m 229 99 l 272 99 q 299 108 290 99 q 310 144 307 117 q 313 226 313 171 l 313 406 q 310 453 313 435 q 299 481 307 472 q 271 490 290 490 l 229 490 l 229 99 z "},"T":{"ha":461,"x_min":13,"x_max":450,"o":"m 135 0 l 135 686 l 13 686 l 13 821 l 450 821 l 450 686 l 326 686 l 326 0 l 135 0 z "},"Ŧ":{"ha":460,"x_min":13,"x_max":450,"o":"m 69 493 l 69 592 l 386 592 l 386 493 l 69 493 m 135 0 l 135 686 l 13 686 l 13 821 l 450 821 l 450 686 l 326 686 l 326 0 l 135 0 z "},"Ť":{"ha":461,"x_min":13,"x_max":450,"o":"m 135 0 l 135 686 l 13 686 l 13 821 l 450 821 l 450 686 l 326 686 l 326 0 l 135 0 m 179 876 l 43 1021 l 161 1021 l 232 958 l 303 1019 l 418 1019 l 282 876 l 179 876 z "},"Ţ":{"ha":461,"x_min":13,"x_max":450,"o":"m 135 0 l 135 686 l 13 686 l 13 821 l 450 821 l 450 686 l 326 686 l 326 0 l 135 0 m 225 -233 q 172 -222 196 -233 q 138 -206 147 -211 l 160 -147 q 187 -162 169 -156 q 217 -168 204 -168 q 247 -158 236 -168 q 258 -131 258 -149 q 250 -112 258 -118 q 231 -106 242 -106 q 216 -108 222 -106 q 206 -115 210 -111 l 156 -87 l 199 0 l 268 0 l 232 -74 l 222 -68 q 244 -59 231 -64 q 276 -54 258 -54 q 339 -80 317 -54 q 361 -135 361 -106 q 326 -204 361 -175 q 225 -233 290 -233 z "},"Ț":{"ha":461,"x_min":13,"x_max":450,"o":"m 135 0 l 135 686 l 13 686 l 13 821 l 450 821 l 450 686 l 326 686 l 326 0 l 135 0 m 147 -279 q 181 -222 169 -247 q 193 -179 193 -196 q 183 -160 193 -168 q 162 -142 172 -153 q 151 -111 151 -131 q 173 -69 151 -87 q 229 -50 194 -50 q 288 -70 265 -50 q 311 -119 311 -90 q 297 -169 311 -140 q 264 -228 283 -199 q 224 -279 244 -257 l 147 -279 z "},"Т":{"ha":461,"x_min":13,"x_max":450,"o":"m 135 0 l 135 686 l 13 686 l 13 821 l 450 821 l 450 686 l 326 686 l 326 0 l 135 0 z "},"Þ":{"ha":557,"x_min":40,"x_max":518,"o":"m 40 0 l 40 821 l 242 821 l 242 682 l 347 682 q 476 644 435 682 q 518 543 518 607 l 518 403 q 504 294 518 344 q 454 212 490 243 q 353 181 418 181 l 240 181 l 240 0 l 40 0 m 240 286 l 279 286 q 315 317 303 286 q 326 422 326 347 l 326 457 q 319 552 326 525 q 288 579 311 579 l 240 579 l 240 286 z "},"Ц":{"ha":660,"x_min":40,"x_max":631,"o":"m 481 -132 l 481 0 l 40 0 l 40 821 l 240 821 l 240 135 l 331 135 l 331 821 l 532 821 l 532 85 l 631 85 l 631 -132 l 481 -132 z "},"Ћ":{"ha":639,"x_min":10,"x_max":599,"o":"m 135 0 l 135 686 l 10 686 l 10 821 l 451 821 l 451 686 l 326 686 l 326 561 q 372 588 339 575 q 443 601 404 601 q 541 581 507 601 q 587 519 575 560 q 599 418 599 478 l 599 0 l 410 0 l 410 418 q 406 449 410 436 q 394 468 403 461 q 368 475 385 475 q 343 469 354 475 q 326 457 332 464 l 326 0 l 135 0 z "},"U":{"ha":561,"x_min":44,"x_max":517,"o":"m 281 -17 q 185 -9 228 -17 q 110 21 142 -1 q 62 90 79 43 q 44 215 44 136 l 44 821 l 238 821 l 238 160 q 243 124 238 138 q 258 106 249 111 q 281 101 268 101 q 303 106 293 101 q 319 124 314 111 q 325 160 325 138 l 325 821 l 517 821 l 517 217 q 500 90 517 138 q 452 21 483 43 q 377 -9 421 -1 q 281 -17 333 -17 z "},"У":{"ha":525,"x_min":8,"x_max":517,"o":"m 171 -25 q 87 -19 128 -25 q 22 -6 46 -12 l 22 92 q 46 87 32 89 q 74 85 60 85 q 117 90 96 85 q 140 125 138 96 q 141 153 143 139 q 136 190 139 167 l 8 821 l 203 821 l 268 319 l 271 319 l 338 821 l 517 821 l 392 210 q 315 28 365 82 q 171 -25 265 -25 z "},"Ú":{"ha":561,"x_min":44,"x_max":517,"o":"m 281 -17 q 185 -9 228 -17 q 110 21 142 -1 q 62 90 79 43 q 44 215 44 136 l 44 821 l 238 821 l 238 160 q 243 124 238 138 q 258 106 249 111 q 281 101 268 101 q 303 106 293 101 q 319 124 314 111 q 325 160 325 138 l 325 821 l 517 821 l 517 217 q 500 90 517 138 q 452 21 483 43 q 377 -9 421 -1 q 281 -17 333 -17 m 190 882 l 299 1018 l 468 1018 l 296 882 l 190 882 z "},"Ǔ":{"ha":561,"x_min":44,"x_max":517,"o":"m 281 -17 q 185 -9 228 -17 q 110 21 142 -1 q 62 90 79 43 q 44 215 44 136 l 44 821 l 238 821 l 238 160 q 243 124 238 138 q 258 106 249 111 q 281 101 268 101 q 303 106 293 101 q 319 124 314 111 q 325 160 325 138 l 325 821 l 517 821 l 517 217 q 500 90 517 138 q 452 21 483 43 q 377 -9 421 -1 q 281 -17 333 -17 m 229 876 l 93 1021 l 211 1021 l 282 958 l 353 1019 l 468 1019 l 332 876 l 229 876 z "},"Û":{"ha":561,"x_min":44,"x_max":517,"o":"m 281 -17 q 185 -9 228 -17 q 110 21 142 -1 q 62 90 79 43 q 44 215 44 136 l 44 821 l 238 821 l 238 160 q 243 124 238 138 q 258 106 249 111 q 281 101 268 101 q 303 106 293 101 q 319 124 314 111 q 325 160 325 138 l 325 821 l 517 821 l 517 217 q 500 90 517 138 q 452 21 483 43 q 377 -9 421 -1 q 281 -17 333 -17 m 92 876 l 229 1022 l 332 1022 l 471 878 l 354 878 l 282 942 l 211 876 l 92 876 z "},"Ü":{"ha":561,"x_min":44,"x_max":517,"o":"m 281 -17 q 185 -9 228 -17 q 110 21 142 -1 q 62 90 79 43 q 44 215 44 136 l 44 821 l 238 821 l 238 160 q 243 124 238 138 q 258 106 249 111 q 281 101 268 101 q 303 106 293 101 q 319 124 314 111 q 325 160 325 138 l 325 821 l 517 821 l 517 217 q 500 90 517 138 q 452 21 483 43 q 377 -9 421 -1 q 281 -17 333 -17 m 190 878 q 137 899 158 878 q 115 949 115 919 q 137 999 115 979 q 190 1019 158 1019 q 243 999 222 1019 q 264 949 264 979 q 243 899 264 919 q 190 878 222 878 m 371 878 q 317 899 339 878 q 296 949 296 919 q 317 999 296 979 q 371 1019 339 1019 q 424 999 403 1019 q 444 949 444 979 q 424 899 444 919 q 371 878 403 878 z "},"Ǘ":{"ha":561,"x_min":44,"x_max":517,"o":"m 281 -17 q 185 -9 228 -17 q 110 21 142 -1 q 62 90 79 43 q 44 215 44 136 l 44 821 l 238 821 l 238 160 q 243 124 238 138 q 258 106 249 111 q 281 101 268 101 q 303 106 293 101 q 319 124 314 111 q 325 160 325 138 l 325 821 l 517 821 l 517 217 q 500 90 517 138 q 452 21 483 43 q 377 -9 421 -1 q 281 -17 333 -17 m 190 878 q 137 899 158 878 q 115 949 115 919 q 137 999 115 979 q 190 1019 158 1019 q 243 999 222 1019 q 264 949 264 979 q 243 899 264 919 q 190 878 222 878 m 371 878 q 317 899 339 878 q 296 949 296 919 q 317 999 296 979 q 371 1019 339 1019 q 424 999 403 1019 q 444 949 444 979 q 424 899 444 919 q 371 878 403 878 m 190 1050 l 299 1186 l 468 1186 l 296 1050 l 190 1050 z "},"Ǚ":{"ha":561,"x_min":44,"x_max":517,"o":"m 281 -17 q 185 -9 228 -17 q 110 21 142 -1 q 62 90 79 43 q 44 215 44 136 l 44 821 l 238 821 l 238 160 q 243 124 238 138 q 258 106 249 111 q 281 101 268 101 q 303 106 293 101 q 319 124 314 111 q 325 160 325 138 l 325 821 l 517 821 l 517 217 q 500 90 517 138 q 452 21 483 43 q 377 -9 421 -1 q 281 -17 333 -17 m 190 878 q 137 899 158 878 q 115 949 115 919 q 137 999 115 979 q 190 1019 158 1019 q 243 999 222 1019 q 264 949 264 979 q 243 899 264 919 q 190 878 222 878 m 371 878 q 317 899 339 878 q 296 949 296 919 q 317 999 296 979 q 371 1019 339 1019 q 424 999 403 1019 q 444 949 444 979 q 424 899 444 919 q 371 878 403 878 m 229 1044 l 93 1189 l 211 1189 l 282 1126 l 353 1188 l 468 1188 l 332 1044 l 229 1044 z "},"Ǜ":{"ha":561,"x_min":44,"x_max":517,"o":"m 281 -17 q 185 -9 228 -17 q 110 21 142 -1 q 62 90 79 43 q 44 215 44 136 l 44 821 l 238 821 l 238 160 q 243 124 238 138 q 258 106 249 111 q 281 101 268 101 q 303 106 293 101 q 319 124 314 111 q 325 160 325 138 l 325 821 l 517 821 l 517 217 q 500 90 517 138 q 452 21 483 43 q 377 -9 421 -1 q 281 -17 333 -17 m 190 878 q 137 899 158 878 q 115 949 115 919 q 137 999 115 979 q 190 1019 158 1019 q 243 999 222 1019 q 264 949 264 979 q 243 899 264 919 q 190 878 222 878 m 371 878 q 317 899 339 878 q 296 949 296 919 q 317 999 296 979 q 371 1019 339 1019 q 424 999 403 1019 q 444 949 444 979 q 424 899 444 919 q 371 878 403 878 m 250 1050 l 90 1181 l 264 1181 l 367 1050 l 250 1050 z "},"Ǖ":{"ha":561,"x_min":44,"x_max":517,"o":"m 281 -17 q 185 -9 228 -17 q 110 21 142 -1 q 62 90 79 43 q 44 215 44 136 l 44 821 l 238 821 l 238 160 q 243 124 238 138 q 258 106 249 111 q 281 101 268 101 q 303 106 293 101 q 319 124 314 111 q 325 160 325 138 l 325 821 l 517 821 l 517 217 q 500 90 517 138 q 452 21 483 43 q 377 -9 421 -1 q 281 -17 333 -17 m 190 878 q 137 899 158 878 q 115 949 115 919 q 137 999 115 979 q 190 1019 158 1019 q 243 999 222 1019 q 264 949 264 979 q 243 899 264 919 q 190 878 222 878 m 371 878 q 317 899 339 878 q 296 949 296 919 q 317 999 296 979 q 371 1019 339 1019 q 424 999 403 1019 q 444 949 444 979 q 424 899 444 919 q 371 878 403 878 m 132 1063 l 132 1157 l 429 1157 l 429 1063 l 132 1063 z "},"Ụ":{"ha":561,"x_min":44,"x_max":517,"o":"m 281 -17 q 185 -9 228 -17 q 110 21 142 -1 q 62 90 79 43 q 44 215 44 136 l 44 821 l 238 821 l 238 160 q 243 124 238 138 q 258 106 249 111 q 281 101 268 101 q 303 106 293 101 q 319 124 314 111 q 325 160 325 138 l 325 821 l 517 821 l 517 217 q 500 90 517 138 q 452 21 483 43 q 377 -9 421 -1 q 281 -17 333 -17 m 281 -193 q 227 -172 249 -193 q 206 -121 206 -150 q 227 -69 206 -90 q 281 -47 249 -47 q 334 -69 311 -47 q 357 -121 357 -90 q 334 -172 357 -150 q 281 -193 311 -193 z "},"Ù":{"ha":561,"x_min":44,"x_max":517,"o":"m 281 -17 q 185 -9 228 -17 q 110 21 142 -1 q 62 90 79 43 q 44 215 44 136 l 44 821 l 238 821 l 238 160 q 243 124 238 138 q 258 106 249 111 q 281 101 268 101 q 303 106 293 101 q 319 124 314 111 q 325 160 325 138 l 325 821 l 517 821 l 517 217 q 500 90 517 138 q 452 21 483 43 q 377 -9 421 -1 q 281 -17 333 -17 m 250 882 l 90 1013 l 264 1013 l 367 882 l 250 882 z "},"Ủ":{"ha":561,"x_min":44,"x_max":517,"o":"m 281 -17 q 185 -9 228 -17 q 110 21 142 -1 q 62 90 79 43 q 44 215 44 136 l 44 821 l 238 821 l 238 160 q 243 124 238 138 q 258 106 249 111 q 281 101 268 101 q 303 106 293 101 q 319 124 314 111 q 325 160 325 138 l 325 821 l 517 821 l 517 217 q 500 90 517 138 q 452 21 483 43 q 377 -9 421 -1 q 281 -17 333 -17 m 226 871 l 226 886 q 241 917 226 907 q 269 938 256 928 q 283 963 283 947 l 283 971 q 279 990 283 981 q 264 1000 275 1000 q 243 971 244 1000 l 161 983 q 192 1046 164 1025 q 272 1067 219 1067 q 360 1051 331 1067 q 390 975 390 1035 l 390 969 q 374 926 390 938 q 342 908 358 914 q 326 885 326 901 l 326 871 l 226 871 z "},"Ư":{"ha":561,"x_min":44,"x_max":572,"o":"m 281 -17 q 185 -9 228 -17 q 110 21 142 -1 q 62 90 79 43 q 44 215 44 136 l 44 821 l 238 821 l 238 160 q 243 124 238 138 q 258 106 249 111 q 281 101 268 101 q 303 106 293 101 q 319 124 314 111 q 325 160 325 138 l 325 821 l 517 821 l 517 217 q 500 90 517 138 q 452 21 483 43 q 377 -9 421 -1 q 281 -17 333 -17 m 365 739 l 364 821 l 390 821 q 451 885 451 821 l 451 913 l 574 913 l 574 886 q 522 772 574 806 q 365 739 469 739 z "},"Ứ":{"ha":561,"x_min":44,"x_max":572,"o":"m 281 -17 q 185 -9 228 -17 q 110 21 142 -1 q 62 90 79 43 q 44 215 44 136 l 44 821 l 238 821 l 238 160 q 243 124 238 138 q 258 106 249 111 q 281 101 268 101 q 303 106 293 101 q 319 124 314 111 q 325 160 325 138 l 325 821 l 517 821 l 517 217 q 500 90 517 138 q 452 21 483 43 q 377 -9 421 -1 q 281 -17 333 -17 m 365 739 l 364 821 l 390 821 q 451 885 451 821 l 451 913 l 574 913 l 574 886 q 522 772 574 806 q 365 739 469 739 m 190 882 l 299 1018 l 468 1018 l 296 882 l 190 882 z "},"Ự":{"ha":561,"x_min":44,"x_max":572,"o":"m 281 -17 q 185 -9 228 -17 q 110 21 142 -1 q 62 90 79 43 q 44 215 44 136 l 44 821 l 238 821 l 238 160 q 243 124 238 138 q 258 106 249 111 q 281 101 268 101 q 303 106 293 101 q 319 124 314 111 q 325 160 325 138 l 325 821 l 517 821 l 517 217 q 500 90 517 138 q 452 21 483 43 q 377 -9 421 -1 q 281 -17 333 -17 m 365 739 l 364 821 l 390 821 q 451 885 451 821 l 451 913 l 574 913 l 574 886 q 522 772 574 806 q 365 739 469 739 m 281 -193 q 227 -172 249 -193 q 206 -121 206 -150 q 227 -69 206 -90 q 281 -47 249 -47 q 334 -69 311 -47 q 357 -121 357 -90 q 334 -172 357 -150 q 281 -193 311 -193 z "},"Ừ":{"ha":561,"x_min":44,"x_max":572,"o":"m 281 -17 q 185 -9 228 -17 q 110 21 142 -1 q 62 90 79 43 q 44 215 44 136 l 44 821 l 238 821 l 238 160 q 243 124 238 138 q 258 106 249 111 q 281 101 268 101 q 303 106 293 101 q 319 124 314 111 q 325 160 325 138 l 325 821 l 517 821 l 517 217 q 500 90 517 138 q 452 21 483 43 q 377 -9 421 -1 q 281 -17 333 -17 m 365 739 l 364 821 l 390 821 q 451 885 451 821 l 451 913 l 574 913 l 574 886 q 522 772 574 806 q 365 739 469 739 m 250 882 l 90 1013 l 264 1013 l 367 882 l 250 882 z "},"Ử":{"ha":561,"x_min":44,"x_max":572,"o":"m 281 -17 q 185 -9 228 -17 q 110 21 142 -1 q 62 90 79 43 q 44 215 44 136 l 44 821 l 238 821 l 238 160 q 243 124 238 138 q 258 106 249 111 q 281 101 268 101 q 303 106 293 101 q 319 124 314 111 q 325 160 325 138 l 325 821 l 517 821 l 517 217 q 500 90 517 138 q 452 21 483 43 q 377 -9 421 -1 q 281 -17 333 -17 m 365 739 l 364 821 l 390 821 q 451 885 451 821 l 451 913 l 574 913 l 574 886 q 522 772 574 806 q 365 739 469 739 m 226 871 l 226 886 q 241 917 226 907 q 269 938 256 928 q 283 963 283 947 l 283 971 q 279 990 283 981 q 264 1000 275 1000 q 243 971 244 1000 l 161 983 q 192 1046 164 1025 q 272 1067 219 1067 q 360 1051 331 1067 q 390 975 390 1035 l 390 969 q 374 926 390 938 q 342 908 358 914 q 326 885 326 901 l 326 871 l 226 871 z "},"Ữ":{"ha":561,"x_min":44,"x_max":572,"o":"m 281 -17 q 185 -9 228 -17 q 110 21 142 -1 q 62 90 79 43 q 44 215 44 136 l 44 821 l 238 821 l 238 160 q 243 124 238 138 q 258 106 249 111 q 281 101 268 101 q 303 106 293 101 q 319 124 314 111 q 325 160 325 138 l 325 821 l 517 821 l 517 217 q 500 90 517 138 q 452 21 483 43 q 377 -9 421 -1 q 281 -17 333 -17 m 365 739 l 364 821 l 390 821 q 451 885 451 821 l 451 913 l 574 913 l 574 886 q 522 772 574 806 q 365 739 469 739 m 342 883 q 300 892 319 883 q 261 913 281 901 q 230 928 246 921 q 197 935 214 935 q 169 921 179 935 q 158 885 160 907 l 106 885 q 131 983 106 946 q 200 1019 157 1019 q 244 1012 224 1019 q 281 994 264 1004 q 313 979 297 986 q 343 972 328 972 q 374 985 364 972 q 386 1015 383 997 l 444 1015 q 427 943 443 972 q 388 899 411 914 q 342 883 365 883 z "},"Ű":{"ha":561,"x_min":44,"x_max":517,"o":"m 281 -17 q 185 -9 228 -17 q 110 21 142 -1 q 62 90 79 43 q 44 215 44 136 l 44 821 l 238 821 l 238 160 q 243 124 238 138 q 258 106 249 111 q 281 101 268 101 q 303 106 293 101 q 319 124 314 111 q 325 160 325 138 l 325 821 l 517 821 l 517 217 q 500 90 517 138 q 452 21 483 43 q 377 -9 421 -1 q 281 -17 333 -17 m 154 875 l 171 1018 l 314 1018 l 226 875 l 154 875 m 299 875 l 339 1018 l 482 1018 l 383 875 l 299 875 z "},"Ū":{"ha":561,"x_min":44,"x_max":517,"o":"m 281 -17 q 185 -9 228 -17 q 110 21 142 -1 q 62 90 79 43 q 44 215 44 136 l 44 821 l 238 821 l 238 160 q 243 124 238 138 q 258 106 249 111 q 281 101 268 101 q 303 106 293 101 q 319 124 314 111 q 325 160 325 138 l 325 821 l 517 821 l 517 217 q 500 90 517 138 q 452 21 483 43 q 377 -9 421 -1 q 281 -17 333 -17 m 132 894 l 132 989 l 429 989 l 429 894 l 132 894 z "},"Ų":{"ha":561,"x_min":44,"x_max":517,"o":"m 281 -17 q 185 -9 228 -17 q 110 21 142 -1 q 62 90 79 43 q 44 215 44 136 l 44 821 l 238 821 l 238 160 q 243 124 238 138 q 258 106 249 111 q 281 101 268 101 q 303 106 293 101 q 319 124 314 111 q 325 160 325 138 l 325 821 l 517 821 l 517 217 q 500 90 517 138 q 452 21 483 43 q 377 -9 421 -1 q 281 -17 333 -17 m 299 -206 q 210 -177 243 -206 q 176 -114 176 -149 q 209 -40 176 -75 q 294 3 242 -4 l 368 0 q 313 -37 331 -11 q 296 -87 296 -62 q 313 -126 296 -112 q 349 -140 331 -140 q 365 -138 358 -140 q 375 -135 372 -136 l 397 -182 q 367 -196 389 -186 q 299 -206 346 -206 z "},"Ů":{"ha":561,"x_min":44,"x_max":517,"o":"m 281 -17 q 185 -9 228 -17 q 110 21 142 -1 q 62 90 79 43 q 44 215 44 136 l 44 821 l 238 821 l 238 160 q 243 124 238 138 q 258 106 249 111 q 281 101 268 101 q 303 106 293 101 q 319 124 314 111 q 325 160 325 138 l 325 821 l 517 821 l 517 217 q 500 90 517 138 q 452 21 483 43 q 377 -9 421 -1 q 281 -17 333 -17 m 281 867 q 191 901 226 867 q 156 983 156 935 q 191 1069 156 1035 q 281 1103 226 1103 q 369 1068 332 1103 q 406 983 406 1033 q 368 901 406 935 q 281 867 331 867 m 281 940 q 315 953 301 940 q 328 983 328 965 q 315 1018 328 1006 q 281 1031 301 1031 q 246 1018 260 1031 q 232 983 232 1006 q 246 953 232 965 q 281 940 260 940 z "},"Ў":{"ha":525,"x_min":8,"x_max":517,"o":"m 171 -25 q 87 -19 128 -25 q 22 -6 46 -12 l 22 92 q 46 87 32 89 q 74 85 60 85 q 117 90 96 85 q 140 125 138 96 q 141 153 143 139 q 136 190 139 167 l 8 821 l 203 821 l 268 319 l 271 319 l 338 821 l 517 821 l 392 210 q 315 28 365 82 q 171 -25 265 -25 m 260 876 q 156 901 192 876 q 109 960 121 926 q 97 1021 97 994 l 197 1021 q 218 979 199 993 q 261 965 238 965 q 306 978 288 965 q 326 1021 325 992 l 429 1021 q 411 949 428 982 q 358 897 394 917 q 260 876 321 876 z "},"Ũ":{"ha":561,"x_min":44,"x_max":517,"o":"m 281 -17 q 185 -9 228 -17 q 110 21 142 -1 q 62 90 79 43 q 44 215 44 136 l 44 821 l 238 821 l 238 160 q 243 124 238 138 q 258 106 249 111 q 281 101 268 101 q 303 106 293 101 q 319 124 314 111 q 325 160 325 138 l 325 821 l 517 821 l 517 217 q 500 90 517 138 q 452 21 483 43 q 377 -9 421 -1 q 281 -17 333 -17 m 342 883 q 300 892 319 883 q 261 913 281 901 q 230 928 246 921 q 197 935 214 935 q 169 921 179 935 q 158 885 160 907 l 106 885 q 131 983 106 946 q 200 1019 157 1019 q 244 1012 224 1019 q 281 994 264 1004 q 313 979 297 986 q 343 972 328 972 q 374 985 364 972 q 386 1015 383 997 l 444 1015 q 427 943 443 972 q 388 899 411 914 q 342 883 365 883 z "},"V":{"ha":558,"x_min":15,"x_max":544,"o":"m 142 0 l 15 821 l 214 821 l 279 196 l 281 196 l 353 821 l 544 821 l 415 0 l 142 0 z "},"В":{"ha":560,"x_min":46,"x_max":529,"o":"m 46 0 l 46 821 l 354 821 q 476 783 436 821 q 517 682 517 744 l 517 590 q 506 524 517 554 q 475 475 496 494 q 438 451 460 460 q 393 440 415 443 l 393 439 q 434 433 414 439 q 476 411 454 428 q 515 361 500 393 q 529 282 529 329 l 529 172 q 506 68 529 106 q 440 15 483 31 q 335 0 396 0 l 46 0 m 239 99 l 290 99 q 314 106 304 99 q 329 131 324 113 q 335 183 335 150 l 335 276 q 322 342 335 326 q 286 357 310 357 l 239 357 l 239 99 m 239 478 l 283 478 q 318 497 304 478 q 332 568 332 515 l 332 646 q 321 702 332 686 q 290 718 310 718 l 239 718 l 239 478 z "},"W":{"ha":858,"x_min":15,"x_max":844,"o":"m 136 0 l 15 821 l 214 821 l 281 244 l 349 821 l 510 821 l 578 244 l 644 821 l 844 821 l 722 0 l 497 0 l 429 415 l 361 0 l 136 0 z "},"Ẃ":{"ha":858,"x_min":15,"x_max":844,"o":"m 136 0 l 15 821 l 214 821 l 281 244 l 349 821 l 510 821 l 578 244 l 644 821 l 844 821 l 722 0 l 497 0 l 429 415 l 361 0 l 136 0 m 339 882 l 447 1018 l 617 1018 l 444 882 l 339 882 z "},"Ŵ":{"ha":858,"x_min":15,"x_max":844,"o":"m 136 0 l 15 821 l 214 821 l 281 244 l 349 821 l 510 821 l 578 244 l 644 821 l 844 821 l 722 0 l 497 0 l 429 415 l 361 0 l 136 0 m 240 876 l 378 1022 l 481 1022 l 619 878 l 503 878 l 431 942 l 360 876 l 240 876 z "},"Ẅ":{"ha":858,"x_min":15,"x_max":844,"o":"m 136 0 l 15 821 l 214 821 l 281 244 l 349 821 l 510 821 l 578 244 l 644 821 l 844 821 l 722 0 l 497 0 l 429 415 l 361 0 l 136 0 m 340 878 q 287 899 308 878 q 265 949 265 919 q 287 999 265 979 q 340 1019 308 1019 q 393 999 372 1019 q 414 949 414 979 q 393 899 414 919 q 340 878 372 878 m 521 878 q 467 899 489 878 q 446 949 446 919 q 467 999 446 979 q 521 1019 489 1019 q 574 999 553 1019 q 594 949 594 979 q 574 899 594 919 q 521 878 553 878 z "},"Ẁ":{"ha":858,"x_min":15,"x_max":844,"o":"m 136 0 l 15 821 l 214 821 l 281 244 l 349 821 l 510 821 l 578 244 l 644 821 l 844 821 l 722 0 l 497 0 l 429 415 l 361 0 l 136 0 m 400 882 l 240 1013 l 414 1013 l 517 882 l 400 882 z "},"X":{"ha":536,"x_min":11,"x_max":526,"o":"m 11 0 l 126 425 l 15 821 l 207 821 l 267 578 l 322 821 l 526 821 l 414 424 l 524 0 l 331 0 l 269 242 l 215 0 l 11 0 z "},"Y":{"ha":524,"x_min":10,"x_max":515,"o":"m 163 0 l 163 344 l 10 821 l 200 821 l 257 614 l 268 551 l 279 614 l 340 821 l 515 821 l 356 333 l 356 0 l 163 0 z "},"Ý":{"ha":524,"x_min":10,"x_max":515,"o":"m 163 0 l 163 344 l 10 821 l 200 821 l 257 614 l 268 551 l 279 614 l 340 821 l 515 821 l 356 333 l 356 0 l 163 0 m 179 882 l 288 1018 l 457 1018 l 285 882 l 179 882 z "},"Ѣ":{"ha":618,"x_min":22,"x_max":578,"o":"m 117 0 l 117 821 l 306 821 l 306 606 l 421 606 q 497 593 461 606 q 555 547 532 581 q 578 446 578 514 l 578 219 q 564 101 578 144 q 526 35 550 57 q 467 7 501 14 q 392 0 433 0 l 117 0 m 306 99 l 349 99 q 375 108 367 99 q 386 144 383 117 q 389 226 389 171 l 389 406 q 387 453 389 435 q 376 481 385 472 q 347 490 367 490 l 306 490 l 306 99 m 22 676 l 22 767 l 465 767 l 465 676 l 22 676 z "},"Ŷ":{"ha":524,"x_min":10,"x_max":515,"o":"m 163 0 l 163 344 l 10 821 l 200 821 l 257 614 l 268 551 l 279 614 l 340 821 l 515 821 l 356 333 l 356 0 l 163 0 m 81 876 l 218 1022 l 321 1022 l 460 878 l 343 878 l 271 942 l 200 876 l 81 876 z "},"Ÿ":{"ha":524,"x_min":10,"x_max":515,"o":"m 163 0 l 163 344 l 10 821 l 200 821 l 257 614 l 268 551 l 279 614 l 340 821 l 515 821 l 356 333 l 356 0 l 163 0 m 181 878 q 127 899 149 878 q 106 949 106 919 q 127 999 106 979 q 181 1019 149 1019 q 233 999 213 1019 q 254 949 254 979 q 233 899 254 919 q 181 878 213 878 m 361 878 q 308 899 329 878 q 286 949 286 919 q 308 999 286 979 q 361 1019 329 1019 q 414 999 393 1019 q 435 949 435 979 q 414 899 435 919 q 361 878 393 878 z "},"Ỵ":{"ha":524,"x_min":10,"x_max":515,"o":"m 163 0 l 163 344 l 10 821 l 200 821 l 257 614 l 268 551 l 279 614 l 340 821 l 515 821 l 356 333 l 356 0 l 163 0 m 261 -193 q 208 -172 229 -193 q 186 -121 186 -150 q 208 -69 186 -90 q 261 -47 229 -47 q 315 -69 292 -47 q 338 -121 338 -90 q 315 -172 338 -150 q 261 -193 292 -193 z "},"Ы":{"ha":810,"x_min":40,"x_max":769,"o":"m 40 0 l 40 821 l 229 821 l 229 606 l 344 606 q 420 593 385 606 q 478 547 456 581 q 501 446 501 514 l 501 219 q 488 101 501 144 q 449 35 474 57 q 391 7 425 14 q 315 0 357 0 l 40 0 m 229 99 l 272 99 q 299 108 290 99 q 310 144 307 117 q 313 226 313 171 l 313 406 q 310 453 313 435 q 299 481 307 472 q 271 490 290 490 l 229 490 l 229 99 m 578 0 l 578 821 l 769 821 l 769 0 l 578 0 z "},"Ỳ":{"ha":524,"x_min":10,"x_max":515,"o":"m 163 0 l 163 344 l 10 821 l 200 821 l 257 614 l 268 551 l 279 614 l 340 821 l 515 821 l 356 333 l 356 0 l 163 0 m 240 882 l 81 1013 l 254 1013 l 357 882 l 240 882 z "},"Ỷ":{"ha":524,"x_min":10,"x_max":515,"o":"m 163 0 l 163 344 l 10 821 l 200 821 l 257 614 l 268 551 l 279 614 l 340 821 l 515 821 l 356 333 l 356 0 l 163 0 m 217 871 l 217 886 q 231 917 217 907 q 260 938 246 928 q 274 963 274 947 l 274 971 q 269 990 274 981 q 254 1000 265 1000 q 233 971 235 1000 l 151 983 q 182 1046 154 1025 q 263 1067 210 1067 q 351 1051 321 1067 q 381 975 381 1035 l 381 969 q 365 926 381 938 q 333 908 349 914 q 317 885 317 901 l 317 871 l 217 871 z "},"Ї":{"ha":285,"x_min":-22,"x_max":307,"o":"m 46 0 l 46 821 l 239 821 l 239 0 l 46 0 m 53 878 q -1 899 21 878 q -22 949 -22 919 q -1 999 -22 979 q 53 1019 21 1019 q 106 999 85 1019 q 126 949 126 979 q 106 899 126 919 q 53 878 85 878 m 233 878 q 180 899 201 878 q 158 949 158 919 q 180 999 158 979 q 233 1019 201 1019 q 286 999 265 1019 q 307 949 307 979 q 286 899 307 919 q 233 878 265 878 z "},"Ỹ":{"ha":524,"x_min":10,"x_max":515,"o":"m 163 0 l 163 344 l 10 821 l 200 821 l 257 614 l 268 551 l 279 614 l 340 821 l 515 821 l 356 333 l 356 0 l 163 0 m 331 883 q 289 892 308 883 q 250 913 269 901 q 219 928 235 921 q 186 935 203 935 q 158 921 168 935 q 147 885 149 907 l 94 885 q 120 983 94 946 q 189 1019 146 1019 q 233 1012 213 1019 q 269 994 253 1004 q 301 979 286 986 q 332 972 317 972 q 363 985 353 972 q 375 1015 372 997 l 433 1015 q 416 943 432 972 q 377 899 400 914 q 331 883 354 883 z "},"Ѫ":{"ha":917,"x_min":31,"x_max":883,"o":"m 33 0 l 113 346 q 135 404 119 378 q 174 447 150 431 q 229 464 197 463 l 297 467 l 31 690 l 31 821 l 878 821 l 878 690 l 613 468 l 689 463 q 744 447 721 463 q 782 405 767 431 q 806 346 797 379 l 883 0 l 669 0 l 614 311 q 601 367 608 340 q 583 418 594 394 l 560 418 l 560 0 l 358 0 l 357 418 l 333 418 q 315 371 321 397 q 303 318 308 344 l 247 0 l 33 0 m 454 535 l 657 690 l 253 690 l 454 535 z "},"Z":{"ha":418,"x_min":17,"x_max":403,"o":"m 17 0 l 17 119 l 183 686 l 31 686 l 31 821 l 403 821 l 403 728 l 225 135 l 403 135 l 403 0 l 17 0 z "},"Ź":{"ha":418,"x_min":17,"x_max":410,"o":"m 17 0 l 17 119 l 183 686 l 31 686 l 31 821 l 403 821 l 403 728 l 225 135 l 403 135 l 403 0 l 17 0 m 132 882 l 240 1018 l 410 1018 l 238 882 l 132 882 z "},"Ž":{"ha":418,"x_min":17,"x_max":411,"o":"m 17 0 l 17 119 l 183 686 l 31 686 l 31 821 l 403 821 l 403 728 l 225 135 l 403 135 l 403 0 l 17 0 m 171 876 l 35 1021 l 153 1021 l 224 958 l 294 1019 l 410 1019 l 274 876 l 171 876 z "},"Ż":{"ha":418,"x_min":17,"x_max":403,"o":"m 17 0 l 17 119 l 183 686 l 31 686 l 31 821 l 403 821 l 403 728 l 225 135 l 403 135 l 403 0 l 17 0 m 243 879 q 177 906 204 879 q 149 969 150 932 q 177 1035 149 1008 q 244 1061 206 1061 q 311 1035 283 1061 q 339 969 339 1008 q 312 906 340 932 q 243 879 283 879 z "},"З":{"ha":571,"x_min":19,"x_max":510,"o":"m 264 -8 q 128 15 182 -8 q 47 83 74 38 q 19 192 19 128 l 19 292 l 213 292 l 213 250 q 222 158 213 189 q 263 128 232 128 q 299 153 289 128 q 310 217 310 178 l 310 297 q 283 350 310 336 q 200 365 256 364 l 140 365 l 140 468 l 201 468 q 247 473 226 468 q 279 488 267 478 q 303 511 297 497 q 310 542 310 525 l 310 601 q 299 663 310 638 q 263 688 289 688 q 222 657 231 688 q 214 568 214 626 l 214 542 l 21 542 l 21 626 q 81 774 21 724 q 264 824 142 824 q 453 780 396 824 q 510 643 510 736 l 510 571 q 474 458 510 501 q 368 411 439 415 q 473 367 436 408 q 510 256 510 326 l 510 192 q 485 76 510 119 q 406 12 460 32 q 264 -8 353 -8 z "},"Ж":{"ha":947,"x_min":22,"x_max":925,"o":"m 22 0 l 179 426 l 26 821 l 247 821 l 342 479 l 375 479 l 375 821 l 568 821 l 568 479 l 606 479 l 700 821 l 922 821 l 768 426 l 925 0 l 711 0 l 607 375 l 568 375 l 568 0 l 375 0 l 375 375 l 342 375 l 236 0 l 22 0 z "},"a":{"ha":519,"x_min":28,"x_max":485,"o":"m 165 -11 q 97 -1 128 -11 q 47 40 65 10 q 28 128 28 69 l 28 231 q 65 333 28 293 q 186 401 101 372 q 251 430 228 418 q 283 460 274 442 q 293 514 293 479 l 293 556 q 288 581 293 571 q 274 596 283 590 q 253 601 265 601 q 221 581 229 601 q 213 507 213 560 l 213 449 l 42 449 l 42 525 q 57 616 42 576 q 117 678 72 656 q 253 701 163 701 q 394 687 344 701 q 465 637 444 672 q 485 540 485 601 l 485 0 l 296 0 l 296 72 q 248 12 286 35 q 165 -11 210 -11 m 249 113 q 283 134 275 113 q 292 199 292 156 l 292 356 q 273 338 288 346 q 246 321 258 331 q 219 293 228 307 q 210 253 210 279 l 210 175 q 214 140 210 154 q 226 119 218 126 q 249 113 235 113 z "},"а":{"ha":519,"x_min":28,"x_max":485,"o":"m 165 -11 q 97 -1 128 -11 q 47 40 65 10 q 28 128 28 69 l 28 231 q 65 333 28 293 q 186 401 101 372 q 251 430 228 418 q 283 460 274 442 q 293 514 293 479 l 293 556 q 288 581 293 571 q 274 596 283 590 q 253 601 265 601 q 221 581 229 601 q 213 507 213 560 l 213 449 l 42 449 l 42 525 q 57 616 42 576 q 117 678 72 656 q 253 701 163 701 q 394 687 344 701 q 465 637 444 672 q 485 540 485 601 l 485 0 l 296 0 l 296 72 q 248 12 286 35 q 165 -11 210 -11 m 249 113 q 283 134 275 113 q 292 199 292 156 l 292 356 q 273 338 288 346 q 246 321 258 331 q 219 293 228 307 q 210 253 210 279 l 210 175 q 214 140 210 154 q 226 119 218 126 q 249 113 235 113 z "},"á":{"ha":519,"x_min":28,"x_max":485,"o":"m 165 -11 q 97 -1 128 -11 q 47 40 65 10 q 28 128 28 69 l 28 231 q 65 333 28 293 q 186 401 101 372 q 251 430 228 418 q 283 460 274 442 q 293 514 293 479 l 293 556 q 288 581 293 571 q 274 596 283 590 q 253 601 265 601 q 221 581 229 601 q 213 507 213 560 l 213 449 l 42 449 l 42 525 q 57 616 42 576 q 117 678 72 656 q 253 701 163 701 q 394 687 344 701 q 465 637 444 672 q 485 540 485 601 l 485 0 l 296 0 l 296 72 q 248 12 286 35 q 165 -11 210 -11 m 249 113 q 283 134 275 113 q 292 199 292 156 l 292 356 q 273 338 288 346 q 246 321 258 331 q 219 293 228 307 q 210 253 210 279 l 210 175 q 214 140 210 154 q 226 119 218 126 q 249 113 235 113 m 189 763 l 269 906 l 447 906 l 307 763 l 189 763 z "},"ă":{"ha":519,"x_min":28,"x_max":485,"o":"m 165 -11 q 97 -1 128 -11 q 47 40 65 10 q 28 128 28 69 l 28 231 q 65 333 28 293 q 186 401 101 372 q 251 430 228 418 q 283 460 274 442 q 293 514 293 479 l 293 556 q 288 581 293 571 q 274 596 283 590 q 253 601 265 601 q 221 581 229 601 q 213 507 213 560 l 213 449 l 42 449 l 42 525 q 57 616 42 576 q 117 678 72 656 q 253 701 163 701 q 394 687 344 701 q 465 637 444 672 q 485 540 485 601 l 485 0 l 296 0 l 296 72 q 248 12 286 35 q 165 -11 210 -11 m 249 113 q 283 134 275 113 q 292 199 292 156 l 292 356 q 273 338 288 346 q 246 321 258 331 q 219 293 228 307 q 210 253 210 279 l 210 175 q 214 140 210 154 q 226 119 218 126 q 249 113 235 113 m 263 757 q 159 782 194 757 q 112 841 124 807 q 100 901 100 875 l 200 901 q 221 860 201 874 q 264 846 240 846 q 309 859 290 846 q 329 901 328 872 l 432 901 q 414 830 431 863 q 360 777 397 797 q 263 757 324 757 z "},"ắ":{"ha":519,"x_min":28,"x_max":485,"o":"m 165 -11 q 97 -1 128 -11 q 47 40 65 10 q 28 128 28 69 l 28 231 q 65 333 28 293 q 186 401 101 372 q 251 430 228 418 q 283 460 274 442 q 293 514 293 479 l 293 556 q 288 581 293 571 q 274 596 283 590 q 253 601 265 601 q 221 581 229 601 q 213 507 213 560 l 213 449 l 42 449 l 42 525 q 57 616 42 576 q 117 678 72 656 q 253 701 163 701 q 394 687 344 701 q 465 637 444 672 q 485 540 485 601 l 485 0 l 296 0 l 296 72 q 248 12 286 35 q 165 -11 210 -11 m 249 113 q 283 134 275 113 q 292 199 292 156 l 292 356 q 273 338 288 346 q 246 321 258 331 q 219 293 228 307 q 210 253 210 279 l 210 175 q 214 140 210 154 q 226 119 218 126 q 249 113 235 113 m 263 757 q 159 782 194 757 q 112 841 124 807 q 100 901 100 875 l 200 901 q 221 860 201 874 q 264 846 240 846 q 309 859 290 846 q 329 901 328 872 l 432 901 q 414 830 431 863 q 360 777 397 797 q 263 757 324 757 m 189 935 l 269 1078 l 447 1078 l 307 935 l 189 935 z "},"ặ":{"ha":519,"x_min":28,"x_max":485,"o":"m 165 -11 q 97 -1 128 -11 q 47 40 65 10 q 28 128 28 69 l 28 231 q 65 333 28 293 q 186 401 101 372 q 251 430 228 418 q 283 460 274 442 q 293 514 293 479 l 293 556 q 288 581 293 571 q 274 596 283 590 q 253 601 265 601 q 221 581 229 601 q 213 507 213 560 l 213 449 l 42 449 l 42 525 q 57 616 42 576 q 117 678 72 656 q 253 701 163 701 q 394 687 344 701 q 465 637 444 672 q 485 540 485 601 l 485 0 l 296 0 l 296 72 q 248 12 286 35 q 165 -11 210 -11 m 249 113 q 283 134 275 113 q 292 199 292 156 l 292 356 q 273 338 288 346 q 246 321 258 331 q 219 293 228 307 q 210 253 210 279 l 210 175 q 214 140 210 154 q 226 119 218 126 q 249 113 235 113 m 260 -193 q 206 -172 228 -193 q 185 -121 185 -150 q 206 -69 185 -90 q 260 -47 228 -47 q 313 -69 290 -47 q 336 -121 336 -90 q 313 -172 336 -150 q 260 -193 290 -193 m 263 757 q 159 782 194 757 q 112 841 124 807 q 100 901 100 875 l 200 901 q 221 860 201 874 q 264 846 240 846 q 309 859 290 846 q 329 901 328 872 l 432 901 q 414 830 431 863 q 360 777 397 797 q 263 757 324 757 z "},"ằ":{"ha":519,"x_min":28,"x_max":485,"o":"m 165 -11 q 97 -1 128 -11 q 47 40 65 10 q 28 128 28 69 l 28 231 q 65 333 28 293 q 186 401 101 372 q 251 430 228 418 q 283 460 274 442 q 293 514 293 479 l 293 556 q 288 581 293 571 q 274 596 283 590 q 253 601 265 601 q 221 581 229 601 q 213 507 213 560 l 213 449 l 42 449 l 42 525 q 57 616 42 576 q 117 678 72 656 q 253 701 163 701 q 394 687 344 701 q 465 637 444 672 q 485 540 485 601 l 485 0 l 296 0 l 296 72 q 248 12 286 35 q 165 -11 210 -11 m 249 113 q 283 134 275 113 q 292 199 292 156 l 292 356 q 273 338 288 346 q 246 321 258 331 q 219 293 228 307 q 210 253 210 279 l 210 175 q 214 140 210 154 q 226 119 218 126 q 249 113 235 113 m 263 757 q 159 782 194 757 q 112 841 124 807 q 100 901 100 875 l 200 901 q 221 860 201 874 q 264 846 240 846 q 309 859 290 846 q 329 901 328 872 l 432 901 q 414 830 431 863 q 360 777 397 797 q 263 757 324 757 m 233 935 l 93 1078 l 272 1078 l 351 935 l 233 935 z "},"ẳ":{"ha":519,"x_min":28,"x_max":485,"o":"m 165 -11 q 97 -1 128 -11 q 47 40 65 10 q 28 128 28 69 l 28 231 q 65 333 28 293 q 186 401 101 372 q 251 430 228 418 q 283 460 274 442 q 293 514 293 479 l 293 556 q 288 581 293 571 q 274 596 283 590 q 253 601 265 601 q 221 581 229 601 q 213 507 213 560 l 213 449 l 42 449 l 42 525 q 57 616 42 576 q 117 678 72 656 q 253 701 163 701 q 394 687 344 701 q 465 637 444 672 q 485 540 485 601 l 485 0 l 296 0 l 296 72 q 248 12 286 35 q 165 -11 210 -11 m 249 113 q 283 134 275 113 q 292 199 292 156 l 292 356 q 273 338 288 346 q 246 321 258 331 q 219 293 228 307 q 210 253 210 279 l 210 175 q 214 140 210 154 q 226 119 218 126 q 249 113 235 113 m 263 757 q 159 782 194 757 q 112 841 124 807 q 100 901 100 875 l 200 901 q 221 860 201 874 q 264 846 240 846 q 309 859 290 846 q 329 901 328 872 l 432 901 q 414 830 431 863 q 360 777 397 797 q 263 757 324 757 m 213 935 l 213 950 q 227 981 213 971 q 256 1001 242 992 q 269 1026 269 1011 l 269 1035 q 265 1054 269 1044 q 250 1064 261 1064 q 229 1035 231 1064 l 147 1047 q 178 1110 150 1089 q 258 1131 206 1131 q 347 1115 317 1131 q 376 1039 376 1099 l 376 1033 q 360 990 376 1001 q 328 972 344 978 q 313 949 313 965 l 313 935 l 213 935 z "},"ẵ":{"ha":519,"x_min":28,"x_max":485,"o":"m 165 -11 q 97 -1 128 -11 q 47 40 65 10 q 28 128 28 69 l 28 231 q 65 333 28 293 q 186 401 101 372 q 251 430 228 418 q 283 460 274 442 q 293 514 293 479 l 293 556 q 288 581 293 571 q 274 596 283 590 q 253 601 265 601 q 221 581 229 601 q 213 507 213 560 l 213 449 l 42 449 l 42 525 q 57 616 42 576 q 117 678 72 656 q 253 701 163 701 q 394 687 344 701 q 465 637 444 672 q 485 540 485 601 l 485 0 l 296 0 l 296 72 q 248 12 286 35 q 165 -11 210 -11 m 249 113 q 283 134 275 113 q 292 199 292 156 l 292 356 q 273 338 288 346 q 246 321 258 331 q 219 293 228 307 q 210 253 210 279 l 210 175 q 214 140 210 154 q 226 119 218 126 q 249 113 235 113 m 263 757 q 159 782 194 757 q 112 841 124 807 q 100 901 100 875 l 200 901 q 221 860 201 874 q 264 846 240 846 q 309 859 290 846 q 329 901 328 872 l 432 901 q 414 830 431 863 q 360 777 397 797 q 263 757 324 757 m 332 935 q 290 944 310 935 q 251 964 271 953 q 220 979 236 972 q 188 986 204 986 q 160 972 169 986 q 149 936 150 958 l 96 936 q 122 1034 96 997 q 190 1071 147 1071 q 234 1063 214 1071 q 271 1046 254 1056 q 303 1031 288 1038 q 333 1024 318 1024 q 364 1036 354 1024 q 376 1067 374 1049 l 435 1067 q 417 994 433 1024 q 378 950 401 965 q 332 935 356 935 z "},"ǎ":{"ha":519,"x_min":28,"x_max":485,"o":"m 165 -11 q 97 -1 128 -11 q 47 40 65 10 q 28 128 28 69 l 28 231 q 65 333 28 293 q 186 401 101 372 q 251 430 228 418 q 283 460 274 442 q 293 514 293 479 l 293 556 q 288 581 293 571 q 274 596 283 590 q 253 601 265 601 q 221 581 229 601 q 213 507 213 560 l 213 449 l 42 449 l 42 525 q 57 616 42 576 q 117 678 72 656 q 253 701 163 701 q 394 687 344 701 q 465 637 444 672 q 485 540 485 601 l 485 0 l 296 0 l 296 72 q 248 12 286 35 q 165 -11 210 -11 m 249 113 q 283 134 275 113 q 292 199 292 156 l 292 356 q 273 338 288 346 q 246 321 258 331 q 219 293 228 307 q 210 253 210 279 l 210 175 q 214 140 210 154 q 226 119 218 126 q 249 113 235 113 m 213 757 l 78 911 l 192 911 l 267 836 l 342 911 l 451 911 l 315 757 l 213 757 z "},"â":{"ha":519,"x_min":28,"x_max":485,"o":"m 165 -11 q 97 -1 128 -11 q 47 40 65 10 q 28 128 28 69 l 28 231 q 65 333 28 293 q 186 401 101 372 q 251 430 228 418 q 283 460 274 442 q 293 514 293 479 l 293 556 q 288 581 293 571 q 274 596 283 590 q 253 601 265 601 q 221 581 229 601 q 213 507 213 560 l 213 449 l 42 449 l 42 525 q 57 616 42 576 q 117 678 72 656 q 253 701 163 701 q 394 687 344 701 q 465 637 444 672 q 485 540 485 601 l 485 0 l 296 0 l 296 72 q 248 12 286 35 q 165 -11 210 -11 m 249 113 q 283 134 275 113 q 292 199 292 156 l 292 356 q 273 338 288 346 q 246 321 258 331 q 219 293 228 307 q 210 253 210 279 l 210 175 q 214 140 210 154 q 226 119 218 126 q 249 113 235 113 m 79 757 l 214 911 l 317 911 l 453 757 l 342 757 l 267 832 l 192 757 l 79 757 z "},"ấ":{"ha":519,"x_min":28,"x_max":701,"o":"m 165 -11 q 97 -1 128 -11 q 47 40 65 10 q 28 128 28 69 l 28 231 q 65 333 28 293 q 186 401 101 372 q 251 430 228 418 q 283 460 274 442 q 293 514 293 479 l 293 556 q 288 581 293 571 q 274 596 283 590 q 253 601 265 601 q 221 581 229 601 q 213 507 213 560 l 213 449 l 42 449 l 42 525 q 57 616 42 576 q 117 678 72 656 q 253 701 163 701 q 394 687 344 701 q 465 637 444 672 q 485 540 485 601 l 485 0 l 296 0 l 296 72 q 248 12 286 35 q 165 -11 210 -11 m 249 113 q 283 134 275 113 q 292 199 292 156 l 292 356 q 273 338 288 346 q 246 321 258 331 q 219 293 228 307 q 210 253 210 279 l 210 175 q 214 140 210 154 q 226 119 218 126 q 249 113 235 113 m 79 757 l 214 911 l 317 911 l 453 757 l 342 757 l 267 832 l 192 757 l 79 757 m 443 839 l 524 982 l 701 982 l 561 839 l 443 839 z "},"ậ":{"ha":519,"x_min":28,"x_max":485,"o":"m 165 -11 q 97 -1 128 -11 q 47 40 65 10 q 28 128 28 69 l 28 231 q 65 333 28 293 q 186 401 101 372 q 251 430 228 418 q 283 460 274 442 q 293 514 293 479 l 293 556 q 288 581 293 571 q 274 596 283 590 q 253 601 265 601 q 221 581 229 601 q 213 507 213 560 l 213 449 l 42 449 l 42 525 q 57 616 42 576 q 117 678 72 656 q 253 701 163 701 q 394 687 344 701 q 465 637 444 672 q 485 540 485 601 l 485 0 l 296 0 l 296 72 q 248 12 286 35 q 165 -11 210 -11 m 249 113 q 283 134 275 113 q 292 199 292 156 l 292 356 q 273 338 288 346 q 246 321 258 331 q 219 293 228 307 q 210 253 210 279 l 210 175 q 214 140 210 154 q 226 119 218 126 q 249 113 235 113 m 260 -193 q 206 -172 228 -193 q 185 -121 185 -150 q 206 -69 185 -90 q 260 -47 228 -47 q 313 -69 290 -47 q 336 -121 336 -90 q 313 -172 336 -150 q 260 -193 290 -193 m 79 757 l 214 911 l 317 911 l 453 757 l 342 757 l 267 832 l 192 757 l 79 757 z "},"ầ":{"ha":519,"x_min":28,"x_max":606,"o":"m 165 -11 q 97 -1 128 -11 q 47 40 65 10 q 28 128 28 69 l 28 231 q 65 333 28 293 q 186 401 101 372 q 251 430 228 418 q 283 460 274 442 q 293 514 293 479 l 293 556 q 288 581 293 571 q 274 596 283 590 q 253 601 265 601 q 221 581 229 601 q 213 507 213 560 l 213 449 l 42 449 l 42 525 q 57 616 42 576 q 117 678 72 656 q 253 701 163 701 q 394 687 344 701 q 465 637 444 672 q 485 540 485 601 l 485 0 l 296 0 l 296 72 q 248 12 286 35 q 165 -11 210 -11 m 249 113 q 283 134 275 113 q 292 199 292 156 l 292 356 q 273 338 288 346 q 246 321 258 331 q 219 293 228 307 q 210 253 210 279 l 210 175 q 214 140 210 154 q 226 119 218 126 q 249 113 235 113 m 79 757 l 214 911 l 317 911 l 453 757 l 342 757 l 267 832 l 192 757 l 79 757 m 488 839 l 347 982 l 526 982 l 606 839 l 488 839 z "},"ẩ":{"ha":519,"x_min":28,"x_max":631,"o":"m 165 -11 q 97 -1 128 -11 q 47 40 65 10 q 28 128 28 69 l 28 231 q 65 333 28 293 q 186 401 101 372 q 251 430 228 418 q 283 460 274 442 q 293 514 293 479 l 293 556 q 288 581 293 571 q 274 596 283 590 q 253 601 265 601 q 221 581 229 601 q 213 507 213 560 l 213 449 l 42 449 l 42 525 q 57 616 42 576 q 117 678 72 656 q 253 701 163 701 q 394 687 344 701 q 465 637 444 672 q 485 540 485 601 l 485 0 l 296 0 l 296 72 q 248 12 286 35 q 165 -11 210 -11 m 249 113 q 283 134 275 113 q 292 199 292 156 l 292 356 q 273 338 288 346 q 246 321 258 331 q 219 293 228 307 q 210 253 210 279 l 210 175 q 214 140 210 154 q 226 119 218 126 q 249 113 235 113 m 79 757 l 214 911 l 317 911 l 453 757 l 342 757 l 267 832 l 192 757 l 79 757 m 467 839 l 467 854 q 481 885 467 875 q 510 906 496 896 q 524 931 524 915 l 524 939 q 519 958 524 949 q 504 968 515 968 q 483 939 485 968 l 401 951 q 432 1014 404 993 q 513 1035 460 1035 q 601 1019 571 1035 q 631 943 631 1003 l 631 938 q 615 894 631 906 q 583 876 599 882 q 567 853 567 869 l 567 839 l 467 839 z "},"ẫ":{"ha":519,"x_min":28,"x_max":485,"o":"m 165 -11 q 97 -1 128 -11 q 47 40 65 10 q 28 128 28 69 l 28 231 q 65 333 28 293 q 186 401 101 372 q 251 430 228 418 q 283 460 274 442 q 293 514 293 479 l 293 556 q 288 581 293 571 q 274 596 283 590 q 253 601 265 601 q 221 581 229 601 q 213 507 213 560 l 213 449 l 42 449 l 42 525 q 57 616 42 576 q 117 678 72 656 q 253 701 163 701 q 394 687 344 701 q 465 637 444 672 q 485 540 485 601 l 485 0 l 296 0 l 296 72 q 248 12 286 35 q 165 -11 210 -11 m 249 113 q 283 134 275 113 q 292 199 292 156 l 292 356 q 273 338 288 346 q 246 321 258 331 q 219 293 228 307 q 210 253 210 279 l 210 175 q 214 140 210 154 q 226 119 218 126 q 249 113 235 113 m 79 757 l 214 911 l 317 911 l 453 757 l 342 757 l 267 832 l 192 757 l 79 757 m 333 944 q 292 953 311 944 q 253 974 272 963 q 222 989 238 982 q 189 996 206 996 q 161 982 171 996 q 150 946 151 968 l 97 946 q 123 1044 97 1007 q 192 1081 149 1081 q 235 1073 215 1081 q 272 1056 256 1065 q 304 1040 289 1047 q 335 1033 319 1033 q 365 1046 356 1033 q 378 1076 375 1058 l 436 1076 q 419 1004 435 1033 q 380 960 403 975 q 333 944 357 944 z "},"´":{"ha":286,"x_min":0,"x_max":258,"o":"m 0 763 l 81 906 l 258 906 l 118 763 l 0 763 z "},"́":{"ha":0,"x_min":0,"x_max":258,"o":"m 0 763 l 81 906 l 258 906 l 118 763 l 0 763 z "},"ä":{"ha":519,"x_min":28,"x_max":485,"o":"m 165 -11 q 97 -1 128 -11 q 47 40 65 10 q 28 128 28 69 l 28 231 q 65 333 28 293 q 186 401 101 372 q 251 430 228 418 q 283 460 274 442 q 293 514 293 479 l 293 556 q 288 581 293 571 q 274 596 283 590 q 253 601 265 601 q 221 581 229 601 q 213 507 213 560 l 213 449 l 42 449 l 42 525 q 57 616 42 576 q 117 678 72 656 q 253 701 163 701 q 394 687 344 701 q 465 637 444 672 q 485 540 485 601 l 485 0 l 296 0 l 296 72 q 248 12 286 35 q 165 -11 210 -11 m 249 113 q 283 134 275 113 q 292 199 292 156 l 292 356 q 273 338 288 346 q 246 321 258 331 q 219 293 228 307 q 210 253 210 279 l 210 175 q 214 140 210 154 q 226 119 218 126 q 249 113 235 113 m 175 758 q 122 779 143 758 q 100 829 100 800 q 122 880 100 860 q 175 900 143 900 q 228 880 207 900 q 249 829 249 860 q 228 779 249 800 q 175 758 207 758 m 356 758 q 302 779 324 758 q 281 829 281 800 q 302 880 281 860 q 356 900 324 900 q 408 880 388 900 q 429 829 429 860 q 408 779 429 800 q 356 758 388 758 z "},"ạ":{"ha":519,"x_min":28,"x_max":485,"o":"m 165 -11 q 97 -1 128 -11 q 47 40 65 10 q 28 128 28 69 l 28 231 q 65 333 28 293 q 186 401 101 372 q 251 430 228 418 q 283 460 274 442 q 293 514 293 479 l 293 556 q 288 581 293 571 q 274 596 283 590 q 253 601 265 601 q 221 581 229 601 q 213 507 213 560 l 213 449 l 42 449 l 42 525 q 57 616 42 576 q 117 678 72 656 q 253 701 163 701 q 394 687 344 701 q 465 637 444 672 q 485 540 485 601 l 485 0 l 296 0 l 296 72 q 248 12 286 35 q 165 -11 210 -11 m 249 113 q 283 134 275 113 q 292 199 292 156 l 292 356 q 273 338 288 346 q 246 321 258 331 q 219 293 228 307 q 210 253 210 279 l 210 175 q 214 140 210 154 q 226 119 218 126 q 249 113 235 113 m 260 -193 q 206 -172 228 -193 q 185 -121 185 -150 q 206 -69 185 -90 q 260 -47 228 -47 q 313 -69 290 -47 q 336 -121 336 -90 q 313 -172 336 -150 q 260 -193 290 -193 z "},"æ":{"ha":781,"x_min":28,"x_max":754,"o":"m 165 -8 q 125 -6 149 -8 q 79 8 101 -4 q 42 48 57 19 q 28 129 28 76 l 28 232 q 70 339 28 303 q 181 400 113 375 q 247 426 222 415 q 282 457 271 438 q 293 511 293 476 l 293 556 q 288 581 293 571 q 274 596 283 590 q 253 601 265 601 q 221 581 229 601 q 213 507 213 560 l 213 449 l 42 449 l 42 525 q 57 616 42 576 q 117 678 72 656 q 253 701 163 701 q 372 683 329 701 q 432 628 415 664 q 449 540 449 592 l 449 13 l 333 110 q 263 17 310 42 q 165 -8 215 -8 m 249 113 q 283 134 275 113 q 292 199 292 156 l 292 356 q 272 338 288 346 q 244 319 257 331 q 219 292 228 306 q 210 254 210 279 l 210 176 q 214 141 210 156 q 226 119 218 126 q 249 113 235 113 m 525 -3 q 438 3 476 -3 q 374 31 400 10 q 333 97 347 51 q 319 221 319 143 l 319 521 q 372 649 319 599 q 525 699 425 699 q 696 660 638 699 q 754 521 754 622 l 754 329 l 485 329 l 485 140 q 489 106 485 119 q 502 88 493 93 q 525 83 511 83 q 548 89 539 83 q 561 108 557 94 q 565 142 565 121 l 565 258 l 754 258 l 754 224 q 739 99 754 144 q 694 31 724 53 q 622 3 664 10 q 525 -3 579 -3 m 485 413 l 565 413 l 565 544 q 556 588 565 575 q 525 601 547 601 q 494 588 504 601 q 485 544 485 575 l 485 413 z "},"à":{"ha":519,"x_min":28,"x_max":485,"o":"m 165 -11 q 97 -1 128 -11 q 47 40 65 10 q 28 128 28 69 l 28 231 q 65 333 28 293 q 186 401 101 372 q 251 430 228 418 q 283 460 274 442 q 293 514 293 479 l 293 556 q 288 581 293 571 q 274 596 283 590 q 253 601 265 601 q 221 581 229 601 q 213 507 213 560 l 213 449 l 42 449 l 42 525 q 57 616 42 576 q 117 678 72 656 q 253 701 163 701 q 394 687 344 701 q 465 637 444 672 q 485 540 485 601 l 485 0 l 296 0 l 296 72 q 248 12 286 35 q 165 -11 210 -11 m 249 113 q 283 134 275 113 q 292 199 292 156 l 292 356 q 273 338 288 346 q 246 321 258 331 q 219 293 228 307 q 210 253 210 279 l 210 175 q 214 140 210 154 q 226 119 218 126 q 249 113 235 113 m 233 763 l 93 906 l 272 906 l 351 763 l 233 763 z "},"ả":{"ha":519,"x_min":28,"x_max":485,"o":"m 165 -11 q 97 -1 128 -11 q 47 40 65 10 q 28 128 28 69 l 28 231 q 65 333 28 293 q 186 401 101 372 q 251 430 228 418 q 283 460 274 442 q 293 514 293 479 l 293 556 q 288 581 293 571 q 274 596 283 590 q 253 601 265 601 q 221 581 229 601 q 213 507 213 560 l 213 449 l 42 449 l 42 525 q 57 616 42 576 q 117 678 72 656 q 253 701 163 701 q 394 687 344 701 q 465 637 444 672 q 485 540 485 601 l 485 0 l 296 0 l 296 72 q 248 12 286 35 q 165 -11 210 -11 m 249 113 q 283 134 275 113 q 292 199 292 156 l 292 356 q 273 338 288 346 q 246 321 258 331 q 219 293 228 307 q 210 253 210 279 l 210 175 q 214 140 210 154 q 226 119 218 126 q 249 113 235 113 m 214 763 l 214 778 q 228 809 214 799 q 257 829 243 819 q 271 854 271 839 l 271 863 q 267 882 271 872 q 251 892 263 892 q 231 863 232 892 l 149 875 q 179 938 151 917 q 260 958 207 958 q 348 942 318 958 q 378 867 378 926 l 378 861 q 362 817 378 829 q 330 799 346 806 q 314 776 314 793 l 314 763 l 214 763 z "},"ā":{"ha":519,"x_min":28,"x_max":485,"o":"m 165 -11 q 97 -1 128 -11 q 47 40 65 10 q 28 128 28 69 l 28 231 q 65 333 28 293 q 186 401 101 372 q 251 430 228 418 q 283 460 274 442 q 293 514 293 479 l 293 556 q 288 581 293 571 q 274 596 283 590 q 253 601 265 601 q 221 581 229 601 q 213 507 213 560 l 213 449 l 42 449 l 42 525 q 57 616 42 576 q 117 678 72 656 q 253 701 163 701 q 394 687 344 701 q 465 637 444 672 q 485 540 485 601 l 485 0 l 296 0 l 296 72 q 248 12 286 35 q 165 -11 210 -11 m 249 113 q 283 134 275 113 q 292 199 292 156 l 292 356 q 273 338 288 346 q 246 321 258 331 q 219 293 228 307 q 210 253 210 279 l 210 175 q 214 140 210 154 q 226 119 218 126 q 249 113 235 113 m 117 775 l 117 869 l 414 869 l 414 775 l 117 775 z "},"&":{"ha":633,"x_min":33,"x_max":599,"o":"m 257 -4 q 135 24 185 -4 q 59 103 85 51 q 33 225 33 154 q 60 335 33 285 q 142 396 88 385 q 117 460 126 425 q 110 540 107 496 q 158 664 115 621 q 290 707 201 707 q 379 701 335 707 q 458 687 424 694 q 506 674 493 679 l 506 538 q 477 545 503 539 q 415 556 451 551 q 343 561 379 561 q 301 549 317 561 q 279 518 285 538 q 278 476 274 499 q 297 432 283 454 q 310 413 303 424 q 327 390 318 401 q 345 366 336 378 q 363 344 354 354 q 379 326 372 335 l 381 440 l 599 440 l 599 324 l 501 324 q 501 290 501 306 q 498 258 500 274 q 494 228 496 243 q 549 192 518 210 q 599 165 579 174 l 599 -3 q 519 21 567 -3 q 429 75 471 44 q 385 30 411 47 q 326 4 358 13 q 257 -4 294 -4 m 265 125 q 305 134 289 125 q 329 158 321 143 q 261 228 294 192 q 204 300 228 265 q 187 279 193 292 q 181 244 181 267 q 201 157 176 189 q 265 125 226 125 z "},"ą":{"ha":519,"x_min":28,"x_max":514,"o":"m 165 -11 q 97 -1 128 -11 q 47 40 65 10 q 28 128 28 69 l 28 231 q 65 333 28 293 q 186 401 101 372 q 251 430 228 418 q 283 460 274 442 q 293 514 293 479 l 293 556 q 288 581 293 571 q 274 596 283 590 q 253 601 265 601 q 221 581 229 601 q 213 507 213 560 l 213 449 l 42 449 l 42 525 q 57 616 42 576 q 117 678 72 656 q 253 701 163 701 q 394 687 344 701 q 465 637 444 672 q 485 540 485 601 l 485 0 l 296 0 l 296 72 q 248 12 286 35 q 165 -11 210 -11 m 249 113 q 283 134 275 113 q 292 199 292 156 l 292 356 q 273 338 288 346 q 246 321 258 331 q 219 293 228 307 q 210 253 210 279 l 210 175 q 214 140 210 154 q 226 119 218 126 q 249 113 235 113 m 415 -206 q 326 -177 360 -206 q 293 -114 293 -149 q 326 -40 293 -75 q 411 3 358 -4 l 485 0 q 430 -37 447 -11 q 413 -87 413 -62 q 430 -126 413 -112 q 465 -140 447 -140 q 482 -138 475 -140 q 492 -135 489 -136 l 514 -182 q 484 -196 506 -186 q 415 -206 463 -206 z "},"≈":{"ha":749,"x_min":46,"x_max":703,"o":"m 511 414 q 417 433 461 417 q 328 465 372 449 q 229 485 283 482 q 167 465 190 486 q 140 415 143 443 l 46 415 q 69 510 46 467 q 135 579 92 553 q 236 603 178 606 q 328 586 285 601 q 413 556 371 571 q 500 539 456 542 q 572 556 553 536 q 597 599 592 576 l 703 599 q 672 480 701 521 q 599 425 643 439 q 511 414 556 411 m 511 117 q 417 135 461 119 q 328 169 372 151 q 229 188 283 186 q 167 168 190 190 q 140 119 143 146 l 46 119 q 69 213 46 169 q 135 282 92 256 q 236 307 178 308 q 328 290 285 306 q 413 260 371 275 q 500 243 456 244 q 572 260 553 240 q 597 303 592 279 l 703 303 q 672 183 701 225 q 599 128 643 142 q 511 117 556 115 z "},"å":{"ha":519,"x_min":28,"x_max":485,"o":"m 165 -11 q 97 -1 128 -11 q 47 40 65 10 q 28 128 28 69 l 28 231 q 65 333 28 293 q 186 401 101 372 q 251 430 228 418 q 283 460 274 442 q 293 514 293 479 l 293 556 q 288 581 293 571 q 274 596 283 590 q 253 601 265 601 q 221 581 229 601 q 213 507 213 560 l 213 449 l 42 449 l 42 525 q 57 616 42 576 q 117 678 72 656 q 253 701 163 701 q 394 687 344 701 q 465 637 444 672 q 485 540 485 601 l 485 0 l 296 0 l 296 72 q 248 12 286 35 q 165 -11 210 -11 m 249 113 q 283 134 275 113 q 292 199 292 156 l 292 356 q 273 338 288 346 q 246 321 258 331 q 219 293 228 307 q 210 253 210 279 l 210 175 q 214 140 210 154 q 226 119 218 126 q 249 113 235 113 m 265 750 q 176 784 211 750 q 140 867 140 818 q 176 952 140 918 q 265 986 211 986 q 353 951 317 986 q 390 867 390 917 q 353 784 390 818 q 265 750 315 750 m 265 824 q 299 836 286 824 q 313 867 313 849 q 299 901 313 889 q 265 914 286 914 q 231 901 244 914 q 217 867 217 889 q 231 836 217 849 q 265 824 244 824 z "},"^":{"ha":599,"x_min":46,"x_max":553,"o":"m 46 688 l 254 986 l 346 986 l 553 688 l 403 688 l 301 844 l 200 688 l 46 688 z "},"~":{"ha":749,"x_min":46,"x_max":703,"o":"m 511 704 q 417 723 461 707 q 328 756 372 739 q 229 775 283 772 q 167 756 190 778 q 140 707 143 733 l 46 707 q 69 801 46 758 q 135 871 92 844 q 236 894 178 897 q 328 878 285 893 q 413 847 371 863 q 500 829 456 832 q 572 847 553 828 q 597 890 592 867 l 703 890 q 672 771 701 811 q 599 717 643 731 q 511 704 556 704 z "},"*":{"ha":819,"x_min":51,"x_max":724,"o":"m 272 108 l 132 213 l 336 406 l 51 426 l 114 615 l 357 464 l 297 742 l 478 742 l 422 465 l 667 610 l 724 436 l 443 406 l 653 214 l 508 113 l 390 367 l 272 108 z "},"@":{"ha":1040,"x_min":65,"x_max":965,"o":"m 499 -94 q 236 -43 331 -94 q 103 108 142 8 q 65 349 65 207 q 170 698 65 574 q 508 824 275 822 q 742 783 639 825 q 906 649 846 740 q 965 411 965 558 q 938 225 965 297 q 864 118 910 153 q 763 83 818 83 q 683 101 721 83 q 621 153 646 118 q 592 238 596 188 l 632 224 q 572 132 611 160 q 469 104 533 104 q 362 140 403 104 q 321 258 321 175 q 330 326 321 297 q 372 381 339 356 q 483 425 406 406 q 539 449 518 433 q 563 476 560 465 q 565 494 564 485 q 567 513 567 503 q 557 554 567 543 q 517 565 547 565 q 474 551 486 565 q 463 503 463 538 l 463 461 l 335 461 l 335 510 q 348 588 335 558 q 400 630 361 617 q 515 643 439 643 q 638 627 596 643 q 694 578 679 611 q 710 494 710 546 l 710 260 q 731 177 710 200 q 785 154 753 154 q 828 175 808 154 q 860 247 849 196 q 871 389 871 299 q 833 581 871 500 q 716 706 794 663 q 517 749 638 749 q 317 711 396 749 q 199 585 238 674 q 161 347 161 497 q 186 162 161 233 q 258 52 211 90 q 369 -2 304 14 q 515 -19 435 -18 q 590 -17 543 -21 q 690 -5 638 -12 q 788 14 743 3 q 853 38 832 25 l 853 -33 q 774 -60 826 -44 q 651 -85 721 -75 q 499 -94 581 -94 m 511 203 q 552 215 539 203 q 570 242 565 228 q 575 268 575 257 l 575 375 q 528 367 550 374 q 493 351 507 360 q 470 333 479 343 q 456 309 461 324 q 451 274 451 294 q 461 222 451 240 q 511 203 471 203 z "},"ã":{"ha":519,"x_min":28,"x_max":485,"o":"m 165 -11 q 97 -1 128 -11 q 47 40 65 10 q 28 128 28 69 l 28 231 q 65 333 28 293 q 186 401 101 372 q 251 430 228 418 q 283 460 274 442 q 293 514 293 479 l 293 556 q 288 581 293 571 q 274 596 283 590 q 253 601 265 601 q 221 581 229 601 q 213 507 213 560 l 213 449 l 42 449 l 42 525 q 57 616 42 576 q 117 678 72 656 q 253 701 163 701 q 394 687 344 701 q 465 637 444 672 q 485 540 485 601 l 485 0 l 296 0 l 296 72 q 248 12 286 35 q 165 -11 210 -11 m 249 113 q 283 134 275 113 q 292 199 292 156 l 292 356 q 273 338 288 346 q 246 321 258 331 q 219 293 228 307 q 210 253 210 279 l 210 175 q 214 140 210 154 q 226 119 218 126 q 249 113 235 113 m 332 763 q 290 772 310 763 q 251 792 271 781 q 220 807 236 800 q 188 814 204 814 q 160 800 169 814 q 149 764 150 786 l 96 764 q 122 862 96 825 q 190 899 147 899 q 234 891 214 899 q 271 874 254 883 q 303 858 288 865 q 333 851 318 851 q 364 864 354 851 q 376 894 374 876 l 435 894 q 417 822 433 851 q 378 778 401 793 q 332 763 356 763 z "},"b":{"ha":536,"x_min":43,"x_max":501,"o":"m 317 -10 q 222 15 256 -10 q 181 61 189 40 l 176 0 l 43 0 l 43 875 l 232 875 l 232 635 q 272 678 244 658 q 349 699 299 699 q 424 685 390 699 q 480 637 458 672 q 501 538 501 601 l 501 208 q 488 92 501 136 q 451 27 475 49 q 394 -2 428 6 q 317 -10 360 -10 m 272 118 q 295 122 288 118 q 307 135 303 126 q 312 157 311 144 q 313 185 313 169 l 313 519 q 311 546 313 535 q 305 565 310 557 q 292 576 300 572 q 272 581 285 581 q 242 567 253 581 q 232 524 232 554 l 232 190 q 233 162 232 175 q 239 138 235 149 q 251 123 243 128 q 272 118 258 118 z "},"\\":{"ha":807,"x_min":46,"x_max":651,"o":"m 521 -61 l 46 875 l 178 875 l 651 -61 l 521 -61 z "},"|":{"ha":433,"x_min":135,"x_max":299,"o":"m 135 -331 l 135 875 l 299 875 l 299 -331 l 135 -331 z "},"б":{"ha":529,"x_min":33,"x_max":494,"o":"m 256 -10 q 144 3 194 -10 q 65 53 94 17 q 35 158 35 89 l 33 644 q 44 766 33 715 q 88 844 56 817 q 183 871 119 871 q 256 875 211 871 q 346 885 300 879 q 423 897 392 890 q 456 910 454 904 l 456 838 q 433 790 456 811 q 353 768 411 769 l 338 768 q 260 756 285 768 q 230 722 236 743 q 222 671 224 700 l 222 626 q 260 667 235 647 q 338 688 286 688 q 414 675 378 688 q 472 628 450 663 q 494 526 494 594 l 494 210 q 480 92 494 136 q 436 26 465 47 q 363 -3 407 4 q 256 -10 318 -10 m 264 100 q 290 107 282 100 q 303 128 299 114 q 307 161 307 142 l 307 511 q 303 545 307 532 q 290 565 299 558 q 265 571 282 571 q 244 567 251 571 q 231 555 236 563 q 224 538 225 547 q 222 514 222 528 l 222 161 q 226 128 222 142 q 240 107 231 114 q 264 100 249 100 z "},"{":{"ha":476,"x_min":79,"x_max":414,"o":"m 414 -189 q 215 -157 288 -187 q 110 -78 142 -126 q 79 18 79 -31 q 96 109 79 74 q 135 169 113 144 q 174 217 157 194 q 190 267 190 239 q 178 306 190 289 q 145 332 167 322 q 90 342 124 342 l 90 394 q 138 407 117 394 q 172 440 160 419 q 185 485 185 461 q 169 526 185 504 q 133 572 153 547 q 96 630 113 597 q 79 707 79 663 q 109 813 79 764 q 211 892 139 861 q 414 924 283 922 l 414 825 q 349 812 379 819 q 301 781 318 804 q 283 707 283 757 q 295 637 283 667 q 322 582 307 607 q 348 531 336 557 q 360 472 360 506 q 349 429 360 453 q 315 388 339 406 q 247 368 290 371 q 327 345 294 365 q 360 274 360 325 q 350 223 360 247 q 328 172 340 199 q 305 114 315 146 q 294 39 294 82 q 315 -40 294 -11 q 364 -79 336 -68 q 414 -92 392 -90 l 414 -189 z "},"}":{"ha":476,"x_min":64,"x_max":397,"o":"m 64 -189 l 64 -92 q 113 -79 86 -90 q 161 -40 140 -68 q 182 39 182 -11 q 172 114 182 82 q 149 172 163 146 q 126 223 136 199 q 117 274 117 247 q 150 345 117 325 q 229 368 183 365 q 162 388 186 371 q 128 429 138 406 q 118 472 118 453 q 130 531 118 506 q 156 582 142 557 q 183 637 171 607 q 194 707 194 667 q 176 781 194 757 q 129 812 158 804 q 64 825 100 819 l 64 924 q 265 892 193 922 q 367 813 338 861 q 397 707 397 764 q 381 630 397 663 q 344 572 365 597 q 308 526 324 547 q 292 485 292 504 q 305 440 292 461 q 340 407 318 419 q 386 394 361 394 l 386 342 q 333 332 356 342 q 299 306 311 322 q 288 267 288 289 q 304 217 288 239 q 342 169 321 194 q 381 109 364 144 q 397 18 397 74 q 367 -78 397 -31 q 263 -157 336 -126 q 64 -189 189 -187 z "},"[":{"ha":449,"x_min":58,"x_max":392,"o":"m 58 -79 l 58 875 l 392 875 l 392 776 l 236 776 l 236 19 l 392 19 l 392 -79 l 58 -79 z "},"]":{"ha":449,"x_min":58,"x_max":392,"o":"m 58 -79 l 58 19 l 214 19 l 214 776 l 58 776 l 58 875 l 392 875 l 392 -79 l 58 -79 z "},"˘":{"ha":379,"x_min":24,"x_max":356,"o":"m 186 764 q 83 789 118 764 q 35 848 47 814 q 24 908 24 882 l 124 908 q 144 867 125 881 q 188 853 164 853 q 233 866 214 853 q 253 908 251 879 l 356 908 q 338 837 354 869 q 284 784 321 804 q 186 764 247 764 z "},"̆":{"ha":0,"x_min":24,"x_max":356,"o":"m 186 764 q 83 789 118 764 q 35 848 47 814 q 24 908 24 882 l 124 908 q 144 867 125 881 q 188 853 164 853 q 233 866 214 853 q 253 908 251 879 l 356 908 q 338 837 354 869 q 284 784 321 804 q 186 764 247 764 z "},"¦":{"ha":324,"x_min":79,"x_max":243,"o":"m 79 -231 l 79 249 l 243 249 l 243 -231 l 79 -231 m 79 372 l 79 813 l 243 813 l 243 372 l 79 372 z "},"•":{"ha":503,"x_min":61,"x_max":440,"o":"m 251 199 q 156 224 199 199 q 87 293 113 250 q 61 389 61 336 q 87 484 61 442 q 156 552 113 526 q 251 578 199 578 q 347 552 304 578 q 415 484 389 526 q 440 389 440 442 q 415 293 440 336 q 347 224 389 250 q 251 199 304 199 z "},"c":{"ha":519,"x_min":33,"x_max":492,"o":"m 264 -11 q 140 4 192 -11 q 61 69 89 19 q 33 221 33 119 l 33 508 q 92 658 33 618 q 264 699 151 699 q 433 660 375 699 q 492 521 492 622 l 492 415 l 303 415 l 303 532 q 294 576 303 564 q 264 589 285 589 q 233 576 243 589 q 222 532 222 564 l 222 157 q 233 112 222 125 q 264 99 243 99 q 294 111 285 99 q 303 157 303 124 l 303 288 l 492 288 l 492 222 q 465 69 492 119 q 387 4 438 19 q 264 -11 336 -11 z "},"ć":{"ha":519,"x_min":33,"x_max":492,"o":"m 264 -11 q 140 4 192 -11 q 61 69 89 19 q 33 221 33 119 l 33 508 q 92 658 33 618 q 264 699 151 699 q 433 660 375 699 q 492 521 492 622 l 492 415 l 303 415 l 303 532 q 294 576 303 564 q 264 589 285 589 q 233 576 243 589 q 222 532 222 564 l 222 157 q 233 112 222 125 q 264 99 243 99 q 294 111 285 99 q 303 157 303 124 l 303 288 l 492 288 l 492 222 q 465 69 492 119 q 387 4 438 19 q 264 -11 336 -11 m 183 763 l 264 906 l 442 906 l 301 763 l 183 763 z "},"ˇ":{"ha":417,"x_min":1,"x_max":375,"o":"m 136 757 l 1 911 l 115 911 l 190 836 l 265 911 l 375 911 l 239 757 l 136 757 z "},"̌":{"ha":0,"x_min":1,"x_max":375,"o":"m 136 757 l 1 911 l 115 911 l 190 836 l 265 911 l 375 911 l 239 757 l 136 757 z "},"č":{"ha":519,"x_min":33,"x_max":492,"o":"m 264 -11 q 140 4 192 -11 q 61 69 89 19 q 33 221 33 119 l 33 508 q 92 658 33 618 q 264 699 151 699 q 433 660 375 699 q 492 521 492 622 l 492 415 l 303 415 l 303 532 q 294 576 303 564 q 264 589 285 589 q 233 576 243 589 q 222 532 222 564 l 222 157 q 233 112 222 125 q 264 99 243 99 q 294 111 285 99 q 303 157 303 124 l 303 288 l 492 288 l 492 222 q 465 69 492 119 q 387 4 438 19 q 264 -11 336 -11 m 208 757 l 74 911 l 188 911 l 263 836 l 338 911 l 447 911 l 311 757 l 208 757 z "},"ç":{"ha":519,"x_min":33,"x_max":492,"o":"m 264 -11 q 140 4 192 -11 q 61 69 89 19 q 33 221 33 119 l 33 508 q 92 658 33 618 q 264 699 151 699 q 433 660 375 699 q 492 521 492 622 l 492 415 l 303 415 l 303 532 q 294 576 303 564 q 264 589 285 589 q 233 576 243 589 q 222 532 222 564 l 222 157 q 233 112 222 125 q 264 99 243 99 q 294 111 285 99 q 303 157 303 124 l 303 288 l 492 288 l 492 222 q 465 69 492 119 q 387 4 438 19 q 264 -11 336 -11 m 253 -233 q 199 -222 224 -233 q 165 -206 175 -211 l 188 -147 q 215 -162 197 -156 q 244 -168 232 -168 q 275 -158 264 -168 q 286 -131 286 -149 q 278 -112 286 -118 q 258 -106 269 -106 q 244 -108 250 -106 q 233 -115 238 -111 l 183 -87 l 226 0 l 296 0 l 260 -74 l 250 -68 q 272 -59 258 -64 q 304 -54 286 -54 q 367 -80 344 -54 q 389 -135 389 -106 q 353 -204 389 -175 q 253 -233 318 -233 z "},"ċ":{"ha":519,"x_min":33,"x_max":492,"o":"m 264 -11 q 140 4 192 -11 q 61 69 89 19 q 33 221 33 119 l 33 508 q 92 658 33 618 q 264 699 151 699 q 433 660 375 699 q 492 521 492 622 l 492 415 l 303 415 l 303 532 q 294 576 303 564 q 264 589 285 589 q 233 576 243 589 q 222 532 222 564 l 222 157 q 233 112 222 125 q 264 99 243 99 q 294 111 285 99 q 303 157 303 124 l 303 288 l 492 288 l 492 222 q 465 69 492 119 q 387 4 438 19 q 264 -11 336 -11 m 260 758 q 194 785 221 758 q 165 849 167 811 q 194 914 165 888 q 261 940 222 940 q 328 914 300 940 q 356 849 356 888 q 328 785 357 811 q 260 758 300 758 z "},"¸":{"ha":311,"x_min":0,"x_max":224,"o":"m 88 -233 q 34 -222 58 -233 q 0 -206 10 -211 l 22 -147 q 49 -162 32 -156 q 79 -168 67 -168 q 110 -158 99 -168 q 121 -131 121 -149 q 113 -112 121 -118 q 93 -106 104 -106 q 78 -108 85 -106 q 68 -115 72 -111 l 18 -87 l 61 0 l 131 0 l 94 -74 l 85 -68 q 107 -59 93 -64 q 139 -54 121 -54 q 201 -80 179 -54 q 224 -135 224 -106 q 188 -204 224 -175 q 88 -233 153 -233 z "},"̧":{"ha":0,"x_min":0,"x_max":224,"o":"m 88 -233 q 34 -222 58 -233 q 0 -206 10 -211 l 22 -147 q 49 -162 32 -156 q 79 -168 67 -168 q 110 -158 99 -168 q 121 -131 121 -149 q 113 -112 121 -118 q 93 -106 104 -106 q 78 -108 85 -106 q 68 -115 72 -111 l 18 -87 l 61 0 l 131 0 l 94 -74 l 85 -68 q 107 -59 93 -64 q 139 -54 121 -54 q 201 -80 179 -54 q 224 -135 224 -106 q 188 -204 224 -175 q 88 -233 153 -233 z "},"¢":{"ha":521,"x_min":46,"x_max":475,"o":"m 206 -92 l 206 68 q 120 92 156 74 q 65 152 85 110 q 46 272 46 194 l 46 622 q 65 708 46 675 q 120 757 85 740 q 206 778 156 774 l 206 901 l 322 901 l 322 774 q 401 749 367 767 q 456 700 436 731 q 475 622 475 669 l 475 472 l 310 472 l 310 633 q 302 664 310 654 q 283 678 294 674 q 260 682 272 682 q 239 678 250 682 q 220 664 228 674 q 213 633 213 654 l 213 213 q 220 181 213 192 q 239 165 228 169 q 260 161 250 161 q 283 165 272 161 q 302 181 294 169 q 310 213 310 192 l 310 361 l 475 361 l 475 274 q 455 163 475 204 q 401 101 435 121 q 322 74 367 81 l 322 -92 l 206 -92 z "},"ч":{"ha":529,"x_min":32,"x_max":489,"o":"m 313 0 l 313 219 q 268 148 306 174 q 185 122 231 122 q 90 143 124 122 q 44 206 57 164 q 32 306 32 247 l 32 688 l 221 688 l 221 306 q 230 263 221 278 q 260 249 239 249 q 284 255 274 249 q 300 268 294 261 l 300 688 l 489 688 l 489 0 l 313 0 z "},"ˆ":{"ha":401,"x_min":14,"x_max":388,"o":"m 14 757 l 149 911 l 251 911 l 388 757 l 276 757 l 201 832 l 126 757 l 14 757 z "},"̂":{"ha":0,"x_min":14,"x_max":388,"o":"m 14 757 l 149 911 l 251 911 l 388 757 l 276 757 l 201 832 l 126 757 l 14 757 z "},":":{"ha":331,"x_min":69,"x_max":261,"o":"m 164 364 q 97 390 125 364 q 69 454 69 417 q 97 519 69 493 q 164 546 125 546 q 232 519 203 546 q 261 454 261 493 q 232 390 261 417 q 164 364 203 364 m 164 -14 q 97 13 125 -14 q 69 76 69 39 q 97 142 69 115 q 164 168 125 168 q 232 142 203 168 q 261 76 261 115 q 232 13 261 39 q 164 -14 203 -14 z "},",":{"ha":332,"x_min":71,"x_max":263,"o":"m 71 -221 q 111 -128 94 -169 q 128 -56 128 -87 q 114 -9 128 -25 q 86 23 100 7 q 72 68 72 39 q 100 131 72 104 q 169 157 128 157 q 238 130 213 157 q 263 60 263 103 q 246 -31 263 19 q 204 -132 229 -82 q 153 -221 179 -182 l 71 -221 z "},"̦":{"ha":0,"x_min":0,"x_max":164,"o":"m 0 -279 q 34 -222 22 -247 q 46 -179 46 -196 q 35 -160 46 -168 q 15 -142 25 -153 q 4 -111 4 -131 q 26 -69 4 -87 q 82 -50 47 -50 q 141 -70 118 -50 q 164 -119 164 -90 q 150 -169 164 -140 q 117 -228 136 -199 q 76 -279 97 -257 l 0 -279 z "},"̒":{"ha":0,"x_min":-1,"x_max":163,"o":"m 163 982 q 129 924 142 950 q 117 883 117 899 q 128 865 117 872 q 149 846 139 857 q 158 814 158 835 q 137 773 158 792 q 81 754 115 754 q 22 774 44 754 q -1 824 -1 793 q 13 874 -1 844 q 47 932 26 903 q 88 982 68 961 l 163 982 z "},"©":{"ha":833,"x_min":40,"x_max":818,"o":"m 429 42 q 278 72 349 42 q 153 156 207 101 q 70 281 100 210 q 40 432 40 351 q 70 583 40 513 q 153 708 100 654 q 278 791 207 761 q 429 821 349 821 q 581 791 510 821 q 705 708 651 761 q 788 583 758 654 q 818 432 818 513 q 788 281 818 351 q 705 156 758 210 q 581 72 651 101 q 429 42 510 42 m 429 111 q 553 136 496 111 q 655 206 611 161 q 723 308 699 250 q 747 432 747 367 q 704 592 747 521 q 590 707 661 664 q 429 750 518 750 q 306 725 364 750 q 205 656 249 700 q 137 555 161 613 q 113 432 113 497 q 137 308 113 367 q 205 206 161 250 q 306 136 249 161 q 429 111 364 111 m 431 207 q 347 217 382 207 q 293 260 311 228 q 275 361 275 293 l 275 553 q 315 653 275 626 q 431 681 354 681 q 547 655 508 681 q 586 561 586 629 l 586 492 l 460 492 l 460 569 q 453 598 460 589 q 431 607 446 607 q 409 598 415 607 q 403 569 403 589 l 403 319 q 409 289 403 297 q 431 281 415 281 q 453 289 446 281 q 460 319 460 297 l 460 406 l 586 406 l 586 363 q 568 261 586 294 q 515 217 550 228 q 431 207 479 207 z "},"¤":{"ha":756,"x_min":46,"x_max":711,"o":"m 135 90 l 50 176 l 192 319 q 171 366 178 342 q 164 418 164 390 q 190 518 164 472 l 46 663 l 131 747 l 278 601 q 376 625 325 625 q 475 601 429 625 l 622 750 l 707 665 l 563 519 q 590 418 590 474 q 564 319 590 365 l 711 175 l 625 90 l 476 239 q 427 220 451 226 q 376 214 403 214 q 279 236 324 214 l 135 90 m 376 338 q 433 360 410 338 q 457 418 457 383 q 433 476 457 453 q 376 500 410 500 q 320 476 343 500 q 297 418 297 453 q 320 360 297 383 q 376 338 343 338 z "},"d":{"ha":536,"x_min":33,"x_max":493,"o":"m 219 -10 q 144 -2 178 -10 q 85 27 110 6 q 47 92 60 49 q 33 208 33 135 l 33 540 q 48 619 33 589 q 85 665 63 649 q 133 689 107 682 q 183 696 158 696 q 265 678 239 696 q 304 640 290 660 l 304 875 l 493 875 l 493 0 l 365 0 l 346 65 q 326 36 340 54 q 285 4 311 18 q 219 -10 260 -10 m 263 96 q 283 101 275 96 q 296 115 292 106 q 302 135 300 124 q 304 164 304 147 l 304 567 q 298 574 303 569 q 285 581 293 578 q 264 583 276 583 q 242 579 250 583 q 230 567 235 575 q 224 549 225 560 q 222 522 222 538 l 222 157 q 226 124 222 138 q 238 103 229 110 q 263 96 247 96 z "},"†":{"ha":540,"x_min":46,"x_max":496,"o":"m 189 -168 l 189 429 l 46 429 l 46 529 l 189 529 l 189 813 l 353 813 l 353 529 l 496 529 l 496 429 l 353 429 l 353 -168 l 189 -168 z "},"‡":{"ha":550,"x_min":46,"x_max":504,"o":"m 192 -168 l 192 171 l 46 171 l 46 286 l 192 286 l 192 449 l 46 449 l 46 563 l 192 563 l 192 865 l 357 865 l 357 563 l 504 563 l 504 449 l 357 449 l 357 286 l 504 286 l 504 171 l 357 171 l 357 -168 l 192 -168 z "},"ď":{"ha":660,"x_min":33,"x_max":675,"o":"m 219 -10 q 144 -2 178 -10 q 85 27 110 6 q 47 92 60 49 q 33 208 33 135 l 33 540 q 48 619 33 589 q 85 665 63 649 q 133 689 107 682 q 183 696 158 696 q 265 678 239 696 q 304 640 290 660 l 304 875 l 493 875 l 493 0 l 365 0 l 346 65 q 326 36 340 54 q 285 4 311 18 q 219 -10 260 -10 m 263 96 q 283 101 275 96 q 296 115 292 106 q 302 135 300 124 q 304 164 304 147 l 304 567 q 298 574 303 569 q 285 581 293 578 q 264 583 276 583 q 242 579 250 583 q 230 567 235 575 q 224 549 225 560 q 222 522 222 538 l 222 157 q 226 124 222 138 q 238 103 229 110 q 263 96 247 96 m 526 668 l 563 882 l 675 882 l 592 668 l 526 668 z "},"đ":{"ha":533,"x_min":33,"x_max":531,"o":"m 196 735 l 196 804 l 531 804 l 531 735 l 196 735 m 219 -10 q 144 -2 178 -10 q 85 27 110 6 q 47 92 60 49 q 33 208 33 135 l 33 540 q 48 619 33 589 q 85 665 63 649 q 133 689 107 682 q 183 696 158 696 q 265 678 239 696 q 304 640 290 660 l 304 875 l 493 875 l 493 0 l 365 0 l 346 65 q 326 36 340 54 q 285 4 311 18 q 219 -10 260 -10 m 263 96 q 283 101 275 96 q 296 115 292 106 q 302 135 300 124 q 304 164 304 147 l 304 567 q 298 574 303 569 q 285 581 293 578 q 264 583 276 583 q 242 579 250 583 q 230 567 235 575 q 224 549 225 560 q 222 522 222 538 l 222 157 q 226 124 222 138 q 238 103 229 110 q 263 96 247 96 z "},"д":{"ha":771,"x_min":24,"x_max":747,"o":"m 24 -161 l 24 110 l 67 110 q 103 126 82 113 q 142 170 124 140 q 164 250 160 200 l 215 688 l 638 688 l 638 110 l 747 110 l 747 -161 l 592 -161 l 592 -37 l 179 -37 l 179 -161 l 24 -161 m 307 110 l 438 110 l 438 553 l 386 553 l 349 253 q 335 167 343 211 q 307 110 326 122 z "},"°":{"ha":460,"x_min":46,"x_max":414,"o":"m 229 463 q 90 515 135 463 q 46 640 46 567 q 88 768 46 715 q 232 821 129 821 q 340 797 300 821 q 397 732 381 772 q 414 643 414 692 q 369 513 414 564 q 229 463 325 463 m 231 546 q 294 573 271 546 q 318 642 318 600 q 296 710 318 681 q 229 739 274 739 q 167 710 190 739 q 143 640 143 681 q 167 573 143 600 q 231 546 192 546 z "},"¨":{"ha":357,"x_min":0,"x_max":329,"o":"m 75 758 q 22 779 43 758 q 0 829 0 800 q 22 880 0 860 q 75 900 43 900 q 128 880 107 900 q 149 829 149 860 q 128 779 149 800 q 75 758 107 758 m 256 758 q 202 779 224 758 q 181 829 181 800 q 202 880 181 860 q 256 900 224 900 q 308 880 288 900 q 329 829 329 860 q 308 779 329 800 q 256 758 288 758 z "},"̈":{"ha":0,"x_min":0,"x_max":329,"o":"m 75 758 q 22 779 43 758 q 0 829 0 800 q 22 880 0 860 q 75 900 43 900 q 128 880 107 900 q 149 829 149 860 q 128 779 149 800 q 75 758 107 758 m 256 758 q 202 779 224 758 q 181 829 181 800 q 202 880 181 860 q 256 900 224 900 q 308 880 288 900 q 329 829 329 860 q 308 779 329 800 q 256 758 288 758 z "},"÷":{"ha":550,"x_min":58,"x_max":492,"o":"m 58 335 l 58 461 l 492 461 l 492 335 l 58 335 m 274 88 q 211 111 236 88 q 186 169 186 135 q 211 231 186 206 q 274 256 236 256 q 337 231 311 256 q 363 169 363 206 q 337 111 363 135 q 274 88 311 88 m 274 539 q 211 563 236 539 q 186 622 186 588 q 211 683 186 658 q 274 707 236 707 q 335 683 310 707 q 361 622 361 658 q 335 563 361 588 q 274 539 310 539 z "},"∕":{"ha":633,"x_min":22,"x_max":624,"o":"m 22 -206 l 493 996 l 624 996 l 153 -206 l 22 -206 z "},"ђ":{"ha":610,"x_min":10,"x_max":575,"o":"m 424 -126 q 365 -121 389 -126 q 325 -110 340 -115 l 329 -24 q 338 -28 333 -26 q 350 -29 343 -29 q 378 -13 369 -29 q 386 36 386 3 l 386 399 q 376 441 385 428 q 344 454 367 454 q 324 450 332 454 q 313 439 317 446 q 307 425 310 432 q 303 410 304 418 l 303 0 l 110 0 l 110 672 l 10 672 l 10 772 l 110 772 l 110 875 l 303 875 l 303 772 l 424 772 l 424 672 l 303 672 l 303 510 q 342 551 315 532 q 418 569 368 569 q 494 558 458 569 q 552 512 529 546 q 575 410 575 478 l 575 88 q 564 -17 575 24 q 533 -83 553 -58 q 487 -117 514 -107 q 424 -126 460 -126 z "},"$":{"ha":497,"x_min":35,"x_max":483,"o":"m 213 -82 l 213 67 q 103 97 142 72 q 50 167 65 122 q 35 279 35 213 l 35 326 l 214 326 l 214 238 q 216 199 214 215 q 226 174 218 182 q 254 165 235 165 q 278 173 271 165 q 289 193 286 181 q 292 218 292 206 l 292 276 q 278 330 292 311 q 240 360 265 349 q 182 388 215 372 q 119 419 149 400 q 69 472 89 439 q 50 556 50 504 l 50 596 q 86 723 50 676 q 213 781 122 769 l 213 901 l 314 901 l 314 782 q 448 724 413 774 q 483 579 483 674 l 483 532 l 311 532 l 311 615 q 303 667 311 651 q 272 683 294 683 q 241 669 249 683 q 233 633 233 654 l 233 575 q 252 522 233 540 q 299 494 271 504 q 357 472 326 483 q 417 441 389 460 q 465 391 446 422 q 483 310 483 360 l 483 264 q 469 167 483 208 q 417 100 454 125 q 314 67 381 75 l 314 -82 l 213 -82 z "},"˙":{"ha":176,"x_min":0,"x_max":192,"o":"m 94 758 q 28 785 56 758 q 0 849 1 811 q 28 914 0 888 q 96 940 57 940 q 163 914 135 940 q 190 849 190 888 q 163 785 192 811 q 94 758 135 758 z "},"̇":{"ha":0,"x_min":0,"x_max":192,"o":"m 94 758 q 28 785 56 758 q 0 849 1 811 q 28 914 0 888 q 96 940 57 940 q 163 914 135 940 q 190 849 190 888 q 163 785 192 811 q 94 758 135 758 z "},"̣":{"ha":0,"x_min":14,"x_max":165,"o":"m 89 -193 q 35 -172 57 -193 q 14 -121 14 -150 q 35 -69 14 -90 q 89 -47 57 -47 q 142 -69 119 -47 q 165 -121 165 -90 q 142 -172 165 -150 q 89 -193 119 -193 z "},"↓":{"ha":746,"x_min":46,"x_max":700,"o":"m 375 -1 l 46 408 l 136 500 l 296 325 l 301 1018 l 451 1017 l 449 328 l 610 499 l 700 407 l 375 -1 z "},"ѕ":{"ha":525,"x_min":26,"x_max":499,"o":"m 258 -18 q 142 -3 188 -18 q 71 38 96 11 q 36 106 46 65 q 26 196 26 146 l 26 244 l 215 244 l 215 156 q 217 117 215 133 q 228 92 219 100 q 257 83 238 83 q 282 91 274 83 q 293 111 290 99 q 296 136 296 124 l 296 194 q 282 248 296 229 q 242 278 268 267 q 179 304 215 290 q 115 338 146 318 q 63 390 83 357 q 43 474 43 422 l 43 513 q 93 653 43 606 q 275 701 143 701 q 411 679 363 701 q 479 612 460 657 q 499 497 499 567 l 499 449 l 315 449 l 315 532 q 307 585 315 569 q 276 601 299 601 q 244 587 253 601 q 236 551 236 572 l 236 492 q 256 440 236 458 q 305 412 275 422 q 364 390 335 401 q 429 359 399 378 q 479 309 460 340 q 499 228 499 278 l 499 182 q 478 74 499 118 q 405 6 457 29 q 258 -18 353 -18 z "},"џ":{"ha":542,"x_min":40,"x_max":501,"o":"m 201 -140 l 201 0 l 40 0 l 40 688 l 229 688 l 229 135 l 313 135 l 313 688 l 501 688 l 501 0 l 338 0 l 338 -140 l 201 -140 z "},"e":{"ha":519,"x_min":33,"x_max":492,"o":"m 264 -11 q 140 5 192 -11 q 61 72 89 21 q 33 226 33 122 l 33 521 q 92 660 33 622 q 264 699 151 699 q 433 660 375 699 q 492 521 492 622 l 492 329 l 222 329 l 222 146 q 233 100 222 113 q 264 88 243 88 q 294 100 285 88 q 303 146 303 113 l 303 263 l 492 263 l 492 228 q 465 72 492 122 q 387 5 438 21 q 264 -11 336 -11 m 222 413 l 303 413 l 303 544 q 294 588 303 575 q 264 600 285 600 q 233 588 243 600 q 222 544 222 575 l 222 413 z "},"é":{"ha":519,"x_min":33,"x_max":492,"o":"m 264 -11 q 140 5 192 -11 q 61 72 89 21 q 33 226 33 122 l 33 521 q 92 660 33 622 q 264 699 151 699 q 433 660 375 699 q 492 521 492 622 l 492 329 l 222 329 l 222 146 q 233 100 222 113 q 264 88 243 88 q 294 100 285 88 q 303 146 303 113 l 303 263 l 492 263 l 492 228 q 465 72 492 122 q 387 5 438 21 q 264 -11 336 -11 m 222 413 l 303 413 l 303 544 q 294 588 303 575 q 264 600 285 600 q 233 588 243 600 q 222 544 222 575 l 222 413 m 183 763 l 264 906 l 442 906 l 301 763 l 183 763 z "},"ě":{"ha":519,"x_min":33,"x_max":492,"o":"m 264 -11 q 140 5 192 -11 q 61 72 89 21 q 33 226 33 122 l 33 521 q 92 660 33 622 q 264 699 151 699 q 433 660 375 699 q 492 521 492 622 l 492 329 l 222 329 l 222 146 q 233 100 222 113 q 264 88 243 88 q 294 100 285 88 q 303 146 303 113 l 303 263 l 492 263 l 492 228 q 465 72 492 122 q 387 5 438 21 q 264 -11 336 -11 m 222 413 l 303 413 l 303 544 q 294 588 303 575 q 264 600 285 600 q 233 588 243 600 q 222 544 222 575 l 222 413 m 208 757 l 74 911 l 188 911 l 263 836 l 338 911 l 447 911 l 311 757 l 208 757 z "},"ê":{"ha":519,"x_min":33,"x_max":492,"o":"m 264 -11 q 140 5 192 -11 q 61 72 89 21 q 33 226 33 122 l 33 521 q 92 660 33 622 q 264 699 151 699 q 433 660 375 699 q 492 521 492 622 l 492 329 l 222 329 l 222 146 q 233 100 222 113 q 264 88 243 88 q 294 100 285 88 q 303 146 303 113 l 303 263 l 492 263 l 492 228 q 465 72 492 122 q 387 5 438 21 q 264 -11 336 -11 m 222 413 l 303 413 l 303 544 q 294 588 303 575 q 264 600 285 600 q 233 588 243 600 q 222 544 222 575 l 222 413 m 74 757 l 208 911 l 311 911 l 447 757 l 336 757 l 261 832 l 186 757 l 74 757 z "},"ế":{"ha":519,"x_min":33,"x_max":696,"o":"m 264 -11 q 140 5 192 -11 q 61 72 89 21 q 33 226 33 122 l 33 521 q 92 660 33 622 q 264 699 151 699 q 433 660 375 699 q 492 521 492 622 l 492 329 l 222 329 l 222 146 q 233 100 222 113 q 264 88 243 88 q 294 100 285 88 q 303 146 303 113 l 303 263 l 492 263 l 492 228 q 465 72 492 122 q 387 5 438 21 q 264 -11 336 -11 m 222 413 l 303 413 l 303 544 q 294 588 303 575 q 264 600 285 600 q 233 588 243 600 q 222 544 222 575 l 222 413 m 74 757 l 208 911 l 311 911 l 447 757 l 336 757 l 261 832 l 186 757 l 74 757 m 438 839 l 518 982 l 696 982 l 556 839 l 438 839 z "},"ệ":{"ha":519,"x_min":33,"x_max":492,"o":"m 264 -11 q 140 5 192 -11 q 61 72 89 21 q 33 226 33 122 l 33 521 q 92 660 33 622 q 264 699 151 699 q 433 660 375 699 q 492 521 492 622 l 492 329 l 222 329 l 222 146 q 233 100 222 113 q 264 88 243 88 q 294 100 285 88 q 303 146 303 113 l 303 263 l 492 263 l 492 228 q 465 72 492 122 q 387 5 438 21 q 264 -11 336 -11 m 222 413 l 303 413 l 303 544 q 294 588 303 575 q 264 600 285 600 q 233 588 243 600 q 222 544 222 575 l 222 413 m 260 -193 q 206 -172 228 -193 q 185 -121 185 -150 q 206 -69 185 -90 q 260 -47 228 -47 q 313 -69 290 -47 q 336 -121 336 -90 q 313 -172 336 -150 q 260 -193 290 -193 m 74 757 l 208 911 l 311 911 l 447 757 l 336 757 l 261 832 l 186 757 l 74 757 z "},"ề":{"ha":519,"x_min":33,"x_max":600,"o":"m 264 -11 q 140 5 192 -11 q 61 72 89 21 q 33 226 33 122 l 33 521 q 92 660 33 622 q 264 699 151 699 q 433 660 375 699 q 492 521 492 622 l 492 329 l 222 329 l 222 146 q 233 100 222 113 q 264 88 243 88 q 294 100 285 88 q 303 146 303 113 l 303 263 l 492 263 l 492 228 q 465 72 492 122 q 387 5 438 21 q 264 -11 336 -11 m 222 413 l 303 413 l 303 544 q 294 588 303 575 q 264 600 285 600 q 233 588 243 600 q 222 544 222 575 l 222 413 m 74 757 l 208 911 l 311 911 l 447 757 l 336 757 l 261 832 l 186 757 l 74 757 m 482 839 l 342 982 l 521 982 l 600 839 l 482 839 z "},"ể":{"ha":519,"x_min":33,"x_max":625,"o":"m 264 -11 q 140 5 192 -11 q 61 72 89 21 q 33 226 33 122 l 33 521 q 92 660 33 622 q 264 699 151 699 q 433 660 375 699 q 492 521 492 622 l 492 329 l 222 329 l 222 146 q 233 100 222 113 q 264 88 243 88 q 294 100 285 88 q 303 146 303 113 l 303 263 l 492 263 l 492 228 q 465 72 492 122 q 387 5 438 21 q 264 -11 336 -11 m 222 413 l 303 413 l 303 544 q 294 588 303 575 q 264 600 285 600 q 233 588 243 600 q 222 544 222 575 l 222 413 m 74 757 l 208 911 l 311 911 l 447 757 l 336 757 l 261 832 l 186 757 l 74 757 m 461 839 l 461 854 q 476 885 461 875 q 504 906 490 896 q 518 931 518 915 l 518 939 q 514 958 518 949 q 499 968 510 968 q 478 939 479 968 l 396 951 q 426 1014 399 993 q 507 1035 454 1035 q 595 1019 565 1035 q 625 943 625 1003 l 625 938 q 609 894 625 906 q 577 876 593 882 q 561 853 561 869 l 561 839 l 461 839 z "},"ễ":{"ha":519,"x_min":33,"x_max":492,"o":"m 264 -11 q 140 5 192 -11 q 61 72 89 21 q 33 226 33 122 l 33 521 q 92 660 33 622 q 264 699 151 699 q 433 660 375 699 q 492 521 492 622 l 492 329 l 222 329 l 222 146 q 233 100 222 113 q 264 88 243 88 q 294 100 285 88 q 303 146 303 113 l 303 263 l 492 263 l 492 228 q 465 72 492 122 q 387 5 438 21 q 264 -11 336 -11 m 222 413 l 303 413 l 303 544 q 294 588 303 575 q 264 600 285 600 q 233 588 243 600 q 222 544 222 575 l 222 413 m 74 757 l 208 911 l 311 911 l 447 757 l 336 757 l 261 832 l 186 757 l 74 757 m 328 944 q 286 953 306 944 q 247 974 267 963 q 216 989 232 982 q 183 996 200 996 q 156 982 165 996 q 144 946 146 968 l 92 946 q 117 1044 92 1007 q 186 1081 143 1081 q 230 1073 210 1081 q 267 1056 250 1065 q 299 1040 283 1047 q 329 1033 314 1033 q 360 1046 350 1033 q 372 1076 369 1058 l 431 1076 q 413 1004 429 1033 q 374 960 397 975 q 328 944 351 944 z "},"ë":{"ha":519,"x_min":33,"x_max":492,"o":"m 264 -11 q 140 5 192 -11 q 61 72 89 21 q 33 226 33 122 l 33 521 q 92 660 33 622 q 264 699 151 699 q 433 660 375 699 q 492 521 492 622 l 492 329 l 222 329 l 222 146 q 233 100 222 113 q 264 88 243 88 q 294 100 285 88 q 303 146 303 113 l 303 263 l 492 263 l 492 228 q 465 72 492 122 q 387 5 438 21 q 264 -11 336 -11 m 222 413 l 303 413 l 303 544 q 294 588 303 575 q 264 600 285 600 q 233 588 243 600 q 222 544 222 575 l 222 413 m 171 758 q 117 779 139 758 q 96 829 96 800 q 117 880 96 860 q 171 900 139 900 q 224 880 203 900 q 244 829 244 860 q 224 779 244 800 q 171 758 203 758 m 351 758 q 298 779 319 758 q 276 829 276 800 q 298 880 276 860 q 351 900 319 900 q 404 880 383 900 q 425 829 425 860 q 404 779 425 800 q 351 758 383 758 z "},"ė":{"ha":519,"x_min":33,"x_max":492,"o":"m 264 -11 q 140 5 192 -11 q 61 72 89 21 q 33 226 33 122 l 33 521 q 92 660 33 622 q 264 699 151 699 q 433 660 375 699 q 492 521 492 622 l 492 329 l 222 329 l 222 146 q 233 100 222 113 q 264 88 243 88 q 294 100 285 88 q 303 146 303 113 l 303 263 l 492 263 l 492 228 q 465 72 492 122 q 387 5 438 21 q 264 -11 336 -11 m 222 413 l 303 413 l 303 544 q 294 588 303 575 q 264 600 285 600 q 233 588 243 600 q 222 544 222 575 l 222 413 m 260 758 q 194 785 221 758 q 165 849 167 811 q 194 914 165 888 q 261 940 222 940 q 328 914 300 940 q 356 849 356 888 q 328 785 357 811 q 260 758 300 758 z "},"ẹ":{"ha":519,"x_min":33,"x_max":492,"o":"m 264 -11 q 140 5 192 -11 q 61 72 89 21 q 33 226 33 122 l 33 521 q 92 660 33 622 q 264 699 151 699 q 433 660 375 699 q 492 521 492 622 l 492 329 l 222 329 l 222 146 q 233 100 222 113 q 264 88 243 88 q 294 100 285 88 q 303 146 303 113 l 303 263 l 492 263 l 492 228 q 465 72 492 122 q 387 5 438 21 q 264 -11 336 -11 m 222 413 l 303 413 l 303 544 q 294 588 303 575 q 264 600 285 600 q 233 588 243 600 q 222 544 222 575 l 222 413 m 260 -193 q 206 -172 228 -193 q 185 -121 185 -150 q 206 -69 185 -90 q 260 -47 228 -47 q 313 -69 290 -47 q 336 -121 336 -90 q 313 -172 336 -150 q 260 -193 290 -193 z "},"ф":{"ha":821,"x_min":33,"x_max":786,"o":"m 318 -160 l 318 1 q 272 -6 297 -3 q 217 -10 246 -10 q 71 42 108 -10 q 33 189 33 94 l 33 461 q 49 561 33 519 q 103 625 64 603 q 219 647 143 647 q 280 642 253 647 q 318 629 307 638 l 318 821 l 506 821 l 506 629 q 542 642 514 638 q 600 647 571 647 q 716 625 675 647 q 772 561 757 603 q 786 461 786 519 l 786 189 q 749 42 786 94 q 604 -10 711 -10 q 551 -6 576 -10 q 506 1 526 -3 l 506 -160 l 318 -160 m 264 89 q 292 94 279 89 q 312 112 304 100 q 319 139 319 124 l 319 469 q 315 516 319 499 q 298 541 310 533 q 265 549 286 549 q 238 541 246 549 q 226 514 229 533 q 224 460 224 494 l 224 150 q 228 115 224 129 q 241 95 232 101 q 264 89 250 89 m 561 89 q 585 95 576 89 q 597 116 593 101 q 601 150 601 131 l 601 460 q 599 512 601 493 q 589 540 597 531 q 561 550 581 550 q 529 542 542 550 q 511 518 517 535 q 506 472 506 501 l 506 150 q 513 117 506 131 q 532 96 519 103 q 561 89 544 89 z "},"è":{"ha":519,"x_min":33,"x_max":492,"o":"m 264 -11 q 140 5 192 -11 q 61 72 89 21 q 33 226 33 122 l 33 521 q 92 660 33 622 q 264 699 151 699 q 433 660 375 699 q 492 521 492 622 l 492 329 l 222 329 l 222 146 q 233 100 222 113 q 264 88 243 88 q 294 100 285 88 q 303 146 303 113 l 303 263 l 492 263 l 492 228 q 465 72 492 122 q 387 5 438 21 q 264 -11 336 -11 m 222 413 l 303 413 l 303 544 q 294 588 303 575 q 264 600 285 600 q 233 588 243 600 q 222 544 222 575 l 222 413 m 228 763 l 88 906 l 267 906 l 346 763 l 228 763 z "},"ẻ":{"ha":519,"x_min":33,"x_max":492,"o":"m 264 -11 q 140 5 192 -11 q 61 72 89 21 q 33 226 33 122 l 33 521 q 92 660 33 622 q 264 699 151 699 q 433 660 375 699 q 492 521 492 622 l 492 329 l 222 329 l 222 146 q 233 100 222 113 q 264 88 243 88 q 294 100 285 88 q 303 146 303 113 l 303 263 l 492 263 l 492 228 q 465 72 492 122 q 387 5 438 21 q 264 -11 336 -11 m 222 413 l 303 413 l 303 544 q 294 588 303 575 q 264 600 285 600 q 233 588 243 600 q 222 544 222 575 l 222 413 m 208 763 l 208 778 q 223 809 208 799 q 251 829 238 819 q 265 854 265 839 l 265 863 q 261 882 265 872 q 246 892 257 892 q 225 863 226 892 l 143 875 q 174 938 146 917 q 254 958 201 958 q 342 942 313 958 q 372 867 372 926 l 372 861 q 356 817 372 829 q 324 799 340 806 q 308 776 308 793 l 308 763 l 208 763 z "},"л":{"ha":631,"x_min":17,"x_max":590,"o":"m 17 0 l 17 97 q 65 129 42 97 q 92 203 89 161 l 135 688 l 590 688 l 590 0 l 399 0 l 399 554 l 325 554 l 285 154 q 278 103 282 131 q 263 53 275 76 q 222 15 250 29 q 140 0 193 0 l 17 0 z "},"…":{"ha":868,"x_min":69,"x_max":799,"o":"m 164 -14 q 97 13 125 -14 q 69 76 69 39 q 97 142 69 115 q 164 168 125 168 q 232 142 203 168 q 261 76 261 115 q 232 13 261 39 q 164 -14 203 -14 m 432 -14 q 365 13 393 -14 q 338 76 338 39 q 365 142 338 115 q 432 168 393 168 q 500 142 471 168 q 529 76 529 115 q 500 13 529 39 q 432 -14 471 -14 m 703 -14 q 636 13 664 -14 q 608 76 608 39 q 636 142 608 115 q 703 168 664 168 q 771 142 742 168 q 800 76 800 115 q 771 13 800 39 q 703 -14 742 -14 z "},"м":{"ha":715,"x_min":40,"x_max":675,"o":"m 40 0 l 40 688 l 275 688 l 358 235 l 440 688 l 675 688 l 675 0 l 524 0 l 524 460 l 421 0 l 294 0 l 192 460 l 192 0 l 40 0 z "},"ē":{"ha":519,"x_min":33,"x_max":492,"o":"m 264 -11 q 140 5 192 -11 q 61 72 89 21 q 33 226 33 122 l 33 521 q 92 660 33 622 q 264 699 151 699 q 433 660 375 699 q 492 521 492 622 l 492 329 l 222 329 l 222 146 q 233 100 222 113 q 264 88 243 88 q 294 100 285 88 q 303 146 303 113 l 303 263 l 492 263 l 492 228 q 465 72 492 122 q 387 5 438 21 q 264 -11 336 -11 m 222 413 l 303 413 l 303 544 q 294 588 303 575 q 264 600 285 600 q 233 588 243 600 q 222 544 222 575 l 222 413 m 111 775 l 111 869 l 408 869 l 408 775 l 111 775 z "},"—":{"ha":939,"x_min":39,"x_max":900,"o":"m 39 333 l 39 458 l 900 458 l 900 333 l 39 333 z "},"∅":{"ha":575,"x_min":26,"x_max":549,"o":"m 26 72 l 517 788 l 549 788 l 57 72 l 26 72 m 297 -18 q 172 11 225 -17 q 88 100 118 39 q 58 267 58 161 l 58 590 q 124 772 58 714 q 300 831 190 831 q 469 772 404 831 q 533 590 533 714 l 533 268 q 504 99 533 161 q 422 9 475 36 q 297 -18 368 -18 m 296 94 q 329 111 317 94 q 342 164 342 128 l 342 647 q 328 699 342 683 q 296 715 315 715 q 263 699 276 715 q 250 647 250 683 l 250 164 q 263 111 250 128 q 296 94 276 94 z "},"н":{"ha":540,"x_min":40,"x_max":501,"o":"m 40 0 l 40 688 l 229 688 l 229 426 l 314 426 l 314 688 l 501 688 l 501 0 l 314 0 l 314 283 l 229 283 l 229 0 l 40 0 z "},"–":{"ha":631,"x_min":39,"x_max":590,"o":"m 39 333 l 39 458 l 590 458 l 590 333 l 39 333 z "},"ŋ":{"ha":539,"x_min":40,"x_max":499,"o":"m 267 -160 q 229 -158 247 -160 q 192 -151 211 -156 l 192 -57 q 204 -57 193 -57 q 227 -57 215 -57 q 239 -57 239 -57 q 292 -42 275 -57 q 310 3 310 -26 l 310 507 q 307 538 310 525 q 296 558 304 550 q 269 565 288 565 q 251 563 260 565 q 238 556 243 560 q 229 546 232 551 l 229 0 l 40 0 l 40 688 l 200 688 l 215 600 q 265 671 229 644 q 344 697 300 697 q 442 676 408 697 q 487 614 475 654 q 499 515 499 574 l 499 74 q 466 -70 499 -18 q 381 -142 433 -122 q 267 -160 328 -161 z "},"ę":{"ha":519,"x_min":33,"x_max":492,"o":"m 264 -11 q 140 5 192 -11 q 61 72 89 21 q 33 226 33 122 l 33 521 q 92 660 33 622 q 264 699 151 699 q 433 660 375 699 q 492 521 492 622 l 492 329 l 222 329 l 222 146 q 233 100 222 113 q 264 88 243 88 q 294 100 285 88 q 303 146 303 113 l 303 263 l 492 263 l 492 228 q 465 72 492 122 q 387 5 438 21 q 264 -11 336 -11 m 222 413 l 303 413 l 303 544 q 294 588 303 575 q 264 600 285 600 q 233 588 243 600 q 222 544 222 575 l 222 413 m 285 -206 q 196 -177 229 -206 q 163 -114 163 -149 q 195 -40 163 -75 q 281 3 228 -4 l 354 0 q 299 -37 317 -11 q 282 -87 282 -62 q 299 -126 282 -112 q 335 -140 317 -140 q 351 -138 344 -140 q 361 -135 358 -136 l 383 -182 q 353 -196 375 -186 q 285 -206 332 -206 z "},"=":{"ha":629,"x_min":69,"x_max":560,"o":"m 69 454 l 69 581 l 560 581 l 560 454 l 69 454 m 69 176 l 69 303 l 560 303 l 560 176 l 69 176 z "},"р":{"ha":536,"x_min":43,"x_max":501,"o":"m 43 -161 l 43 688 l 231 688 l 231 636 q 268 678 244 658 q 346 699 292 699 q 422 685 388 699 q 479 638 457 672 q 501 539 501 604 l 501 208 q 483 76 501 124 q 429 10 464 29 q 347 -8 394 -8 q 272 9 299 -8 q 232 50 246 26 l 232 -161 l 43 -161 m 272 97 q 292 101 285 97 q 305 113 300 104 q 311 131 310 121 q 313 157 313 142 l 313 522 q 311 549 313 538 q 305 567 310 560 q 292 579 300 575 q 272 583 285 583 q 253 580 261 583 q 241 571 246 576 q 234 559 236 565 q 232 547 232 553 l 232 156 q 235 122 232 136 q 248 103 239 108 q 272 97 257 97 z "},"э":{"ha":540,"x_min":40,"x_max":501,"o":"m 271 -15 q 144 2 196 -15 q 67 71 93 19 q 40 224 40 122 l 40 243 l 229 243 l 229 143 q 233 110 229 124 q 245 89 236 96 q 271 82 254 82 q 297 89 289 82 q 309 110 306 96 q 313 143 313 124 l 313 301 l 118 301 l 118 421 l 313 421 l 313 539 q 309 574 313 560 q 297 594 306 588 q 271 600 289 600 q 245 594 254 600 q 233 574 236 588 q 229 539 229 560 l 229 481 l 40 481 l 40 517 q 65 623 40 583 q 142 681 90 663 q 271 699 193 699 q 373 688 331 699 q 444 656 415 678 q 487 600 472 635 q 501 517 501 565 l 501 222 q 487 100 501 147 q 443 28 472 53 q 371 -6 414 3 q 271 -15 328 -15 z "},"с":{"ha":519,"x_min":33,"x_max":492,"o":"m 264 -11 q 140 4 192 -11 q 61 69 89 19 q 33 221 33 119 l 33 508 q 92 658 33 618 q 264 699 151 699 q 433 660 375 699 q 492 521 492 622 l 492 415 l 303 415 l 303 532 q 294 576 303 564 q 264 589 285 589 q 233 576 243 589 q 222 532 222 564 l 222 157 q 233 112 222 125 q 264 99 243 99 q 294 111 285 99 q 303 157 303 124 l 303 288 l 492 288 l 492 222 q 465 69 492 119 q 387 4 438 19 q 264 -11 336 -11 z "},"ð":{"ha":528,"x_min":33,"x_max":492,"o":"m 263 -11 q 169 -3 211 -11 q 97 27 128 4 q 50 97 67 50 q 33 224 33 143 l 33 490 q 60 599 33 561 q 133 653 86 638 q 242 668 179 668 q 273 667 257 668 q 300 660 289 665 q 291 728 300 697 q 261 778 282 760 q 201 797 240 797 q 143 794 171 797 q 79 785 115 790 l 79 903 q 142 915 106 910 q 236 919 179 919 q 368 899 318 919 q 445 830 418 878 q 482 703 472 782 q 492 508 492 624 l 492 233 q 477 110 492 158 q 433 35 463 61 q 361 -1 404 10 q 263 -11 318 -11 m 263 88 q 287 95 278 88 q 299 118 296 103 q 303 153 303 133 l 303 522 q 299 547 303 536 q 286 565 294 558 q 261 571 278 571 q 238 565 247 571 q 226 546 229 558 q 222 513 222 533 l 222 142 q 226 114 222 125 q 235 97 229 103 q 249 90 242 92 q 263 88 256 88 m 188 689 l 146 740 l 414 960 l 458 910 l 188 689 z "},"ẽ":{"ha":519,"x_min":33,"x_max":492,"o":"m 264 -11 q 140 5 192 -11 q 61 72 89 21 q 33 226 33 122 l 33 521 q 92 660 33 622 q 264 699 151 699 q 433 660 375 699 q 492 521 492 622 l 492 329 l 222 329 l 222 146 q 233 100 222 113 q 264 88 243 88 q 294 100 285 88 q 303 146 303 113 l 303 263 l 492 263 l 492 228 q 465 72 492 122 q 387 5 438 21 q 264 -11 336 -11 m 222 413 l 303 413 l 303 544 q 294 588 303 575 q 264 600 285 600 q 233 588 243 600 q 222 544 222 575 l 222 413 m 326 763 q 285 772 304 763 q 246 792 265 781 q 215 807 231 800 q 182 814 199 814 q 154 800 164 814 q 143 764 144 786 l 90 764 q 116 862 90 825 q 185 899 142 899 q 228 891 208 899 q 265 874 249 883 q 297 858 282 865 q 328 851 313 851 q 358 864 349 851 q 371 894 368 876 l 429 894 q 412 822 428 851 q 373 778 396 793 q 326 763 350 763 z "},"€":{"ha":660,"x_min":33,"x_max":614,"o":"m 378 -17 q 253 1 307 -17 q 169 71 199 18 q 140 229 140 124 l 140 317 l 35 317 l 67 383 l 140 383 l 140 432 l 33 432 l 65 500 l 140 500 l 140 644 q 170 756 140 715 q 253 814 200 797 q 378 831 307 831 q 502 813 449 831 q 585 756 556 796 q 614 644 614 715 l 614 594 l 421 594 l 421 656 q 415 693 421 681 q 401 710 410 706 q 378 715 392 715 q 354 710 364 715 q 339 693 344 706 q 333 656 333 681 l 333 500 l 526 500 l 493 432 l 333 432 l 333 383 l 472 383 l 440 317 l 333 317 l 333 156 q 339 118 333 132 q 354 100 344 104 q 378 96 364 96 q 401 100 392 96 q 416 118 411 104 q 421 156 421 132 l 421 251 l 614 251 l 614 231 q 585 71 614 124 q 502 1 556 18 q 378 -17 449 -17 z "},"!":{"ha":329,"x_min":60,"x_max":271,"o":"m 101 263 l 69 519 l 60 875 l 265 875 l 256 524 l 222 263 l 101 263 m 168 -11 q 95 17 125 -11 q 65 83 65 44 q 95 150 65 122 q 168 178 125 178 q 241 150 211 178 q 271 83 271 122 q 241 17 271 44 q 168 -11 211 -11 z "},"¡":{"ha":329,"x_min":60,"x_max":271,"o":"m 101 415 l 222 415 l 256 154 l 265 -197 l 60 -197 l 69 158 l 101 415 m 168 688 q 241 660 211 688 q 271 593 271 633 q 241 528 271 556 q 168 500 211 500 q 95 528 125 500 q 65 593 65 556 q 95 660 65 633 q 168 688 125 688 z "},"f":{"ha":385,"x_min":19,"x_max":374,"o":"m 64 0 l 64 554 l 19 554 l 19 661 l 64 661 l 64 718 q 78 804 64 772 q 117 851 93 836 q 169 872 140 867 q 226 876 197 876 q 287 874 256 876 q 342 870 318 872 q 374 868 367 868 l 374 782 q 349 784 374 782 q 296 786 325 786 q 262 764 271 786 q 253 719 253 742 l 253 661 l 374 661 l 374 554 l 253 554 l 253 0 l 64 0 z "},"ﬁ":{"ha":660,"x_min":19,"x_max":619,"o":"m 64 0 l 64 554 l 19 554 l 19 661 l 64 661 l 64 718 q 78 804 64 772 q 117 851 93 836 q 169 872 140 867 q 226 876 197 876 q 287 874 256 876 q 342 870 318 872 q 374 868 367 868 l 374 782 q 349 784 374 782 q 296 786 325 786 q 262 764 271 786 q 253 719 253 742 l 253 661 l 374 661 l 374 554 l 253 554 l 253 0 l 64 0 m 428 0 l 428 688 l 617 688 l 617 0 l 428 0 m 522 758 q 456 785 483 758 q 428 849 429 811 q 456 914 428 888 q 524 940 485 940 q 590 914 563 940 q 618 849 618 888 q 591 785 619 811 q 522 758 563 758 z "},"ﬂ":{"ha":660,"x_min":19,"x_max":617,"o":"m 64 0 l 64 554 l 19 554 l 19 661 l 64 661 l 64 718 q 78 804 64 772 q 117 851 93 836 q 169 872 140 867 q 226 876 197 876 q 287 874 256 876 q 342 870 318 872 q 374 868 367 868 l 374 782 q 349 784 374 782 q 296 786 325 786 q 262 764 271 786 q 253 719 253 742 l 253 661 l 374 661 l 374 554 l 253 554 l 253 0 l 64 0 m 428 0 l 428 876 l 617 876 l 617 0 l 428 0 z "},"ƒ":{"ha":526,"x_min":-114,"x_max":511,"o":"m 10 -199 q -35 -197 -8 -199 q -84 -194 -61 -196 q -114 -192 -107 -193 l -103 -82 l -31 -90 q 29 -83 7 -92 q 63 -42 51 -74 q 81 53 74 -11 l 136 526 l 50 526 l 61 628 l 147 628 l 161 713 q 220 838 176 803 q 318 874 264 874 q 360 873 332 874 q 417 872 388 872 q 474 869 447 871 q 511 867 500 868 l 499 757 q 459 765 489 760 q 397 769 429 769 q 353 742 363 769 q 339 682 343 715 l 332 628 l 469 628 l 460 526 l 321 526 l 260 -4 q 185 -151 249 -104 q 10 -199 122 -199 z "},"⁴":{"ha":372,"x_min":13,"x_max":351,"o":"m 182 328 l 182 424 l 13 424 l 13 519 l 179 821 l 299 821 l 299 503 l 351 503 l 351 424 l 299 424 l 299 328 l 182 328 m 107 503 l 182 503 l 182 635 l 107 503 z "},"⁄":{"ha":528,"x_min":-146,"x_max":529,"o":"m -146 0 l 415 819 l 529 819 l -35 0 l -146 0 z "},"₣":{"ha":511,"x_min":22,"x_max":474,"o":"m 86 0 l 86 144 l 22 144 l 22 229 l 86 229 l 86 821 l 474 821 l 474 686 l 286 686 l 286 497 l 451 497 l 451 346 l 286 346 l 286 229 l 382 229 l 382 144 l 286 144 l 286 0 l 86 0 z "},"g":{"ha":533,"x_min":33,"x_max":492,"o":"m 271 -167 q 218 -165 249 -167 q 158 -160 188 -162 q 106 -156 128 -158 q 81 -151 85 -153 l 81 -53 q 138 -59 100 -56 q 201 -62 176 -62 q 235 -60 218 -62 q 268 -48 253 -57 q 293 -22 283 -39 q 303 24 303 -6 l 303 124 q 286 90 297 110 q 251 56 275 71 q 178 40 226 40 q 122 47 149 40 q 76 75 96 54 q 45 140 57 96 q 33 260 33 183 l 33 540 q 49 624 33 593 q 88 669 64 654 q 135 690 111 685 q 181 694 160 694 q 256 686 224 694 q 303 638 289 678 l 324 688 l 492 688 l 492 121 q 485 23 492 74 q 458 -71 479 -28 q 392 -140 436 -114 q 271 -167 347 -167 m 263 151 q 287 159 278 151 q 299 182 296 167 q 303 217 303 197 l 303 565 q 295 573 300 569 q 283 580 290 576 q 261 583 275 583 q 233 571 243 583 q 222 525 222 558 l 222 208 q 226 179 222 190 q 235 163 229 168 q 249 154 242 157 q 263 151 256 151 z "},"ğ":{"ha":533,"x_min":33,"x_max":492,"o":"m 271 -167 q 218 -165 249 -167 q 158 -160 188 -162 q 106 -156 128 -158 q 81 -151 85 -153 l 81 -53 q 138 -59 100 -56 q 201 -62 176 -62 q 235 -60 218 -62 q 268 -48 253 -57 q 293 -22 283 -39 q 303 24 303 -6 l 303 124 q 286 90 297 110 q 251 56 275 71 q 178 40 226 40 q 122 47 149 40 q 76 75 96 54 q 45 140 57 96 q 33 260 33 183 l 33 540 q 49 624 33 593 q 88 669 64 654 q 135 690 111 685 q 181 694 160 694 q 256 686 224 694 q 303 638 289 678 l 324 688 l 492 688 l 492 121 q 485 23 492 74 q 458 -71 479 -28 q 392 -140 436 -114 q 271 -167 347 -167 m 263 151 q 287 159 278 151 q 299 182 296 167 q 303 217 303 197 l 303 565 q 295 573 300 569 q 283 580 290 576 q 261 583 275 583 q 233 571 243 583 q 222 525 222 558 l 222 208 q 226 179 222 190 q 235 163 229 168 q 249 154 242 157 q 263 151 256 151 m 265 757 q 162 782 197 757 q 115 841 126 807 q 103 901 103 875 l 203 901 q 224 860 204 874 q 267 846 243 846 q 312 859 293 846 q 332 901 331 872 l 435 901 q 417 830 433 863 q 363 777 400 797 q 265 757 326 757 z "},"ģ":{"ha":533,"x_min":33,"x_max":492,"o":"m 344 982 q 311 924 324 950 q 299 883 299 899 q 310 865 299 872 q 331 846 321 857 q 340 814 340 835 q 319 773 340 792 q 263 754 297 754 q 203 774 226 754 q 181 824 181 793 q 194 874 181 844 q 229 932 208 903 q 269 982 250 961 l 344 982 m 271 -167 q 218 -165 249 -167 q 158 -160 188 -162 q 106 -156 128 -158 q 81 -151 85 -153 l 81 -53 q 138 -59 100 -56 q 201 -62 176 -62 q 235 -60 218 -62 q 268 -48 253 -57 q 293 -22 283 -39 q 303 24 303 -6 l 303 124 q 286 90 297 110 q 251 56 275 71 q 178 40 226 40 q 122 47 149 40 q 76 75 96 54 q 45 140 57 96 q 33 260 33 183 l 33 540 q 49 624 33 593 q 88 669 64 654 q 135 690 111 685 q 181 694 160 694 q 256 686 224 694 q 303 638 289 678 l 324 688 l 492 688 l 492 121 q 485 23 492 74 q 458 -71 479 -28 q 392 -140 436 -114 q 271 -167 347 -167 m 263 151 q 287 159 278 151 q 299 182 296 167 q 303 217 303 197 l 303 565 q 295 573 300 569 q 283 580 290 576 q 261 583 275 583 q 233 571 243 583 q 222 525 222 558 l 222 208 q 226 179 222 190 q 235 163 229 168 q 249 154 242 157 q 263 151 256 151 z "},"ġ":{"ha":533,"x_min":33,"x_max":492,"o":"m 271 -167 q 218 -165 249 -167 q 158 -160 188 -162 q 106 -156 128 -158 q 81 -151 85 -153 l 81 -53 q 138 -59 100 -56 q 201 -62 176 -62 q 235 -60 218 -62 q 268 -48 253 -57 q 293 -22 283 -39 q 303 24 303 -6 l 303 124 q 286 90 297 110 q 251 56 275 71 q 178 40 226 40 q 122 47 149 40 q 76 75 96 54 q 45 140 57 96 q 33 260 33 183 l 33 540 q 49 624 33 593 q 88 669 64 654 q 135 690 111 685 q 181 694 160 694 q 256 686 224 694 q 303 638 289 678 l 324 688 l 492 688 l 492 121 q 485 23 492 74 q 458 -71 479 -28 q 392 -140 436 -114 q 271 -167 347 -167 m 263 151 q 287 159 278 151 q 299 182 296 167 q 303 217 303 197 l 303 565 q 295 573 300 569 q 283 580 290 576 q 261 583 275 583 q 233 571 243 583 q 222 525 222 558 l 222 208 q 226 179 222 190 q 235 163 229 168 q 249 154 242 157 q 263 151 256 151 m 267 758 q 201 785 228 758 q 172 849 174 811 q 201 914 172 888 q 268 940 229 940 q 335 914 307 940 q 363 849 363 888 q 335 785 364 811 q 267 758 307 758 z "},"г":{"ha":414,"x_min":40,"x_max":399,"o":"m 40 0 l 40 688 l 399 688 l 399 553 l 240 553 l 240 0 l 40 0 z "},"ß":{"ha":661,"x_min":-62,"x_max":626,"o":"m 21 -204 q -23 -202 6 -204 q -62 -199 -51 -200 l -62 -92 q -53 -93 -57 -93 q -43 -94 -49 -93 q -26 -97 -36 -96 q -1 -97 -15 -97 q 67 -68 50 -97 q 83 1 83 -39 l 83 558 l 25 558 l 25 688 l 83 688 l 83 725 q 102 811 83 778 q 177 860 121 844 q 342 876 233 876 q 535 847 468 876 q 603 740 603 817 l 603 608 q 568 514 603 550 q 492 475 533 478 l 492 469 q 554 451 524 467 q 606 408 585 436 q 626 339 626 381 l 626 168 q 596 60 626 96 q 510 12 565 24 q 379 0 454 0 l 311 0 l 311 96 l 351 96 q 393 107 379 96 q 413 150 407 118 q 418 246 418 182 l 418 332 q 413 376 418 358 q 391 405 407 394 q 342 415 375 415 l 311 415 l 313 513 l 368 513 q 408 538 399 513 q 417 607 417 563 l 417 681 q 405 762 417 738 q 344 786 393 786 q 299 775 314 786 q 278 744 283 764 q 272 699 272 725 l 274 33 q 250 -90 274 -43 q 189 -162 226 -137 q 107 -195 151 -186 q 21 -204 63 -204 z "},"ѓ":{"ha":414,"x_min":40,"x_max":399,"o":"m 40 0 l 40 688 l 399 688 l 399 553 l 240 553 l 240 0 l 40 0 m 131 763 l 211 906 l 389 906 l 249 763 l 131 763 z "},"`":{"ha":306,"x_min":0,"x_max":258,"o":"m 140 763 l 0 906 l 179 906 l 258 763 l 140 763 z "},"̀":{"ha":0,"x_min":0,"x_max":258,"o":"m 140 763 l 0 906 l 179 906 l 258 763 l 140 763 z "},">":{"ha":436,"x_min":47,"x_max":389,"o":"m 47 174 l 47 343 l 233 460 l 47 576 l 47 740 l 389 508 l 389 407 l 47 174 z "},"≥":{"ha":436,"x_min":47,"x_max":389,"o":"m 47 -6 l 47 119 l 381 119 l 381 -6 l 47 -6 m 47 174 l 47 343 l 233 460 l 47 576 l 47 740 l 389 508 l 389 407 l 47 174 z "},"«":{"ha":758,"x_min":46,"x_max":713,"o":"m 543 140 l 357 407 l 544 678 l 713 678 l 525 407 l 710 140 l 543 140 m 232 140 l 46 407 l 233 678 l 401 678 l 214 407 l 399 140 l 232 140 z "},"»":{"ha":758,"x_min":46,"x_max":713,"o":"m 360 140 l 544 407 l 357 678 l 524 678 l 713 407 l 525 140 l 360 140 m 49 140 l 233 407 l 46 678 l 214 678 l 401 407 l 214 140 l 49 140 z "},"‹":{"ha":446,"x_min":46,"x_max":401,"o":"m 232 140 l 46 407 l 233 678 l 401 678 l 214 407 l 399 140 l 232 140 z "},"›":{"ha":446,"x_min":46,"x_max":401,"o":"m 47 140 l 233 407 l 46 678 l 214 678 l 401 407 l 214 140 l 47 140 z "},"h":{"ha":536,"x_min":43,"x_max":501,"o":"m 43 0 l 43 875 l 219 875 l 219 604 q 265 673 228 649 q 347 697 301 697 q 444 676 411 697 q 490 613 478 654 q 501 515 501 572 l 501 0 l 313 0 l 313 489 q 311 511 313 501 q 305 529 310 521 q 292 542 300 538 q 269 547 283 547 q 249 544 258 547 q 236 535 240 540 q 232 525 232 531 l 232 0 l 43 0 z "},"х":{"ha":496,"x_min":-3,"x_max":496,"o":"m -3 0 l 128 356 l 21 688 l 201 688 l 254 496 l 322 688 l 496 688 l 375 356 l 489 0 l 310 0 l 253 199 l 182 0 l -3 0 z "},"ъ":{"ha":590,"x_min":17,"x_max":550,"o":"m 89 0 l 89 576 l 17 576 l 17 688 l 278 688 l 278 472 l 393 472 q 469 460 433 472 q 527 414 504 447 q 550 313 550 381 l 550 219 q 536 101 550 144 q 498 35 522 57 q 440 7 474 14 q 364 0 406 0 l 89 0 m 278 97 l 319 97 q 347 104 339 97 q 358 125 356 111 q 361 160 361 139 l 361 285 q 359 326 361 310 q 348 349 357 342 q 319 357 339 357 l 278 357 l 278 97 z "},"ħ":{"ha":539,"x_min":-4,"x_max":501,"o":"m -4 729 l -4 821 l 310 821 l 310 729 l -4 729 m 43 0 l 43 875 l 219 875 l 219 604 q 265 673 228 649 q 347 697 301 697 q 444 676 411 697 q 490 613 478 654 q 501 515 501 572 l 501 0 l 313 0 l 313 489 q 311 511 313 501 q 305 529 310 521 q 292 542 300 538 q 269 547 283 547 q 249 544 258 547 q 236 535 240 540 q 232 525 232 531 l 232 0 l 43 0 z "},"̉":{"ha":0,"x_min":15,"x_max":244,"o":"m 81 763 l 81 778 q 95 809 81 799 q 124 829 110 819 q 138 854 138 839 l 138 863 q 133 882 138 872 q 118 892 129 892 q 97 863 99 892 l 15 875 q 46 938 18 917 q 126 958 74 958 q 215 942 185 958 q 244 867 244 926 l 244 861 q 228 817 244 829 q 197 799 213 806 q 181 776 181 793 l 181 763 l 81 763 z "},"̛":{"ha":0,"x_min":14,"x_max":224,"o":"m 15 604 l 14 686 l 40 686 q 101 750 101 686 l 101 778 l 224 778 l 224 751 q 172 638 224 671 q 15 604 119 604 z "},"˝":{"ha":328,"x_min":0,"x_max":328,"o":"m 0 763 l 17 906 l 160 906 l 72 763 l 0 763 m 144 763 l 185 906 l 328 906 l 229 763 l 144 763 z "},"̋":{"ha":0,"x_min":0,"x_max":328,"o":"m 0 763 l 17 906 l 160 906 l 72 763 l 0 763 m 144 763 l 185 906 l 328 906 l 229 763 l 144 763 z "},"-":{"ha":383,"x_min":46,"x_max":338,"o":"m 46 333 l 46 458 l 338 458 l 338 333 l 46 333 z "},"i":{"ha":275,"x_min":42,"x_max":233,"o":"m 43 0 l 43 688 l 232 688 l 232 0 l 43 0 m 136 758 q 70 785 97 758 q 42 849 43 811 q 70 914 42 888 q 138 940 99 940 q 204 914 176 940 q 232 849 232 888 q 205 785 233 811 q 136 758 176 758 z "},"і":{"ha":275,"x_min":42,"x_max":233,"o":"m 43 0 l 43 688 l 232 688 l 232 0 l 43 0 m 136 758 q 70 785 97 758 q 42 849 43 811 q 70 914 42 888 q 138 940 99 940 q 204 914 176 940 q 232 849 232 888 q 205 785 233 811 q 136 758 176 758 z "},"я":{"ha":578,"x_min":17,"x_max":538,"o":"m 17 0 l 94 221 q 135 288 114 271 q 183 308 156 306 q 93 349 122 315 q 64 460 64 382 l 64 508 q 106 642 64 597 q 235 688 147 688 l 538 688 l 538 0 l 338 0 l 338 289 l 311 258 q 283 181 296 221 q 258 94 271 140 l 231 0 l 17 0 m 303 361 l 338 361 l 338 585 l 293 585 q 263 556 271 585 q 256 493 256 526 l 256 471 q 269 383 256 406 q 303 361 282 361 z "},"í":{"ha":275,"x_min":43,"x_max":319,"o":"m 43 0 l 43 688 l 232 688 l 232 0 l 43 0 m 61 763 l 142 906 l 319 906 l 179 763 l 61 763 z "},"ǐ":{"ha":275,"x_min":-50,"x_max":324,"o":"m 43 0 l 43 688 l 232 688 l 232 0 l 43 0 m 85 757 l -50 911 l 64 911 l 139 836 l 214 911 l 324 911 l 188 757 l 85 757 z "},"î":{"ha":275,"x_min":-50,"x_max":324,"o":"m 43 0 l 43 688 l 232 688 l 232 0 l 43 0 m -50 757 l 85 911 l 188 911 l 324 757 l 213 757 l 138 832 l 63 757 l -50 757 z "},"ï":{"ha":275,"x_min":-28,"x_max":301,"o":"m 43 0 l 43 688 l 232 688 l 232 0 l 43 0 m 47 758 q -6 779 15 758 q -28 829 -28 800 q -6 880 -28 860 q 47 900 15 900 q 100 880 79 900 q 121 829 121 860 q 100 779 121 800 q 47 758 79 758 m 228 758 q 174 779 196 758 q 153 829 153 800 q 174 880 153 860 q 228 900 196 900 q 281 880 260 900 q 301 829 301 860 q 281 779 301 800 q 228 758 260 758 z "},"ị":{"ha":275,"x_min":42,"x_max":233,"o":"m 43 0 l 43 688 l 232 688 l 232 0 l 43 0 m 136 758 q 70 785 97 758 q 42 849 43 811 q 70 914 42 888 q 138 940 99 940 q 204 914 176 940 q 232 849 232 888 q 205 785 233 811 q 136 758 176 758 m 139 -193 q 85 -172 107 -193 q 64 -121 64 -150 q 85 -69 64 -90 q 139 -47 107 -47 q 192 -69 169 -47 q 215 -121 215 -90 q 192 -172 215 -150 q 139 -193 169 -193 z "},"ı":{"ha":275,"x_min":43,"x_max":232,"o":"m 43 0 l 43 688 l 232 688 l 232 0 l 43 0 z "},"е":{"ha":519,"x_min":33,"x_max":492,"o":"m 264 -11 q 140 5 192 -11 q 61 72 89 21 q 33 226 33 122 l 33 521 q 92 660 33 622 q 264 699 151 699 q 433 660 375 699 q 492 521 492 622 l 492 329 l 222 329 l 222 146 q 233 100 222 113 q 264 88 243 88 q 294 100 285 88 q 303 146 303 113 l 303 263 l 492 263 l 492 228 q 465 72 492 122 q 387 5 438 21 q 264 -11 336 -11 m 222 413 l 303 413 l 303 544 q 294 588 303 575 q 264 600 285 600 q 233 588 243 600 q 222 544 222 575 l 222 413 z "},"ѐ":{"ha":519,"x_min":33,"x_max":492,"o":"m 264 -11 q 140 5 192 -11 q 61 72 89 21 q 33 226 33 122 l 33 521 q 92 660 33 622 q 264 699 151 699 q 433 660 375 699 q 492 521 492 622 l 492 329 l 222 329 l 222 146 q 233 100 222 113 q 264 88 243 88 q 294 100 285 88 q 303 146 303 113 l 303 263 l 492 263 l 492 228 q 465 72 492 122 q 387 5 438 21 q 264 -11 336 -11 m 222 413 l 303 413 l 303 544 q 294 588 303 575 q 264 600 285 600 q 233 588 243 600 q 222 544 222 575 l 222 413 m 228 763 l 88 906 l 267 906 l 346 763 l 228 763 z "},"ì":{"ha":275,"x_min":-36,"x_max":232,"o":"m 43 0 l 43 688 l 232 688 l 232 0 l 43 0 m 104 763 l -36 906 l 143 906 l 222 763 l 104 763 z "},"ỉ":{"ha":275,"x_min":19,"x_max":249,"o":"m 43 0 l 43 688 l 232 688 l 232 0 l 43 0 m 85 763 l 85 778 q 99 809 85 799 q 128 829 114 819 q 142 854 142 839 l 142 863 q 138 882 142 872 q 122 892 133 892 q 101 863 103 892 l 19 875 q 50 938 22 917 q 131 958 78 958 q 219 942 189 958 q 249 867 249 926 l 249 861 q 233 817 249 829 q 201 799 217 806 q 185 776 185 793 l 185 763 l 85 763 z "},"и":{"ha":536,"x_min":40,"x_max":497,"o":"m 40 0 l 40 688 l 206 688 l 206 338 l 333 688 l 497 688 l 497 0 l 332 0 l 332 396 q 263 197 297 296 q 190 0 228 99 l 40 0 z "},"ѝ":{"ha":536,"x_min":40,"x_max":497,"o":"m 40 0 l 40 688 l 206 688 l 206 338 l 333 688 l 497 688 l 497 0 l 332 0 l 332 396 q 263 197 297 296 q 190 0 228 99 l 40 0 m 236 763 l 96 906 l 275 906 l 354 763 l 236 763 z "},"й":{"ha":536,"x_min":40,"x_max":497,"o":"m 40 0 l 40 688 l 206 688 l 206 338 l 333 688 l 497 688 l 497 0 l 332 0 l 332 396 q 263 197 297 296 q 190 0 228 99 l 40 0 m 265 757 q 162 782 197 757 q 115 841 126 807 q 103 901 103 875 l 203 901 q 224 860 204 874 q 267 846 243 846 q 312 859 293 846 q 332 901 331 872 l 435 901 q 417 830 433 863 q 363 777 400 797 q 265 757 326 757 z "},"ī":{"ha":275,"x_min":-11,"x_max":286,"o":"m 43 0 l 43 688 l 232 688 l 232 0 l 43 0 m -11 775 l -11 869 l 286 869 l 286 775 l -11 775 z "},"∞":{"ha":961,"x_min":46,"x_max":915,"o":"m 226 132 q 90 185 133 132 q 46 343 46 238 q 89 500 46 446 q 228 554 132 554 q 329 531 283 554 q 413 476 375 508 q 479 414 450 444 q 544 476 507 444 q 630 531 582 508 q 735 554 678 554 q 872 500 829 554 q 915 343 915 446 q 872 185 915 239 q 735 132 829 132 q 631 155 678 132 q 547 211 585 178 q 482 275 510 244 q 415 208 453 242 q 330 153 376 175 q 226 132 283 132 m 233 243 q 319 272 283 243 q 400 343 354 301 q 343 393 371 372 q 289 425 315 414 q 233 436 263 436 q 169 412 190 436 q 147 340 147 388 q 169 269 147 294 q 233 243 190 243 m 728 249 q 792 273 771 249 q 814 346 814 297 q 792 417 814 392 q 728 443 771 443 q 684 435 704 443 q 645 415 664 428 q 606 383 626 401 q 561 343 586 365 q 623 290 596 310 q 676 259 650 269 q 728 249 701 249 z "},"∫":{"ha":560,"x_min":-151,"x_max":542,"o":"m -50 -417 q -100 -412 -75 -415 q -151 -400 -125 -408 l -131 -281 l -37 -293 q 3 -269 -8 -290 q 19 -226 15 -249 l 185 718 q 234 823 197 789 q 324 866 271 857 q 438 875 378 875 q 495 871 468 875 q 542 860 522 867 l 521 739 l 425 751 q 384 729 396 750 q 368 685 372 708 l 203 -258 q 153 -365 190 -331 q 64 -408 117 -399 q -50 -417 11 -417 z "},"ё":{"ha":519,"x_min":33,"x_max":492,"o":"m 264 -11 q 140 5 192 -11 q 61 72 89 21 q 33 226 33 122 l 33 521 q 92 660 33 622 q 264 699 151 699 q 433 660 375 699 q 492 521 492 622 l 492 329 l 222 329 l 222 146 q 233 100 222 113 q 264 88 243 88 q 294 100 285 88 q 303 146 303 113 l 303 263 l 492 263 l 492 228 q 465 72 492 122 q 387 5 438 21 q 264 -11 336 -11 m 222 413 l 303 413 l 303 544 q 294 588 303 575 q 264 600 285 600 q 233 588 243 600 q 222 544 222 575 l 222 413 m 171 758 q 117 779 139 758 q 96 829 96 800 q 117 880 96 860 q 171 900 139 900 q 224 880 203 900 q 244 829 244 860 q 224 779 244 800 q 171 758 203 758 m 351 758 q 298 779 319 758 q 276 829 276 800 q 298 880 276 860 q 351 900 319 900 q 404 880 383 900 q 425 829 425 860 q 404 779 425 800 q 351 758 383 758 z "},"į":{"ha":275,"x_min":40,"x_max":261,"o":"m 43 0 l 43 688 l 232 688 l 232 0 l 43 0 m 136 758 q 70 785 97 758 q 42 849 43 811 q 70 914 42 888 q 138 940 99 940 q 204 914 176 940 q 232 849 232 888 q 205 785 233 811 q 136 758 176 758 m 163 -206 q 74 -177 107 -206 q 40 -114 40 -149 q 73 -40 40 -75 q 158 3 106 -4 l 232 0 q 177 -37 194 -11 q 160 -87 160 -62 q 177 -126 160 -112 q 213 -140 194 -140 q 229 -138 222 -140 q 239 -135 236 -136 l 261 -182 q 231 -196 253 -186 q 163 -206 210 -206 z "},"ĩ":{"ha":275,"x_min":-32,"x_max":306,"o":"m 43 0 l 43 688 l 232 688 l 232 0 l 43 0 m 204 763 q 163 772 182 763 q 124 792 143 781 q 92 807 108 800 q 60 814 76 814 q 32 800 42 814 q 21 764 22 786 l -32 764 q -6 862 -32 825 q 63 899 19 899 q 106 891 86 899 q 143 874 126 883 q 175 858 160 865 q 206 851 190 851 q 236 864 226 851 q 249 894 246 876 l 307 894 q 290 822 306 851 q 251 778 274 793 q 204 763 228 763 z "},"ю":{"ha":826,"x_min":40,"x_max":789,"o":"m 560 -15 q 433 2 485 -15 q 356 71 382 19 q 329 222 329 122 l 329 518 q 354 623 329 583 q 431 681 379 663 q 560 699 482 699 q 688 681 638 699 q 764 623 739 663 q 789 518 789 583 l 789 224 q 763 71 789 122 q 685 2 736 19 q 560 -15 633 -15 m 40 0 l 40 688 l 229 688 l 229 426 l 394 426 l 394 283 l 229 283 l 229 0 l 40 0 m 560 82 q 584 89 575 82 q 597 110 593 96 q 600 143 600 124 l 600 540 q 597 574 600 561 q 584 594 593 588 q 560 600 575 600 q 534 594 543 600 q 522 574 525 588 q 518 540 518 561 l 518 143 q 522 110 518 124 q 534 89 525 96 q 560 82 543 82 z "},"j":{"ha":269,"x_min":-87,"x_max":232,"o":"m -29 -157 q -61 -154 -40 -156 q -87 -151 -82 -153 l -87 -53 q -56 -52 -75 -53 q -28 -50 -37 -51 q 26 -28 8 -49 q 43 19 43 -8 l 43 688 l 232 688 l 232 76 q 194 -77 232 -25 q 98 -146 157 -129 q -29 -157 39 -162 m 135 758 q 69 785 96 758 q 40 849 42 811 q 69 914 40 888 q 136 940 97 940 q 203 914 175 940 q 231 849 231 888 q 203 785 232 811 q 135 758 175 758 z "},"ȷ":{"ha":269,"x_min":-87,"x_max":232,"o":"m -29 -157 q -61 -154 -40 -156 q -87 -151 -82 -153 l -87 -53 q -56 -52 -75 -53 q -28 -50 -37 -51 q 26 -28 8 -49 q 43 19 43 -8 l 43 688 l 232 688 l 232 76 q 194 -77 232 -25 q 98 -146 157 -129 q -29 -157 39 -162 z "},"ј":{"ha":269,"x_min":-87,"x_max":232,"o":"m -29 -157 q -61 -154 -40 -156 q -87 -151 -82 -153 l -87 -53 q -56 -52 -75 -53 q -28 -50 -37 -51 q 26 -28 8 -49 q 43 19 43 -8 l 43 688 l 232 688 l 232 76 q 194 -77 232 -25 q 98 -146 157 -129 q -29 -157 39 -162 m 135 758 q 69 785 96 758 q 40 849 42 811 q 69 914 40 888 q 136 940 97 940 q 203 914 175 940 q 231 849 231 888 q 203 785 232 811 q 135 758 175 758 z "},"k":{"ha":554,"x_min":43,"x_max":547,"o":"m 340 0 l 236 397 l 361 688 l 547 688 l 414 394 l 544 0 l 340 0 m 43 0 l 43 876 l 232 876 l 232 0 l 43 0 z "},"к":{"ha":583,"x_min":40,"x_max":554,"o":"m 40 0 l 40 688 l 229 688 l 229 476 q 318 593 267 544 q 431 666 369 642 q 554 682 492 690 l 554 558 q 497 538 521 553 q 454 504 472 522 q 435 482 444 494 q 419 457 426 469 l 551 0 l 333 0 l 251 247 q 240 228 246 239 q 229 208 235 217 l 229 0 l 40 0 z "},"ķ":{"ha":554,"x_min":43,"x_max":547,"o":"m 340 0 l 236 397 l 361 688 l 547 688 l 414 394 l 544 0 l 340 0 m 43 0 l 43 876 l 232 876 l 232 0 l 43 0 m 194 -279 q 228 -222 217 -247 q 240 -179 240 -196 q 230 -160 240 -168 q 209 -142 219 -153 q 199 -111 199 -131 q 220 -69 199 -87 q 276 -50 242 -50 q 335 -70 313 -50 q 358 -119 358 -90 q 344 -169 358 -140 q 311 -228 331 -199 q 271 -279 292 -257 l 194 -279 z "},"ќ":{"ha":583,"x_min":40,"x_max":554,"o":"m 40 0 l 40 688 l 229 688 l 229 476 q 318 593 267 544 q 431 666 369 642 q 554 682 492 690 l 554 558 q 497 538 521 553 q 454 504 472 522 q 435 482 444 494 q 419 457 426 469 l 551 0 l 333 0 l 251 247 q 240 228 246 239 q 229 208 235 217 l 229 0 l 40 0 m 215 763 l 296 906 l 474 906 l 333 763 l 215 763 z "},"l":{"ha":275,"x_min":43,"x_max":232,"o":"m 43 0 l 43 876 l 232 876 l 232 0 l 43 0 z "},"ĺ":{"ha":275,"x_min":43,"x_max":324,"o":"m 43 0 l 43 876 l 232 876 l 232 0 l 43 0 m 46 936 l 154 1072 l 324 1072 l 151 936 l 46 936 z "},"ľ":{"ha":404,"x_min":43,"x_max":417,"o":"m 43 0 l 43 876 l 232 876 l 232 0 l 43 0 m 267 697 l 303 911 l 415 911 l 332 697 l 267 697 z "},"ļ":{"ha":275,"x_min":43,"x_max":232,"o":"m 43 0 l 43 876 l 232 876 l 232 0 l 43 0 m 53 -279 q 87 -222 75 -247 q 99 -179 99 -196 q 88 -160 99 -168 q 67 -142 78 -153 q 57 -111 57 -131 q 78 -69 57 -87 q 135 -50 100 -50 q 194 -70 171 -50 q 217 -119 217 -90 q 203 -169 217 -140 q 169 -228 189 -199 q 129 -279 150 -257 l 53 -279 z "},"←":{"ha":1111,"x_min":46,"x_max":1065,"o":"m 454 18 l 46 344 l 456 674 l 546 582 l 372 424 l 1065 417 l 1064 268 l 375 271 l 546 110 l 454 18 z "},"↔":{"ha":1425,"x_min":44,"x_max":1378,"o":"m 454 92 l 44 418 l 454 747 l 546 656 l 371 496 l 1051 496 l 876 656 l 968 747 l 1378 418 l 968 92 l 876 183 l 1046 342 l 378 342 l 546 183 l 454 92 z "},"<":{"ha":436,"x_min":47,"x_max":389,"o":"m 389 174 l 47 406 l 47 507 l 389 740 l 389 571 l 203 454 l 389 339 l 389 174 z "},"≤":{"ha":433,"x_min":47,"x_max":389,"o":"m 388 174 l 47 407 l 47 508 l 388 740 l 388 576 l 203 460 l 388 343 l 388 174 m 389 -6 l 56 -6 l 56 119 l 389 119 l 389 -6 z "},"љ":{"ha":903,"x_min":17,"x_max":863,"o":"m 17 0 l 17 97 q 65 129 42 97 q 92 203 89 161 l 135 688 l 590 688 l 590 472 l 706 472 q 783 460 747 472 q 840 413 818 447 q 863 313 863 379 l 863 225 q 849 105 863 150 q 812 38 836 60 q 753 8 788 15 q 678 0 719 0 l 399 0 l 399 554 l 325 554 l 285 154 q 278 103 282 131 q 263 53 275 76 q 222 15 250 29 q 140 0 193 0 l 17 0 m 590 97 l 633 97 q 660 104 651 97 q 671 125 668 111 q 674 160 674 139 l 674 285 q 672 326 674 310 q 660 349 669 342 q 633 357 651 357 l 590 357 l 590 97 z "},"¬":{"ha":775,"x_min":53,"x_max":729,"o":"m 608 156 l 608 429 l 53 429 l 53 567 l 729 567 l 729 156 l 608 156 z "},"ſ":{"ha":536,"x_min":8,"x_max":483,"o":"m 128 -199 q 68 -198 99 -200 q 8 -190 38 -196 l 8 -96 l 56 -96 q 78 -92 67 -96 q 99 -83 89 -89 q 119 -66 111 -78 q 128 -40 126 -54 l 128 501 l 69 501 l 69 611 l 128 611 l 128 718 q 158 824 128 790 q 238 867 188 858 q 346 876 288 876 q 417 870 382 876 q 483 857 453 864 l 467 750 q 413 763 438 760 q 360 767 389 767 q 325 741 333 767 q 317 692 317 715 l 317 35 q 292 -97 317 -47 q 224 -169 267 -146 q 128 -199 182 -193 z "},"◊":{"ha":679,"x_min":46,"x_max":635,"o":"m 279 -47 l 46 406 l 279 857 l 401 857 l 635 406 l 401 -47 l 279 -47 m 340 129 l 472 410 l 343 683 l 210 404 l 340 129 z "},"ł":{"ha":411,"x_min":28,"x_max":382,"o":"m 110 0 l 110 224 l 28 188 l 28 267 l 110 304 l 110 876 l 299 876 l 299 388 l 382 425 l 382 346 l 299 308 l 299 0 l 110 0 z "},"m":{"ha":804,"x_min":43,"x_max":768,"o":"m 43 0 l 43 688 l 204 688 l 219 600 q 267 670 232 643 q 347 697 301 697 q 459 664 426 697 q 499 567 492 631 l 479 568 q 524 660 486 622 q 617 697 563 697 q 738 653 707 697 q 768 519 768 608 l 768 0 l 579 0 l 579 510 q 570 551 579 539 q 542 564 561 564 q 516 558 528 564 q 500 542 504 551 l 500 0 l 311 0 l 311 511 q 302 551 311 539 q 274 564 293 564 q 248 559 258 564 q 232 546 238 554 l 232 0 l 43 0 z "},"¯":{"ha":325,"x_min":14,"x_max":311,"o":"m 14 775 l 14 869 l 311 869 l 311 775 l 14 775 z "},"̄":{"ha":0,"x_min":14,"x_max":311,"o":"m 14 775 l 14 869 l 311 869 l 311 775 l 14 775 z "},"µ":{"ha":550,"x_min":46,"x_max":504,"o":"m 46 -179 l 46 688 l 235 688 l 235 142 q 251 127 240 132 q 276 122 263 122 q 297 127 289 122 q 310 144 306 132 q 315 178 315 157 l 315 688 l 504 688 l 504 172 q 492 72 504 113 q 446 10 479 31 q 351 -10 413 -10 q 271 17 307 -10 q 222 88 235 43 l 207 -179 l 46 -179 z "},"−":{"ha":792,"x_min":93,"x_max":600,"o":"m 93 296 l 93 424 l 600 424 l 600 296 l 93 296 z "},"×":{"ha":557,"x_min":46,"x_max":511,"o":"m 424 129 l 279 272 l 138 133 l 47 222 l 190 363 l 46 506 l 136 596 l 279 453 l 421 596 l 510 506 l 369 363 l 511 218 l 424 129 z "},"n":{"ha":536,"x_min":43,"x_max":501,"o":"m 43 0 l 43 688 l 203 688 l 219 600 q 267 671 232 644 q 347 697 303 697 q 444 676 411 697 q 490 613 478 654 q 501 515 501 572 l 501 0 l 313 0 l 313 507 q 311 530 313 519 q 306 548 310 540 q 294 560 301 556 q 272 565 286 565 q 254 562 263 565 q 240 554 246 558 q 232 546 235 550 l 232 0 l 43 0 z "},"ń":{"ha":536,"x_min":43,"x_max":501,"o":"m 43 0 l 43 688 l 203 688 l 219 600 q 267 671 232 644 q 347 697 303 697 q 444 676 411 697 q 490 613 478 654 q 501 515 501 572 l 501 0 l 313 0 l 313 507 q 311 530 313 519 q 306 548 310 540 q 294 560 301 556 q 272 565 286 565 q 254 562 263 565 q 240 554 246 558 q 232 546 235 550 l 232 0 l 43 0 m 192 763 l 272 906 l 450 906 l 310 763 l 192 763 z "},"ň":{"ha":536,"x_min":43,"x_max":501,"o":"m 43 0 l 43 688 l 203 688 l 219 600 q 267 671 232 644 q 347 697 303 697 q 444 676 411 697 q 490 613 478 654 q 501 515 501 572 l 501 0 l 313 0 l 313 507 q 311 530 313 519 q 306 548 310 540 q 294 560 301 556 q 272 565 286 565 q 254 562 263 565 q 240 554 246 558 q 232 546 235 550 l 232 0 l 43 0 m 217 757 l 82 911 l 196 911 l 271 836 l 346 911 l 456 911 l 319 757 l 217 757 z "},"ņ":{"ha":536,"x_min":43,"x_max":501,"o":"m 43 0 l 43 688 l 203 688 l 219 600 q 267 671 232 644 q 347 697 303 697 q 444 676 411 697 q 490 613 478 654 q 501 515 501 572 l 501 0 l 313 0 l 313 507 q 311 530 313 519 q 306 548 310 540 q 294 560 301 556 q 272 565 286 565 q 254 562 263 565 q 240 554 246 558 q 232 546 235 550 l 232 0 l 43 0 m 185 -279 q 219 -222 207 -247 q 231 -179 231 -196 q 220 -160 231 -168 q 199 -142 210 -153 q 189 -111 189 -131 q 210 -69 189 -87 q 267 -50 232 -50 q 326 -70 303 -50 q 349 -119 349 -90 q 335 -169 349 -140 q 301 -228 321 -199 q 261 -279 282 -257 l 185 -279 z "},"њ":{"ha":813,"x_min":40,"x_max":774,"o":"m 40 0 l 40 688 l 229 688 l 229 426 l 314 426 l 314 688 l 501 688 l 501 472 l 617 472 q 692 460 657 472 q 751 413 728 447 q 774 313 774 379 l 774 225 q 760 105 774 150 q 723 38 747 60 q 665 8 699 15 q 588 0 631 0 l 314 0 l 314 283 l 229 283 l 229 0 l 40 0 m 501 97 l 543 97 q 571 104 563 97 q 582 125 579 111 q 585 160 585 139 l 585 285 q 582 326 585 310 q 571 349 579 342 q 543 357 563 357 l 501 357 l 501 97 z "},"↗":{"ha":788,"x_min":-6,"x_max":771,"o":"m 101 76 l -6 183 l 485 668 l 250 663 l 250 792 l 771 850 l 713 328 l 583 328 l 596 564 l 101 76 z "},"↖":{"ha":835,"x_min":58,"x_max":831,"o":"m 724 46 l 239 536 l 246 301 l 117 301 l 58 821 l 581 764 l 581 635 l 344 646 l 831 151 l 724 46 z "},"≠":{"ha":586,"x_min":47,"x_max":540,"o":"m 47 -29 l 160 176 l 94 176 l 94 303 l 229 303 l 311 454 l 94 454 l 94 581 l 381 581 l 458 725 l 540 725 l 463 581 l 538 581 l 538 454 l 392 454 l 310 303 l 538 303 l 538 176 l 240 176 l 128 -29 l 47 -29 z "},"ñ":{"ha":536,"x_min":43,"x_max":501,"o":"m 43 0 l 43 688 l 203 688 l 219 600 q 267 671 232 644 q 347 697 303 697 q 444 676 411 697 q 490 613 478 654 q 501 515 501 572 l 501 0 l 313 0 l 313 507 q 311 530 313 519 q 306 548 310 540 q 294 560 301 556 q 272 565 286 565 q 254 562 263 565 q 240 554 246 558 q 232 546 235 550 l 232 0 l 43 0 m 335 763 q 293 772 313 763 q 254 792 274 781 q 223 807 239 800 q 190 814 207 814 q 163 800 172 814 q 151 764 153 786 l 99 764 q 124 862 99 825 q 193 899 150 899 q 237 891 217 899 q 274 874 257 883 q 306 858 290 865 q 336 851 321 851 q 367 864 357 851 q 379 894 376 876 l 438 894 q 420 822 436 851 q 381 778 404 793 q 335 763 358 763 z "},"#":{"ha":1014,"x_min":40,"x_max":974,"o":"m 174 0 l 247 233 l 40 233 l 76 349 l 283 349 l 332 501 l 121 503 l 158 618 l 369 618 l 425 797 l 546 797 l 489 618 l 654 618 l 711 797 l 832 797 l 775 618 l 974 618 l 938 501 l 739 501 l 690 349 l 892 349 l 856 232 l 654 232 l 582 0 l 460 0 l 533 232 l 368 233 l 294 0 l 174 0 m 404 349 l 569 349 l 618 501 l 451 501 l 404 349 z "},"o":{"ha":526,"x_min":33,"x_max":493,"o":"m 264 -11 q 138 7 189 -11 q 60 76 86 25 q 33 226 33 126 l 33 506 q 58 619 33 576 q 135 680 83 661 q 264 699 186 699 q 392 680 342 699 q 468 619 443 661 q 493 506 493 576 l 493 228 q 467 76 493 126 q 389 7 440 25 q 264 -11 338 -11 m 264 99 q 288 106 279 99 q 301 126 297 113 q 304 160 304 140 l 304 529 q 301 562 304 549 q 288 582 297 575 q 264 589 279 589 q 238 582 247 589 q 226 562 229 575 q 222 529 222 549 l 222 160 q 226 126 222 140 q 238 106 229 113 q 264 99 247 99 z "},"о":{"ha":526,"x_min":33,"x_max":493,"o":"m 264 -11 q 138 7 189 -11 q 60 76 86 25 q 33 226 33 126 l 33 506 q 58 619 33 576 q 135 680 83 661 q 264 699 186 699 q 392 680 342 699 q 468 619 443 661 q 493 506 493 576 l 493 228 q 467 76 493 126 q 389 7 440 25 q 264 -11 338 -11 m 264 99 q 288 106 279 99 q 301 126 297 113 q 304 160 304 140 l 304 529 q 301 562 304 549 q 288 582 297 575 q 264 589 279 589 q 238 582 247 589 q 226 562 229 575 q 222 529 222 549 l 222 160 q 226 126 222 140 q 238 106 229 113 q 264 99 247 99 z "},"ó":{"ha":526,"x_min":33,"x_max":493,"o":"m 264 -11 q 138 7 189 -11 q 60 76 86 25 q 33 226 33 126 l 33 506 q 58 619 33 576 q 135 680 83 661 q 264 699 186 699 q 392 680 342 699 q 468 619 443 661 q 493 506 493 576 l 493 228 q 467 76 493 126 q 389 7 440 25 q 264 -11 338 -11 m 264 99 q 288 106 279 99 q 301 126 297 113 q 304 160 304 140 l 304 529 q 301 562 304 549 q 288 582 297 575 q 264 589 279 589 q 238 582 247 589 q 226 562 229 575 q 222 529 222 549 l 222 160 q 226 126 222 140 q 238 106 229 113 q 264 99 247 99 m 186 763 l 267 906 l 444 906 l 304 763 l 186 763 z "},"ǒ":{"ha":526,"x_min":33,"x_max":493,"o":"m 264 -11 q 138 7 189 -11 q 60 76 86 25 q 33 226 33 126 l 33 506 q 58 619 33 576 q 135 680 83 661 q 264 699 186 699 q 392 680 342 699 q 468 619 443 661 q 493 506 493 576 l 493 228 q 467 76 493 126 q 389 7 440 25 q 264 -11 338 -11 m 264 99 q 288 106 279 99 q 301 126 297 113 q 304 160 304 140 l 304 529 q 301 562 304 549 q 288 582 297 575 q 264 589 279 589 q 238 582 247 589 q 226 562 229 575 q 222 529 222 549 l 222 160 q 226 126 222 140 q 238 106 229 113 q 264 99 247 99 m 211 757 l 76 911 l 190 911 l 265 836 l 340 911 l 450 911 l 314 757 l 211 757 z "},"ô":{"ha":526,"x_min":33,"x_max":493,"o":"m 264 -11 q 138 7 189 -11 q 60 76 86 25 q 33 226 33 126 l 33 506 q 58 619 33 576 q 135 680 83 661 q 264 699 186 699 q 392 680 342 699 q 468 619 443 661 q 493 506 493 576 l 493 228 q 467 76 493 126 q 389 7 440 25 q 264 -11 338 -11 m 264 99 q 288 106 279 99 q 301 126 297 113 q 304 160 304 140 l 304 529 q 301 562 304 549 q 288 582 297 575 q 264 589 279 589 q 238 582 247 589 q 226 562 229 575 q 222 529 222 549 l 222 160 q 226 126 222 140 q 238 106 229 113 q 264 99 247 99 m 76 757 l 211 911 l 314 911 l 450 757 l 339 757 l 264 832 l 189 757 l 76 757 z "},"ố":{"ha":526,"x_min":33,"x_max":699,"o":"m 264 -11 q 138 7 189 -11 q 60 76 86 25 q 33 226 33 126 l 33 506 q 58 619 33 576 q 135 680 83 661 q 264 699 186 699 q 392 680 342 699 q 468 619 443 661 q 493 506 493 576 l 493 228 q 467 76 493 126 q 389 7 440 25 q 264 -11 338 -11 m 264 99 q 288 106 279 99 q 301 126 297 113 q 304 160 304 140 l 304 529 q 301 562 304 549 q 288 582 297 575 q 264 589 279 589 q 238 582 247 589 q 226 562 229 575 q 222 529 222 549 l 222 160 q 226 126 222 140 q 238 106 229 113 q 264 99 247 99 m 76 757 l 211 911 l 314 911 l 450 757 l 339 757 l 264 832 l 189 757 l 76 757 m 440 839 l 521 982 l 699 982 l 558 839 l 440 839 z "},"ộ":{"ha":526,"x_min":33,"x_max":493,"o":"m 264 -11 q 138 7 189 -11 q 60 76 86 25 q 33 226 33 126 l 33 506 q 58 619 33 576 q 135 680 83 661 q 264 699 186 699 q 392 680 342 699 q 468 619 443 661 q 493 506 493 576 l 493 228 q 467 76 493 126 q 389 7 440 25 q 264 -11 338 -11 m 264 99 q 288 106 279 99 q 301 126 297 113 q 304 160 304 140 l 304 529 q 301 562 304 549 q 288 582 297 575 q 264 589 279 589 q 238 582 247 589 q 226 562 229 575 q 222 529 222 549 l 222 160 q 226 126 222 140 q 238 106 229 113 q 264 99 247 99 m 263 -193 q 209 -172 231 -193 q 188 -121 188 -150 q 209 -69 188 -90 q 263 -47 231 -47 q 316 -69 293 -47 q 339 -121 339 -90 q 316 -172 339 -150 q 263 -193 293 -193 m 76 757 l 211 911 l 314 911 l 450 757 l 339 757 l 264 832 l 189 757 l 76 757 z "},"ồ":{"ha":526,"x_min":33,"x_max":603,"o":"m 264 -11 q 138 7 189 -11 q 60 76 86 25 q 33 226 33 126 l 33 506 q 58 619 33 576 q 135 680 83 661 q 264 699 186 699 q 392 680 342 699 q 468 619 443 661 q 493 506 493 576 l 493 228 q 467 76 493 126 q 389 7 440 25 q 264 -11 338 -11 m 264 99 q 288 106 279 99 q 301 126 297 113 q 304 160 304 140 l 304 529 q 301 562 304 549 q 288 582 297 575 q 264 589 279 589 q 238 582 247 589 q 226 562 229 575 q 222 529 222 549 l 222 160 q 226 126 222 140 q 238 106 229 113 q 264 99 247 99 m 76 757 l 211 911 l 314 911 l 450 757 l 339 757 l 264 832 l 189 757 l 76 757 m 485 839 l 344 982 l 524 982 l 603 839 l 485 839 z "},"ổ":{"ha":526,"x_min":33,"x_max":628,"o":"m 264 -11 q 138 7 189 -11 q 60 76 86 25 q 33 226 33 126 l 33 506 q 58 619 33 576 q 135 680 83 661 q 264 699 186 699 q 392 680 342 699 q 468 619 443 661 q 493 506 493 576 l 493 228 q 467 76 493 126 q 389 7 440 25 q 264 -11 338 -11 m 264 99 q 288 106 279 99 q 301 126 297 113 q 304 160 304 140 l 304 529 q 301 562 304 549 q 288 582 297 575 q 264 589 279 589 q 238 582 247 589 q 226 562 229 575 q 222 529 222 549 l 222 160 q 226 126 222 140 q 238 106 229 113 q 264 99 247 99 m 76 757 l 211 911 l 314 911 l 450 757 l 339 757 l 264 832 l 189 757 l 76 757 m 464 839 l 464 854 q 478 885 464 875 q 507 906 493 896 q 521 931 521 915 l 521 939 q 517 958 521 949 q 501 968 513 968 q 481 939 482 968 l 399 951 q 429 1014 401 993 q 510 1035 457 1035 q 598 1019 568 1035 q 628 943 628 1003 l 628 938 q 612 894 628 906 q 580 876 596 882 q 564 853 564 869 l 564 839 l 464 839 z "},"ỗ":{"ha":526,"x_min":33,"x_max":493,"o":"m 264 -11 q 138 7 189 -11 q 60 76 86 25 q 33 226 33 126 l 33 506 q 58 619 33 576 q 135 680 83 661 q 264 699 186 699 q 392 680 342 699 q 468 619 443 661 q 493 506 493 576 l 493 228 q 467 76 493 126 q 389 7 440 25 q 264 -11 338 -11 m 264 99 q 288 106 279 99 q 301 126 297 113 q 304 160 304 140 l 304 529 q 301 562 304 549 q 288 582 297 575 q 264 589 279 589 q 238 582 247 589 q 226 562 229 575 q 222 529 222 549 l 222 160 q 226 126 222 140 q 238 106 229 113 q 264 99 247 99 m 76 757 l 211 911 l 314 911 l 450 757 l 339 757 l 264 832 l 189 757 l 76 757 m 331 944 q 289 953 308 944 q 250 974 269 963 q 219 989 235 982 q 186 996 203 996 q 158 982 168 996 q 147 946 149 968 l 94 946 q 120 1044 94 1007 q 189 1081 146 1081 q 233 1073 213 1081 q 269 1056 253 1065 q 301 1040 286 1047 q 332 1033 317 1033 q 363 1046 353 1033 q 375 1076 372 1058 l 433 1076 q 416 1004 432 1033 q 377 960 400 975 q 331 944 354 944 z "}}}
